<svg id="Layer_1" enable-background="new 0 0 1580 1580" height="512" viewBox="0 0 1580 1580" width="512" xmlns="http://www.w3.org/2000/svg"><g><g><g id="XMLID_1_"><g fill="#fff4f0"><path d="m995.3 925.2c22.3 20.1 22.1 55.3-.7 74.7-.1.1-.3.3-.4.4-46.3 39-76.3 94-86.2 153.7l-58.5 349.5-114-15.4 66.7-397.8c7-42.1-4.2-85.5-31.8-118-15.1-17.7-22.2-42-17.2-66.8 8.1-39.9 46-67.2 86.5-62.3 11.6 1.4 22.2 5.2 31.4 10.9 11.8 7.2 25.2 10.9 38.7 11 12.4.1 24.3 5 33.5 13.3z"/><path d="m1122.2 760.9c18.3 23.9 0 58.2-30 56.2l-91.4-6c-26.6-1.7-41.6-31.4-27.2-53.8l39.6-61.5c13.1-20.4 42.4-21.6 57.2-2.4 15.5 20.3 34.6 45.1 51.8 67.5z"/><path d="m938.8 498.1c35.4 25.1 45.8 73.8 23.8 111.2-5.3 8.9-11.9 16.5-19.4 22.6-18.3 14.9-31.2 35.3-36.8 58.2-2.3 9.5-6.3 18.7-12.1 27.3-24.3 36-72.7 47.5-110.6 26.3-23.3-13.1-37.9-35.4-41.9-59.6-7.7-46.4-34-87.6-73.8-112.7l-442.7-281.5 68.8-99.3 463.9 292.6c29.5 18.6 66.2 20.7 98.2 6.6 26.1-11.5 57.4-9.6 82.6 8.3z"/></g><path d="m1040.3 441.5c135.3 82.8 204.5 241.2 173.3 396.8l-139.3 695.7-224.9-30.4 58.5-349.5c9.9-59.7 39.9-114.8 86.2-153.7.2-.1.3-.3.4-.4 22.8-19.5 23-54.7.7-74.7l-52.1-46.8c-9.2-8.3-21.1-13.2-33.5-13.3-13.6-.1-26.9-3.8-38.7-11-9.3-5.6-19.9-9.4-31.4-10.9-40.4-4.9-78.4 22.3-86.5 62.3-5.1 24.8 2.1 49 17.2 66.8 27.6 32.5 38.8 75.9 31.8 118l-66.7 397.8-192.2-26s84.5-250.6 58.3-384.6 71.4-286.3 71.4-286.3c-396.2-163.2-550.6-352.5-550.6-352.5l103.2-148.9 442.6 281.5c39.8 25.1 66 66.3 73.8 112.7 4 24.2 18.5 46.5 41.9 59.6 37.9 21.2 86.3 9.7 110.6-26.3 5.8-8.6 9.8-17.8 12.1-27.3 5.6-23 18.4-43.4 36.8-58.2 7.6-6.1 14.2-13.7 19.4-22.6 22.1-37.4 11.7-86.1-23.8-111.2-25.3-17.9-56.6-19.8-82.6-8.3-31.9 14.1-68.7 12-98.2-6.6l-463.8-292.7 100.1-144.5zm51.8 375.6c30 2 48.4-32.4 30-56.2-17.2-22.4-36.2-47.2-51.8-67.5-14.8-19.2-44.1-18-57.2 2.4l-39.6 61.5c-14.4 22.4.6 52.1 27.2 53.9z" fill="#ffc4b0"/></g></g><g><g><g><g><g><path d="m824.3 778.2c-17.9 0-35.9-4.4-52.3-13.6-28.8-16.1-48.4-44-53.8-76.5-6.7-40.2-29.6-75.3-62.9-96.4l-442.8-281.6c-11.2-7.1-14.5-22-7.4-33.1 7.1-11.2 22-14.5 33.1-7.4l442.7 281.5c44.8 28.3 75.6 75.3 84.6 129 3 18.1 13.9 33.6 30 42.6 27 15.1 61.6 6.9 78.9-18.8 4.1-6 7-12.6 8.7-19.5 6.8-28.3 22.4-52.9 45-71.2 5.5-4.5 10.2-9.9 13.9-16.2 15.7-26.6 8.3-61.5-16.9-79.4-17.4-12.3-39.5-14.6-59-6-39.7 17.5-84.8 14.4-120.7-8.3l-464-292.5c-11.2-7.1-14.6-21.9-7.5-33.1s21.9-14.6 33.1-7.5l463.9 292.6c22.4 14.1 50.7 16 75.7 5 35.1-15.5 74.8-11.5 106.1 10.7 22.1 15.6 37.4 38.9 43.1 65.5s1.3 54.1-12.5 77.4c-6.6 11.2-15 20.9-25 29-14.4 11.6-24.2 27.3-28.6 45.3-3 12.5-8.3 24.3-15.5 35.1-20.7 30.5-55 47.4-89.9 47.4z" fill="#333"/></g></g><g><g><path d="m849.5 1527.6c-1.3 0-2.7-.1-4-.3-13.1-2.2-21.9-14.6-19.7-27.6l58.5-349.5c11.1-66.5 44.6-126.2 94.4-168.1l.3-.3c5.6-4.8 8.8-11.6 8.9-19 .1-7.6-2.9-14.6-8.6-19.6l-52-46.8c-5.1-4.5-11.3-7.1-17.6-7.1-18-.1-35.7-5.1-51.1-14.5-6.6-4-14-6.6-21.9-7.6-28-3.4-54.4 15.6-60.1 43.3-3.4 16.6 1 33.5 11.9 46.4 31.9 37.6 45.5 87.7 37.2 137.5l-66.7 397.9c-2.2 13.1-14.6 21.9-27.6 19.7-13.1-2.2-21.9-14.6-19.7-27.6l66.7-397.8c6-35.8-3.7-71.8-26.4-98.5-20.6-24.2-28.7-55.9-22.4-87.1 10.6-52 60.2-87.8 112.9-81.3 14.7 1.8 28.5 6.6 41 14.2 8 4.9 17.1 7.4 26.4 7.5 18 .1 35.6 7 49.4 19.4l52.1 46.8c15.8 14.3 24.8 34.6 24.5 55.9-.3 21.1-9.6 41-25.5 54.7-.2.2-.4.4-.6.5l.1-.1c-.1.1-.2.1-.2.2-41.1 34.6-68.8 84.1-78 139.3l-58.5 349.5c-2 11.7-12.2 20-23.7 20zm128.9-545.3c-.1 0-.1 0 0 0zm0-.1c0 .1 0 .1 0 0z" fill="#333"/></g></g><g><path d="m1094.6 841.2c-1.3 0-2.7 0-4-.1l-91.4-6c-21.1-1.4-39.3-13.4-48.8-32.3-9.5-18.8-8.4-40.7 3.1-58.5l39.6-61.5c10.4-16.1 28-26.2 47.2-27s37.6 7.8 49.3 23c15.6 20.4 34.7 45.2 51.8 67.5 14.3 18.6 16.3 43 5.2 63.7-10.6 19.5-30.2 31.2-52 31.2zm-52-137.5c-.2 0-.3 0-.5 0-2.1.1-6.1.9-8.8 5l-39.6 61.5c-3 4.6-1.6 8.8-.6 10.9 1.1 2.1 3.6 5.7 9.1 6l91.4 6c6.4.4 9.4-3.9 10.4-5.8s2.9-6.8-1-11.9c-17.2-22.4-36.2-47.2-51.8-67.5-2.8-3.6-6.4-4.2-8.6-4.2z" fill="#333"/></g></g><g><path d="m1074.4 1558c-1.1 0-2.2-.1-3.2-.2l-531.2-71.8c-7.1-1-13.4-5-17.2-11.1s-4.6-13.5-2.3-20.3c.9-2.6 82.1-246.2 57.5-372.3-11.8-60.1-2.7-129.6 27-206.7 11.6-30.2 24.2-55.5 33.5-72.7-82-34.9-159.5-73.4-230.8-114.8-63-36.5-121.3-75.3-173.3-115.3-89.3-68.7-129.1-116.9-130.7-119-6.8-8.3-7.2-20-1.1-28.8l272-392.7c7.3-10.5 21.4-13.4 32.3-6.8l646 395.5c70.6 43.2 125.4 106.1 158.5 182 33.1 75.8 42.1 158.8 25.8 240l-139.3 695.8c-2.3 11.3-12.3 19.2-23.5 19.2zm-499.7-115.8 480.5 65 134.9-673.7c29.1-145-36.2-294.3-162.3-371.6l-626.7-383.6-248.4 358.5c17.3 18.3 53.9 54.4 112.6 99.3 79.1 60.5 215.5 150.1 416.6 232.9 6.6 2.7 11.6 8.2 13.8 15 2.1 6.8 1.2 14.2-2.7 20.2-.9 1.4-92.1 146-68 268.8 22.2 113.2-28.9 299.1-50.3 369.2z" fill="#333"/></g></g><g><path d="m1321.8 640.9c-10.1 0-19.4-6.4-22.8-16.4-4.2-12.6 2.6-26.2 15.2-30.4l123.6-41.2c12.6-4.2 26.2 2.6 30.4 15.2s-2.6 26.2-15.2 30.4l-123.6 41.2c-2.5.8-5.1 1.2-7.6 1.2z" fill="#333"/></g><g><path d="m1281 550.8c-7 0-13.9-3-18.7-8.9-8.3-10.3-6.7-25.4 3.6-33.8l101.3-81.9c10.3-8.3 25.4-6.7 33.8 3.6s6.7 25.4-3.6 33.8l-101.4 81.9c-4.4 3.6-9.7 5.3-15 5.3z" fill="#333"/></g><g><path d="m1457.8 755.9c-.8 0-1.7 0-2.6-.1l-129.5-13.7c-13.2-1.4-22.7-13.2-21.3-26.4s13.2-22.7 26.4-21.3l129.5 13.7c13.2 1.4 22.7 13.2 21.3 26.4-1.2 12.2-11.6 21.4-23.8 21.4z" fill="#333"/></g></g></g></svg>