<?xml version="1.0" encoding="UTF-8"?>
<svg xmlns="http://www.w3.org/2000/svg" xmlns:xlink="http://www.w3.org/1999/xlink" version="1.1" id="Capa_1" x="0px" y="0px" viewBox="0 0 512 512" style="enable-background:new 0 0 512 512;" xml:space="preserve" width="512" height="512">
<g>
	<g>
		<path style="fill:#7A6D79;" d="M163.249,118.311c-31.158,56.762,10.19,269.087,10.19,269.087h214.583&#10;&#9;&#9;&#9;c0,0,41.348-212.325,10.19-269.087C360.278,49.206,201.182,49.206,163.249,118.311z"/>
		<path style="fill:#685E68;" d="M398.211,118.311C377.96,81.418,323.176,64.228,270.73,66.728&#10;&#9;&#9;&#9;c45.791,2.182,89.799,19.372,107.481,51.584c31.158,56.762-10.19,269.087-10.19,269.087h20&#10;&#9;&#9;&#9;C388.022,387.399,429.369,175.073,398.211,118.311z"/>
		<path style="fill:#5F99D7;" d="M101.869,357.719c-3.867,0-6.096-4.391-3.815-7.513L200.537,209.97&#10;&#9;&#9;&#9;c8.796-12.046,6.17-28.948-5.876-37.754c-4.805-3.508-10.385-5.204-15.909-5.204c-8.324,0-16.549,3.839-21.838,11.08&#10;&#9;&#9;&#9;L29.867,351.941c-18.159,24.848-0.412,59.797,30.364,59.797h88.591c3.335,0,6.038,2.703,6.038,6.038v78.142&#10;&#9;&#9;&#9;c0,4.739,3.842,8.581,8.581,8.581h274.902c4.739,0,8.581-3.842,8.581-8.581v-97.235c0-22.624-18.34-40.964-40.964-40.964H101.869z&#10;&#9;&#9;&#9;"/>
		<path style="fill:#3C87D0;" d="M174.661,172.216c12.046,8.807,14.672,25.708,5.876,37.754L78.055,350.207&#10;&#9;&#9;&#9;c-2.281,3.122-0.052,7.513,3.815,7.513h20c-3.867,0-6.096-4.391-3.815-7.513L200.537,209.97&#10;&#9;&#9;&#9;c8.796-12.046,6.17-28.948-5.876-37.754c-4.805-3.507-10.385-5.204-15.909-5.204c-3.424,0-6.827,0.66-10.02,1.928&#10;&#9;&#9;&#9;C170.793,169.764,172.787,170.848,174.661,172.216z"/>
		<path style="fill:#3C87D0;" d="M405.96,357.719H289.824v13.786c0,1.774,1.438,3.213,3.213,3.214h106.118&#10;&#9;&#9;&#9;c15.336,0,27.769,12.433,27.769,27.769v93.431c0,4.738-3.841,8.579-8.579,8.581h19.998c4.739,0,8.581-3.842,8.581-8.581v-97.235&#10;&#9;&#9;&#9;C446.924,376.06,428.584,357.719,405.96,357.719z"/>
		<path style="fill:#FED2A4;" d="M309.824,354.505v-76.371h-58.188v76.371c0,1.775-1.439,3.214-3.214,3.214h-13.705&#10;&#9;&#9;&#9;c3.22,16.779,22.589,29.679,46.013,29.679s42.793-12.901,46.013-29.679h-13.705C311.263,357.719,309.824,356.28,309.824,354.505z"/>
		<path style="fill:#FFBD86;" d="M289.824,278.134v93.371c0,1.774,1.438,3.213,3.213,3.214h23.642&#10;&#9;&#9;&#9;c5.254-4.77,8.836-10.601,10.064-17h-13.705c-1.775,0-3.214-1.439-3.214-3.214v-76.371H289.824z"/>
		<path style="fill:#FED2A4;" d="M372.361,246.157c0,63.743-41.022,76.591-91.631,76.591s-91.631-12.848-91.631-76.591&#10;&#9;&#9;&#9;c0-26.745,4.814-70.095,11.901-95.983c1.463-5.345,6.32-9.046,11.862-9.046h29.318c2.106,0,4.182,0.5,6.041,1.488&#10;&#9;&#9;&#9;c26.53,14.09,66.468,22.7,103.008,24.074c7.779,0.293,14.223,6.079,15.434,13.768&#10;&#9;&#9;&#9;C370.212,202.994,372.361,228.283,372.361,246.157z"/>
		<path style="fill:#FFBD86;" d="M366.663,180.458c-1.211-7.689-7.655-13.476-15.434-13.768c-4.567-0.172-9.188-0.456-13.828-0.851&#10;&#9;&#9;&#9;c4.777,2.303,8.303,6.845,9.172,12.361c3.605,22.894,5.788,48.584,5.788,66.742c0,60.166-35.978,75.694-82.315,77.593&#10;&#9;&#9;&#9;c3.505,0.145,7.069,0.213,10.684,0.213c50.609,0,91.631-12.848,91.631-76.591C372.361,228.283,370.212,202.994,366.663,180.458z"/>
		<path style="fill:#5F99D7;" d="M124.491,314.032l76.046-104.062c8.796-12.046,6.17-28.948-5.876-37.754&#10;&#9;&#9;&#9;c-4.805-3.508-10.385-5.204-15.909-5.204c-8.324,0-16.549,3.839-21.838,11.08L80.2,283.066L124.491,314.032z"/>
		<path style="fill:#3C87D0;" d="M194.661,172.216c-4.805-3.507-10.385-5.204-15.909-5.204c-3.424,0-6.827,0.66-10.02,1.928&#10;&#9;&#9;&#9;c2.061,0.824,4.055,1.908,5.929,3.276c12.046,8.807,14.672,25.708,5.876,37.754l-69.283,94.807l13.237,9.255l76.046-104.062&#10;&#9;&#9;&#9;C209.333,197.924,206.707,181.023,194.661,172.216z"/>
		<path style="fill:#FED2A4;" d="M194.661,172.216c-12.045-8.802-28.944-6.169-37.747,5.876l-21.308,29.16l43.618,31.876&#10;&#9;&#9;&#9;l21.313-29.157C209.339,197.925,206.706,181.018,194.661,172.216z"/>
		<path style="fill:#FFBD86;" d="M166.19,229.602l13.034,9.525l21.313-29.157c8.802-12.045,6.169-28.952-5.876-37.754&#10;&#9;&#9;&#9;c-7.771-5.679-17.561-6.591-25.895-3.294c-0.011,0.004-0.023,0.013-0.034,0.018c2.061,0.824,4.055,1.908,5.929,3.276&#10;&#9;&#9;&#9;c12.046,8.807,14.672,25.708,5.876,37.754L166.19,229.602z"/>
	</g>
	<g>
		<path style="fill:none;stroke:#000000;stroke-width:15;stroke-linecap:round;stroke-linejoin:round;stroke-miterlimit:10;" d="&#10;&#9;&#9;&#9;M151.69,185.24v-0.01c0.44-28.29,3.68-52.57,11.56-66.92c37.93-69.1,197.03-69.1,234.96,0c23.93,43.59,5.09,178.95-4.94,239.41"/>
		<path style="fill:none;stroke:#000000;stroke-width:15;stroke-linecap:round;stroke-linejoin:round;stroke-miterlimit:10;" d="&#10;&#9;&#9;&#9;M156.29,270.52c3.49,33.62,8.27,65.32,11.9,87.2"/>
		<path style="fill:none;stroke:#000000;stroke-width:15;stroke-linecap:round;stroke-linejoin:round;stroke-miterlimit:10;" d="&#10;&#9;&#9;&#9;M73.83,291.79l83.082-113.699c5.29-7.24,13.519-11.08,21.839-11.08c5.53,0,11.11,1.697,15.91,5.207&#10;&#9;&#9;&#9;c12.05,8.8,14.668,25.702,5.878,37.752L98.05,350.21c-2.28,3.12-0.05,7.51,3.82,7.51h146.55"/>
		<path style="fill:none;stroke:#000000;stroke-width:15;stroke-linecap:round;stroke-linejoin:round;stroke-miterlimit:10;" d="&#10;&#9;&#9;&#9;M313.04,357.72h92.92c22.62,0,40.96,18.34,40.96,40.96v40.23"/>
		<path style="fill:none;stroke:#000000;stroke-width:15;stroke-linecap:round;stroke-linejoin:round;stroke-miterlimit:10;" d="&#10;&#9;&#9;&#9;M53.191,320.024l-23.325,31.917c-18.159,24.848-0.412,59.797,30.364,59.797h88.591c3.335,0,6.038,2.703,6.038,6.038v78.142&#10;&#9;&#9;&#9;c0,4.739,3.842,8.581,8.581,8.581h274.902c4.739,0,8.581-3.842,8.581-8.581v-22.006"/>
		
			<line style="fill:none;stroke:#000000;stroke-width:15;stroke-linecap:round;stroke-linejoin:round;stroke-miterlimit:10;" x1="401.516" y1="504.5" x2="401.516" y2="430.235"/>
		<path style="fill:none;stroke:#000000;stroke-width:15;stroke-linecap:round;stroke-linejoin:round;stroke-miterlimit:10;" d="&#10;&#9;&#9;&#9;M309.82,320.88v33.63c0,1.77,1.44,3.21,3.22,3.21h13.7c-3.22,16.78-22.59,29.68-46.01,29.68c-23.42,0-42.79-12.9-46.01-29.68h13.7&#10;&#9;&#9;&#9;c1.78,0,3.22-1.44,3.22-3.21v-33.63"/>
		<path style="fill:none;stroke:#000000;stroke-width:15;stroke-linecap:round;stroke-linejoin:round;stroke-miterlimit:10;" d="&#10;&#9;&#9;&#9;M195.99,173.26c1.49-8.48,3.17-16.37,5.01-23.09c1.46-5.34,6.32-9.04,11.86-9.04h29.32c2.11,0,4.18,0.5,6.04,1.49&#10;&#9;&#9;&#9;c26.53,14.09,66.47,22.7,103.01,24.07c7.78,0.29,14.22,6.08,15.43,13.77c3.55,22.53,5.7,47.82,5.7,65.7&#10;&#9;&#9;&#9;c0,63.74-41.02,76.59-91.63,76.59s-91.63-12.85-91.63-76.59c0-6.41,0.28-13.77,0.79-21.62"/>
		<path style="fill:none;stroke:#000000;stroke-width:15;stroke-linecap:round;stroke-linejoin:round;stroke-miterlimit:10;" d="&#10;&#9;&#9;&#9;M259.399,280.752c12.949-13.741,29.714-13.741,42.663,0"/>
		<path style="fill:none;stroke:#000000;stroke-width:15;stroke-linecap:round;stroke-linejoin:round;stroke-miterlimit:10;" d="&#10;&#9;&#9;&#9;M301.946,195.903c11.561,6.847,23.122,6.847,34.682,0"/>
		<path style="fill:none;stroke:#000000;stroke-width:15;stroke-linecap:round;stroke-linejoin:round;stroke-miterlimit:10;" d="&#10;&#9;&#9;&#9;M224.832,195.903c11.561,6.847,23.122,6.847,34.682,0"/>
		<g>
			
				<line style="fill:none;stroke:#000000;stroke-width:15;stroke-linecap:round;stroke-linejoin:round;stroke-miterlimit:10;" x1="472.962" y1="114.493" x2="472.962" y2="97.162"/>
			
				<line style="fill:none;stroke:#000000;stroke-width:15;stroke-linecap:round;stroke-linejoin:round;stroke-miterlimit:10;" x1="472.962" y1="114.493" x2="456.479" y2="109.138"/>
			
				<line style="fill:none;stroke:#000000;stroke-width:15;stroke-linecap:round;stroke-linejoin:round;stroke-miterlimit:10;" x1="472.962" y1="114.493" x2="462.774" y2="128.515"/>
			
				<line style="fill:none;stroke:#000000;stroke-width:15;stroke-linecap:round;stroke-linejoin:round;stroke-miterlimit:10;" x1="472.962" y1="114.493" x2="483.149" y2="128.515"/>
			
				<line style="fill:none;stroke:#000000;stroke-width:15;stroke-linecap:round;stroke-linejoin:round;stroke-miterlimit:10;" x1="472.962" y1="114.493" x2="489.444" y2="109.138"/>
		</g>
		<g>
			
				<line style="fill:none;stroke:#000000;stroke-width:15;stroke-linecap:round;stroke-linejoin:round;stroke-miterlimit:10;" x1="106.208" y1="43.122" x2="106.208" y2="25.791"/>
			
				<line style="fill:none;stroke:#000000;stroke-width:15;stroke-linecap:round;stroke-linejoin:round;stroke-miterlimit:10;" x1="106.208" y1="43.122" x2="89.725" y2="37.767"/>
			
				<line style="fill:none;stroke:#000000;stroke-width:15;stroke-linecap:round;stroke-linejoin:round;stroke-miterlimit:10;" x1="106.208" y1="43.122" x2="96.021" y2="57.144"/>
			
				<line style="fill:none;stroke:#000000;stroke-width:15;stroke-linecap:round;stroke-linejoin:round;stroke-miterlimit:10;" x1="106.208" y1="43.122" x2="116.395" y2="57.144"/>
			
				<line style="fill:none;stroke:#000000;stroke-width:15;stroke-linecap:round;stroke-linejoin:round;stroke-miterlimit:10;" x1="106.208" y1="43.122" x2="122.691" y2="37.767"/>
		</g>
		
			<line style="fill:none;stroke:#000000;stroke-width:15;stroke-linecap:round;stroke-linejoin:round;stroke-miterlimit:10;" x1="310.898" y1="226.787" x2="327.677" y2="243.566"/>
		
			<line style="fill:none;stroke:#000000;stroke-width:15;stroke-linecap:round;stroke-linejoin:round;stroke-miterlimit:10;" x1="327.677" y1="226.787" x2="310.898" y2="243.566"/>
		
			<line style="fill:none;stroke:#000000;stroke-width:15;stroke-linecap:round;stroke-linejoin:round;stroke-miterlimit:10;" x1="233.784" y1="226.787" x2="250.563" y2="243.566"/>
		
			<line style="fill:none;stroke:#000000;stroke-width:15;stroke-linecap:round;stroke-linejoin:round;stroke-miterlimit:10;" x1="250.563" y1="226.787" x2="233.784" y2="243.566"/>
		<path style="fill:none;stroke:#000000;stroke-width:15;stroke-linecap:round;stroke-linejoin:round;stroke-miterlimit:10;" d="&#10;&#9;&#9;&#9;M124.491,314.032l76.047-104.062c8.796-12.046,6.168-28.946-5.878-37.752c-4.805-3.508-10.385-5.207-15.91-5.207&#10;&#9;&#9;&#9;c-8.324,0-16.551,3.84-21.839,11.08L80.2,283.066"/>
		
			<line style="fill:none;stroke:#000000;stroke-width:15;stroke-linecap:round;stroke-linejoin:round;stroke-miterlimit:10;" x1="135.607" y1="207.251" x2="179.224" y2="239.127"/>
		<path style="fill:none;stroke:#000000;stroke-width:15;stroke-linecap:round;stroke-linejoin:round;stroke-miterlimit:10;" d="&#10;&#9;&#9;&#9;M429.809,58.77c-20.886-37.241-98.766-59.044-173.95-48.699c-60.147,8.277-95.36,39.138-78.651,68.931&#10;&#9;&#9;&#9;c13.367,23.834,63.21,37.788,111.328,31.167c38.494-5.297,61.031-25.048,50.337-44.116c-8.555-15.254-40.455-24.185-71.25-19.947&#10;&#9;&#9;&#9;c-24.636,3.39-39.06,16.031-32.216,28.234c5.475,9.763,25.891,15.478,45.6,12.766"/>
	</g>
</g>















</svg>
