<svg id="Image" enable-background="new 0 0 64 64" height="64" viewBox="0 0 64 64" width="64" xmlns="http://www.w3.org/2000/svg"><g><circle cx="23" cy="24" fill="#ebedf0" r="20"/><g><g id="XMLID_5_"><g><path d="m12 37s2.19-.61 2.43-.7c-.65 3.25-1.43 9.2-1.43 16.7h-5-1c0-5.31 1.56-13.56 5-16z" fill="#8ff3ad"/><path d="m42 54h-4c-9.69 0-13 0-13 6h-10c5.25 0 6-4.5 6-7 0-1.7 0-7.99 0-12.18h2.93c.81.55 2.14 1.18 4.07 1.18 5.94 0 6.56-8 6.56-8l3.44 1c2.81.88 7.31 1.56 9 4s5 13 5 13-.08.36-.52.8c-.89.92-3.27 2.17-9.48 1.2z" fill="#8ff3ad"/><path d="m36 24c0 1.88-.44 2.88-1.23 5.03-.41-.22-.77-.28-.77-.28s-1.69-2.75-4-2.75-2.06 2-7 1c0 0-1.65-.16-2.74 1.21-.44-.14-.88-.21-1.26-.21-1.05 0-1.78.41-2.29 1.03-.79-2.22.29-4.03.29-4.03.01-.11.05-.25.11-.41.63-1.64 3.93-5.59 8.89-5.59 5.44 0 4.62 2.31 8 0 0 0 2 2.23 2 5z" fill="#ebedf0"/><g fill="#fff"><path d="m35.97 31.03c0 1.87-1.41 2.97-1.41 2.97s-.62 8-6.56 8c-1.93 0-3.26-.63-4.07-1.18h-2.93c0-1.96 0-3.46 0-3.82 0-3 2-2.12 2-5 0-2.17-1.39-3.34-2.74-3.79 1.09-1.37 2.74-1.21 2.74-1.21 4.94 1 4.69-1 7-1s4 2.75 4 2.75.36.06.77.28c.55.29 1.2.87 1.2 2z"/><path d="m21 53c0 2.5-.75 7-6 7s-7-3-7-7h5c0-7.5.78-13.45 1.43-16.7.061-.32.12-.61.181-.88.149-.63.279-1.11.389-1.42.43-1.21.56-3.6 1.71-4.97.51-.62 1.24-1.03 2.29-1.03.38 0 .82.07 1.26.21 1.35.45 2.74 1.62 2.74 3.79 0 2.88-2 2-2 5v3.82z"/><path d="m62 10v4c0 .55-.45 1-1 1h-1c-.55 0-1 .45-1 1v1c0 .55-.45 1-1 1h-18c-.55 0-1-.45-1-1v-10c0-.55.45-1 1-1h18c.55 0 1 .45 1 1v1c0 .55.45 1 1 1h1c.55 0 1 .45 1 1z"/></g></g><g><g fill="none" stroke-linecap="round" stroke-linejoin="round" stroke-miterlimit="10" stroke-width="1.5"><path d="m2 60h13 10 24 13" stroke="#979faf"/><path d="m34.77 29.03c.79-2.15 1.23-3.15 1.23-5.03 0-2.77-2-5-2-5-3.38 2.31-2.56 0-8 0-4.96 0-8.26 3.95-8.89 5.59" stroke="#303e58"/><path d="m23.93 40.82c.81.55 2.14 1.18 4.07 1.18 5.94 0 6.56-8 6.56-8s1.41-1.1 1.41-2.97c0-1.13-.649-1.71-1.2-2-.41-.22-.77-.28-.77-.28s-1.69-2.75-4-2.75-2.06 2-7 1c0 0-1.65-.16-2.74 1.21" stroke="#303e58"/><path d="m41 50 1 4c6.21.97 8.59-.28 9.48-1.2.44-.44.52-.8.52-.8s-3.31-10.56-5-13-6.19-3.12-9-4" stroke="#303e58"/><path d="m51.48 52.8s.52 1.82.52 3.2 0 4-3 4h-22.342c-.455 0-.886-.2-1.181-.546-.294-.346-.423-.805-.349-1.253.694-4.201 4.268-4.201 12.872-4.201" stroke="#303e58"/><path d="m8 53c0 4 1.75 7 7 7s6-4.5 6-7c0-1.7 0-7.99 0-12.18 0-1.96 0-3.46 0-3.82 0-3 2-2.12 2-5 0-2.17-1.39-3.34-2.74-3.79-.44-.14-.88-.21-1.26-.21-1.05 0-1.78.41-2.29 1.03-1.15 1.37-1.28 3.76-1.71 4.97-.11.31-.24.79-.39 1.42-.061.27-.12.56-.181.88-.649 3.25-1.429 9.2-1.429 16.7h-5-1c0-5.31 1.56-13.56 5-16" stroke="#303e58"/><path d="m59 8c0 .55.45 1 1 1h1c.55 0 1 .45 1 1v4c0 .55-.45 1-1 1h-1c-.55 0-1 .45-1 1v1c0 .55-.45 1-1 1h-18c-.55 0-1-.45-1-1v-10c0-.55.45-1 1-1h18c.55 0 1 .45 1 1z" stroke="#979faf"/></g><path d="m42 9h3v6h-3z" fill="#8ff3ad"/></g></g></g></g></svg>