<svg id="Layer_1" enable-background="new 0 0 512 512" height="512" viewBox="0 0 512 512" width="512" xmlns="http://www.w3.org/2000/svg"><g><path d="m492.74 239.87c0-17.86-5.27-34.89-14.64-47.82 10.57-13.77 16.53-32.27 16.53-51.87 0-18.42-5.38-36.06-14.95-49.59 8.98-9.91 14.01-22.81 14.01-36.4-.01-29.88-24.34-54.19-54.25-54.19-24.88 0-46.01 16.58-52.4 39.82-2.88-.48-5.8-.73-8.75-.73-22.06 0-41.29 13.42-49.2 33.13-9.76-4.77-20.43-7.26-31.34-7.26-20.21 0-39.04 8.39-52.41 22.94-10.02-13.81-26.15-22.23-43.87-22.23-9.62 0-18.8 2.43-26.93 7.08-12.11-11.94-29.64-18.89-48.29-18.89-2.19 0-4.42.1-6.83.3-9.47-7.3-21.1-11.28-33.15-11.28-29.91 0-54.24 24.31-54.24 54.19 0 8.2 1.78 16.14 5.19 23.35-6.69 6.35-10.63 15.28-10.63 24.73 0 3.04.44 6.14 1.28 9.14-5.26 8.57-8.02 18.32-8.02 28.42 0 11.06 3.42 21.79 9.74 30.88-7.84 9.58-12.22 21.74-12.22 34.33 0 16.76 7.69 32.31 20.59 42.52-7.15 9.38-11.13 20.92-11.13 32.85 0 29.88 24.39 54.19 54.36 54.19 16.43 0 31.16-7.34 41.12-18.9 5.07 15.24 14.97 24.39 24.06 29.81 11.37 6.77 25.09 9.73 37.67 9.73 5.81 0 11.38-.64 16.36-1.81-.06 20.62 7.62 38.63 18.25 50.18 4.74 5.14 9.42 9.31 13.94 13.33 11.14 9.91 19.19 17.08 20.77 32.39 1.76 17.1 12.57 19.83 19.21 19.83.2 0 .39 0 .58-.01 11.99-.17 18.51-10.77 18.76-21.16 0-.05 0-.09 0-.14l.02-2.8c.14-19.09.26-35.2-3.51-48.91 18.65 4.84 38.86 2.04 51.34-6.62 16.21 15.71 40.96 23.19 63.01 18.37 13.39-2.92 36.68-12.87 46.57-46.62 25.29-6.94 43.75-35.46 43.75-68.93 0-17.88-5.32-34.95-14.77-47.9 9.22-12.93 14.42-29.84 14.42-47.45zm-338.18 134.74c-14.9-8.88-21.39-24.54-19.27-46.57.04-.39.04-.77.02-1.15.08-1.2.14-2.41.14-3.63 0-16.87-7.7-32.43-20.59-42.57 7.16-9.43 11.13-20.96 11.13-32.79 0-11.12-3.42-21.89-9.74-30.99 7.83-9.57 12.22-21.69 12.22-34.21 0-6-.96-11.86-2.83-17.4 3.75.02 7.47-.24 11.12-.76.25 9.52 3.22 18.02 8.89 25.35 4.51 5.82 10.47 10.42 16.98 13.94-9.82 4.88-18.94 12.28-25.07 22.03-6.25 9.95-13.99 30.56 4.39 56.86 12.12 17.36 27.33 24.01 43.57 25.38-4.85 12.32-8.14 28.23-6.31 37.81.73 3.83 4.09 6.5 7.85 6.5.5 0 1-.05 1.51-.14 4.34-.83 7.18-5.02 6.35-9.36-1.38-7.22 3.09-25.43 8.25-35.11 11.08-1.13 22.29-3.72 33.03-6.21 6.67-1.55 13.57-3.15 20.18-4.35 42.05-7.64 56.51-2.53 78.59 16.71 1.52 1.32 3.39 1.97 5.25 1.97 2.23 0 4.45-.93 6.04-2.75 2.9-3.33 2.55-8.39-.78-11.29-27.33-23.8-47.96-28.37-91.96-20.38-6.99 1.27-14.08 2.92-20.93 4.51-31.79 7.37-59.25 13.74-77.52-12.44-9.98-14.29-11.31-27.48-3.95-39.19 8.53-13.57 27.33-21.98 40.22-21.5 1.25.16 2.47.28 3.64.37 4.25.32 8.04-2.78 8.54-7.04s-2.43-8.15-6.66-8.84c-1.26-.2-2.57-.35-3.92-.42-10.21-1.37-26.28-6.05-34.63-16.84-4.26-5.5-6.05-12-5.45-19.76 2.92-1.14 5.74-2.47 8.44-3.98 10.29 11.26 24.83 17.81 40.2 17.81 12.38 0 24.33-4.26 33.9-11.9 8.24 8.28 19.56 13.42 32.71 14.71 17.43 1.72 36.44-3.47 48.17-12.8 1.96.43 3.95.76 5.94 1.06.15 1.04.31 2.07.52 3.09-14.28 4.4-24.69 17.7-24.69 33.39 0 4.42 3.58 8 8 8s8-3.58 8-8c0-8.84 6.11-16.27 14.34-18.34 8.86 15.64 25.63 26.22 44.84 26.22h.24c4.42 0 8-3.58 8-8s-3.58-8-8-8h-.24c-14.43 0-26.87-8.67-32.42-21.08-.17-.57-.39-1.11-.68-1.62-.59-1.51-1.08-3.07-1.46-4.67 14.89-.36 30.18-4.02 44.89-10.82-.95 17.25 5.4 29.81 11.71 37.89-8.86 12.78-13.84 29.36-13.84 46.56 0 17.91 5.34 35.01 14.83 47.96-10.23 14.94-14.92 36.16-14.81 56.12-13.16-2.41-30.69-2.76-45.17 4.35-13.62-19.76-36.11-31.74-60.5-31.74-28.7 0-54.96 16.81-66.86 42.77-3.08 6.59-5.24 13.15-6.61 19.57-9.75 4.07-31.55 5.37-47.75-4.29zm287.13 14.81c-3.23.48-5.85 2.88-6.6 6.06-5.16 21.65-17.85 35.73-35.73 39.63-18.77 4.1-40.94-3.88-52.73-18.96-1.51-1.94-3.83-3.07-6.29-3.07-.01 0-.01 0-.02 0-2.45 0-4.76 1.12-6.28 3.05-6.22 7.89-26.1 12.49-44.68 6.49-4.33-1.4-10.01-3.89-15.03-8.23-.74-.74-1.52-1.48-2.33-2.2-5.04-5.24-8.99-12.68-9.44-23.22-.19-4.41-3.93-7.84-8.34-7.65s-7.84 3.92-7.65 8.34c.54 12.64 4.9 23.61 12.48 32.18.37.52.82 1.01 1.33 1.44 0 0 .01 0 .01.01 1.06 1.11 2.18 2.17 3.35 3.19 12.53 13.35 12.39 31.96 12.18 61.32l-.02 2.7c-.02.46-.32 5.47-3.07 5.51-2.18.05-3 .07-3.56-5.46-2.21-21.49-13.79-31.79-26.05-42.7-4.23-3.77-8.61-7.66-12.8-12.21-12.61-13.72-20.2-41.32-7.01-69.57 9.33-20.34 29.87-33.49 52.34-33.49 21.31 0 40.77 11.68 50.77 30.49 1.1 2.07 3.06 3.55 5.35 4.06 2.29.5 4.69-.03 6.56-1.44 12.57-9.55 32.31-7.98 44.25-5.09 1.24 8.27 3.38 15.86 6.37 22.13 1.9 3.99 6.68 5.68 10.66 3.78 3.99-1.9 5.68-6.67 3.78-10.66-2.76-5.79-4.61-13.15-5.49-21.18.03-.74-.05-1.47-.21-2.17-1.84-21.02 2.75-45.98 14.66-59.46 2.7-3.06 2.67-7.66-.07-10.67-9.5-10.46-14.95-25.94-14.95-42.46 0-16.03 5.19-31.21 14.25-41.65 2.75-3.17 2.58-7.93-.39-10.9-7.66-7.65-15.41-21.02-10.02-41.81.64-.43 1.29-.86 1.93-1.3 25.89-17.78 43.47-43.08 45.87-66.03.46-4.39-2.73-8.33-7.12-8.79-4.38-.46-8.33 2.73-8.79 7.12-1.9 18.14-17.22 39.54-39.02 54.51-1.23.85-2.48 1.67-3.73 2.46-.19.11-.38.23-.57.36-23.96 15.02-50.55 20.08-73.68 13.86-2.78-.75-5.75.06-7.77 2.11-6.57 6.66-22.36 12.88-38.71 11.26-8.32-.82-19.74-4.07-26.85-14.88-1.37-2.08-3.62-3.4-6.1-3.58s-4.9.8-6.56 2.66c-7.41 8.33-17.59 12.91-28.68 12.91-12.68 0-24.58-6.34-31.83-16.95-1.22-1.79-3.12-3.01-5.26-3.37s-4.33.15-6.08 1.44c-8.81 6.46-20.19 10.03-32.05 10.03-4.55 0-8.8-.45-12.63-1.33-.01 0-.02 0-.02 0-.01 0-.02-.01-.03-.01-14.86-3.31-27.03-12.42-32.56-24.37-1.86-4.01-6.61-5.76-10.62-3.9s-5.76 6.61-3.9 10.62c7.19 15.54 22.15 27.5 40.4 32.47 3.66 5.96 5.58 12.79 5.58 19.93 0 10.59-4.45 20.76-12.2 27.9-3.24 2.99-3.46 8.03-.48 11.29 6.58 7.19 10.2 16.43 10.2 26.02 0 9.02-3.31 17.79-9.2 24.75-6.18-2.42-12.84-3.69-19.58-3.69-4.42 0-8 3.58-8 8s3.58 8 8 8c6.21 0 12.3 1.51 17.63 4.37.02.01.03.01.05.02s.03.02.04.03c12.66 6.58 20.52 19.56 20.52 33.89 0 21.06-17.16 38.19-38.24 38.19-21.15 0-38.36-17.13-38.36-38.19 0-10.81 4.64-21.16 12.72-28.42 1.95-1.75 2.92-4.34 2.6-6.94s-1.89-4.87-4.21-6.09c-12.69-6.69-20.57-19.68-20.57-33.91 0-10.82 4.33-20.77 12.2-28.02 3.24-2.99 3.46-8.03.48-11.29-6.58-7.19-10.2-16.38-10.2-25.9 0-8.14 2.54-15.95 7.35-22.59 1.64-2.27 1.98-5.23.89-7.81-.98-2.31-1.5-4.78-1.5-7.16 0-6.54 3.36-12.39 9-15.63 1.92-1.1 3.29-2.95 3.8-5.1s.1-4.41-1.11-6.26c-4.08-6.17-6.24-13.46-6.24-21.1 0-21.06 17.16-38.19 38.24-38.19 4.02 0 7.9.6 11.58 1.76-7.1 4.16-12.57 10.07-15.63 17.22-1.74 4.06.15 8.76 4.21 10.5 1.03.44 2.09.65 3.14.65 3.11 0 6.06-1.82 7.36-4.86 3.02-7.07 11.07-12.33 21.01-13.76 3.13-.36 5.77-.53 8.3-.53 16.5 0 31.7 6.84 40.65 18.3 2.71 3.47 7.71 4.1 11.19 1.41 6.7-5.17 14.78-7.9 23.38-7.9 15.66 0 29.55 9.31 35.4 23.71 1.13 2.78 3.71 4.69 6.7 4.96 2.97.27 5.87-1.15 7.47-3.68 10.2-16.09 27.66-25.7 46.7-25.7 11.28 0 22.22 3.43 31.65 9.93 2.25 1.55 5.12 1.84 7.64.79 2.51-1.06 4.32-3.32 4.78-6.01 3.07-17.72 18.41-30.58 36.47-30.58 4.23 0 8.38.72 12.32 2.13 2.31.83 4.89.55 6.97-.77 2.08-1.31 3.44-3.51 3.69-5.96 1.99-19.67 18.4-34.5 38.17-34.5 21.09 0 38.24 17.13 38.24 38.19 0 11.46-5.06 22.21-13.89 29.51-1.68 1.39-2.72 3.4-2.88 5.57s.56 4.31 2.01 5.93c9.98 11.16 15.7 27.56 15.7 44.99 0 18.22-6.09 35.06-16.72 46.22-2.89 3.04-2.95 7.79-.13 10.9 9.5 10.46 14.95 25.98 14.95 42.58 0 16.31-5.34 31.68-14.66 42.17-2.71 3.06-2.69 7.67.06 10.69 9.5 10.46 14.95 25.94 14.95 42.46-.01 27.37-15.56 51.19-35.41 54.15zm-186.6-153.72c-4.6 7.34-11.31 13.9-19.44 18.82-10.23 6.18-22.05 9.42-34.05 9.42-3.13 0-6.28-.22-9.41-.67-4.37-.62-7.42-4.67-6.79-9.05.62-4.37 4.68-7.42 9.05-6.79 24.28 3.45 45.71-11.49 50.51-27.61 3.55-11.92-2.43-22.19-16.82-28.92-4-1.87-5.73-6.63-3.86-10.64 1.87-4 6.63-5.73 10.64-3.86 22.66 10.59 28.64 27.93 26.6 42.39 30.2-2.95 75.91.9 112.66 39.68 3.04 3.21 2.9 8.27-.3 11.31-1.55 1.47-3.53 2.19-5.5 2.19-2.12 0-4.23-.84-5.81-2.5-35.61-37.55-81.24-37.74-107.48-33.77z"/><path d="m135.28 328.05c-2.11 22.02 4.37 37.69 19.27 46.57 16.2 9.65 38 8.36 47.72 4.29 1.37-6.42 3.54-12.98 6.61-19.57 11.9-25.96 38.15-42.77 66.86-42.77 24.39 0 46.88 11.98 60.5 31.74 14.48-7.1 32.01-6.75 45.17-4.35-.11-19.97 4.58-41.19 14.81-56.12-9.48-12.95-14.83-30.05-14.83-47.96 0-17.2 4.98-33.78 13.84-46.56-6.31-8.08-12.66-20.64-11.71-37.89-14.71 6.8-29.99 10.46-44.89 10.82.38 1.6.87 3.16 1.46 4.67.28.51.51 1.05.68 1.62 5.56 12.41 17.99 21.08 32.42 21.08h.24c4.42 0 8 3.58 8 8s-3.58 8-8 8h-.24c-19.21 0-35.98-10.58-44.84-26.22-8.23 2.07-14.34 9.5-14.34 18.34 0 4.42-3.58 8-8 8s-8-3.58-8-8c0-15.69 10.41-29 24.69-33.39-.21-1.02-.37-2.05-.52-3.09-1.99-.3-3.98-.63-5.94-1.06-11.72 9.34-30.74 14.52-48.17 12.8-13.15-1.3-24.47-6.44-32.71-14.71-9.58 7.64-21.52 11.9-33.9 11.9-15.37 0-29.91-6.54-40.2-17.81-2.7 1.51-5.52 2.84-8.44 3.98-.6 7.76 1.2 14.26 5.45 19.76 8.35 10.79 24.42 15.47 34.63 16.84 1.35.08 2.66.22 3.92.42 4.23.69 7.17 4.58 6.66 8.84s-4.29 7.36-8.54 7.04c-1.18-.09-2.39-.21-3.64-.37-12.89-.48-31.7 7.93-40.22 21.5-7.36 11.71-6.03 24.9 3.95 39.19 18.28 26.17 45.73 19.81 77.52 12.44 6.85-1.59 13.94-3.23 20.93-4.51 44-7.99 64.63-3.42 91.96 20.38 3.33 2.9 3.68 7.96.78 11.29-1.58 1.82-3.8 2.75-6.04 2.75-1.86 0-3.74-.65-5.25-1.97-22.08-19.23-36.54-24.34-78.59-16.71-6.61 1.2-13.51 2.8-20.18 4.35-10.74 2.49-21.95 5.09-33.03 6.21-5.16 9.68-9.63 27.89-8.25 35.11.83 4.34-2.01 8.53-6.35 9.36-.51.1-1.01.14-1.51.14-3.76 0-7.12-2.67-7.85-6.5-1.83-9.58 1.47-25.49 6.31-37.81-16.24-1.37-31.45-8.02-43.57-25.38-18.37-26.3-10.63-46.92-4.39-56.86 6.12-9.75 15.24-17.14 25.07-22.03-6.5-3.52-12.47-8.12-16.98-13.94-5.67-7.33-8.64-15.83-8.89-25.35-3.65.52-7.37.78-11.12.76 1.87 5.54 2.83 11.4 2.83 17.4 0 12.52-4.39 24.64-12.22 34.21 6.32 9.1 9.74 19.87 9.74 30.99 0 11.83-3.98 23.35-11.13 32.79 12.9 10.14 20.59 25.71 20.59 42.57 0 1.22-.06 2.43-.14 3.63.05.38.05.76.01 1.15zm119.81-92.35c-4.6 7.34-11.31 13.9-19.44 18.82-10.23 6.18-22.05 9.42-34.05 9.42-3.13 0-6.28-.22-9.41-.67-4.38-.62-7.42-4.67-6.79-9.05.62-4.37 4.68-7.42 9.05-6.79 24.28 3.45 45.71-11.49 50.51-27.61 3.55-11.92-2.43-22.19-16.82-28.92-4-1.87-5.73-6.63-3.86-10.64 1.87-4 6.63-5.73 10.64-3.86 22.66 10.59 28.64 27.93 26.6 42.39 30.2-2.95 75.91.9 112.66 39.68 3.04 3.21 2.9 8.27-.3 11.31-1.55 1.47-3.53 2.19-5.5 2.19-2.12 0-4.23-.84-5.81-2.5-35.61-37.55-81.24-37.74-107.48-33.77z" fill="#e94444"/><path d="m463.79 83.69c8.83-7.3 13.89-18.05 13.89-29.51 0-21.06-17.16-38.19-38.24-38.19-19.77 0-36.18 14.83-38.17 34.5-.25 2.45-1.61 4.65-3.69 5.96s-4.66 1.59-6.97.77c-3.94-1.41-8.09-2.13-12.32-2.13-18.06 0-33.4 12.86-36.47 30.58-.47 2.69-2.27 4.95-4.78 6.01-2.52 1.06-5.39.76-7.64-.79-9.43-6.5-20.38-9.93-31.65-9.93-19.04 0-36.5 9.61-46.7 25.7-1.6 2.53-4.5 3.95-7.47 3.68-2.98-.27-5.57-2.18-6.7-4.96-5.85-14.41-19.75-23.71-35.4-23.71-8.6 0-16.68 2.73-23.38 7.9-3.48 2.69-8.48 2.06-11.19-1.41-8.95-11.46-24.15-18.3-40.65-18.3-2.53 0-5.17.17-8.3.53-9.94 1.43-17.98 6.69-21.01 13.76-1.3 3.04-4.25 4.86-7.36 4.86-1.05 0-2.12-.21-3.14-.65-4.06-1.74-5.95-6.44-4.21-10.5 3.05-7.14 8.53-13.06 15.63-17.22-3.69-1.16-7.57-1.76-11.58-1.76-21.09 0-38.24 17.13-38.24 38.19 0 7.64 2.16 14.93 6.24 21.1 1.22 1.84 1.62 4.11 1.11 6.26s-1.88 3.99-3.8 5.1c-5.63 3.24-9 9.08-9 15.63 0 2.37.52 4.85 1.5 7.16 1.09 2.58.76 5.54-.89 7.81-4.81 6.64-7.35 14.46-7.35 22.59 0 9.52 3.62 18.72 10.2 25.9 2.98 3.25 2.76 8.3-.48 11.29-7.87 7.25-12.2 17.2-12.2 28.02 0 14.23 7.88 27.22 20.57 33.91 2.32 1.22 3.89 3.5 4.21 6.09.32 2.6-.65 5.19-2.6 6.94-8.08 7.26-12.72 17.61-12.72 28.42 0 21.06 17.21 38.19 38.36 38.19 21.09 0 38.24-17.13 38.24-38.19 0-14.33-7.86-27.31-20.52-33.89-.02-.01-.03-.02-.04-.03-.02-.01-.03-.01-.05-.02-5.33-2.86-11.42-4.37-17.63-4.37-4.42 0-8-3.58-8-8s3.58-8 8-8c6.74 0 13.41 1.27 19.58 3.69 5.89-6.96 9.2-15.73 9.2-24.75 0-9.59-3.62-18.83-10.2-26.02-2.98-3.25-2.76-8.3.48-11.29 7.76-7.14 12.2-17.31 12.2-27.9 0-7.14-1.92-13.97-5.58-19.93-18.24-4.97-33.2-16.92-40.4-32.47-1.86-4.01-.11-8.76 3.9-10.62 4.01-1.85 8.76-.11 10.62 3.9 5.53 11.95 17.7 21.06 32.56 24.37.01 0 .02.01.03.01h.02c3.83.88 8.08 1.33 12.63 1.33 11.86 0 23.24-3.56 32.05-10.03 1.75-1.28 3.94-1.8 6.08-1.44s4.04 1.58 5.26 3.37c7.25 10.61 19.16 16.95 31.83 16.95 11.08 0 21.27-4.58 28.68-12.91 1.65-1.86 4.08-2.84 6.56-2.66s4.74 1.51 6.1 3.58c7.11 10.81 18.52 14.06 26.85 14.88 16.35 1.62 32.14-4.6 38.71-11.26 2.02-2.05 5-2.86 7.77-2.11 23.13 6.22 49.72 1.17 73.68-13.86.18-.13.37-.25.57-.36 1.25-.79 2.49-1.61 3.73-2.46 21.8-14.97 37.11-36.37 39.02-54.51.46-4.4 4.41-7.59 8.79-7.12 4.39.46 7.58 4.4 7.12 8.79-2.41 22.95-19.98 48.25-45.87 66.03-.64.44-1.28.87-1.93 1.3-5.39 20.79 2.36 34.16 10.02 41.81 2.97 2.97 3.14 7.73.39 10.9-9.05 10.44-14.25 25.62-14.25 41.65 0 16.52 5.45 32 14.95 42.46 2.74 3.02 2.77 7.62.07 10.67-11.91 13.48-16.5 38.44-14.65 59.46.17.7.24 1.43.21 2.17.89 8.03 2.73 15.39 5.49 21.18 1.9 3.99.21 8.76-3.78 10.66s-8.76.21-10.66-3.78c-2.99-6.27-5.13-13.86-6.37-22.13-11.94-2.88-31.68-4.46-44.25 5.09-1.87 1.42-4.26 1.95-6.56 1.44-2.29-.5-4.25-1.99-5.35-4.06-10.01-18.8-29.46-30.49-50.77-30.49-22.47 0-43.01 13.14-52.34 33.49-13.18 28.24-5.6 55.85 7.01 69.57 4.2 4.55 8.57 8.45 12.8 12.21 12.26 10.91 23.83 21.21 26.05 42.7.57 5.53 1.38 5.51 3.56 5.46 2.75-.04 3.05-5.05 3.07-5.51l.02-2.7c.21-29.37.35-47.98-12.18-61.32-1.17-1.02-2.29-2.08-3.35-3.19 0 0-.01 0-.01-.01-.51-.43-.95-.92-1.33-1.44-7.58-8.57-11.93-19.54-12.48-32.18-.19-4.41 3.23-8.15 7.65-8.34 4.4-.19 8.15 3.23 8.34 7.65.46 10.54 4.4 17.98 9.44 23.22.81.73 1.58 1.46 2.33 2.2 5.02 4.34 10.7 6.83 15.03 8.23 18.58 6 38.46 1.39 44.68-6.49 1.52-1.92 3.83-3.05 6.28-3.05h.02c2.46.01 4.77 1.14 6.29 3.07 11.79 15.08 33.96 23.06 52.73 18.96 17.88-3.9 30.57-17.98 35.73-39.63.76-3.18 3.37-5.58 6.6-6.06 19.85-2.96 35.4-26.78 35.4-54.22 0-16.52-5.45-32-14.95-42.46-2.75-3.02-2.77-7.63-.06-10.69 9.32-10.49 14.66-25.87 14.66-42.17 0-16.6-5.45-32.12-14.95-42.58-2.82-3.1-2.76-7.86.13-10.9 10.62-11.16 16.72-28 16.72-46.22 0-17.43-5.72-33.83-15.7-44.99-1.45-1.62-2.18-3.76-2.01-5.93.17-2.1 1.21-4.11 2.88-5.5z" fill="#f47c7c"/></g></svg>