<svg id="Flat" height="512" viewBox="0 0 512 512" width="512" xmlns="http://www.w3.org/2000/svg"><path d="m376 128c-14.79 0-28.24 6.55-38.26 17.26-24.56-8.39-56.48-17.26-81.74-17.26s-57.18 8.87-81.74 17.26c-10.02-10.71-23.47-17.26-38.26-17.26-30.93 0-56 28.65-56 64s25.07 64 56 64c26.78 0 49.18-21.49 54.69-50.2 5.62 15.94 9.31 37.38 9.31 66.2 0 40 32 64 32 64v32h48v-32s32-24 32-64c0-28.82 3.69-50.26 9.31-66.2 5.51 28.71 27.91 50.2 54.69 50.2 30.93 0 56-28.65 56-64s-25.07-64-56-64zm-240 96c-13.25 0-24-14.33-24-32s10.75-32 24-32 24 14.33 24 32-10.75 32-24 32zm240 0c-13.25 0-24-14.33-24-32s10.75-32 24-32 24 14.33 24 32-10.75 32-24 32z" fill="#ed6f6d"/><path d="m376 128c-14.79 0-28.24 6.55-38.26 17.26-24.56-8.39-56.48-17.26-81.74-17.26s-57.18 8.87-81.74 17.26c-10.02-10.71-23.47-17.26-38.26-17.26-30.93 0-56 28.65-56 64s25.07 64 56 64c26.78 0 49.18-21.49 54.69-50.2 5.62 15.94 9.31 37.38 9.31 66.2a74.468 74.468 0 0 0 3.31 21.95 70.985 70.985 0 0 0 21.051-8.281 31.752 31.752 0 0 0 15.186-29.21c-4.878-80.459-47.547-80.459-47.547-80.459 32-16 64-16 64-16s32 0 64 16c0 0-42.669 0-47.547 80.459a31.752 31.752 0 0 0 15.186 29.21 70.985 70.985 0 0 0 21.051 8.281 74.468 74.468 0 0 0 3.31-21.95c0-28.82 3.69-50.26 9.31-66.2 5.51 28.71 27.91 50.2 54.69 50.2 30.93 0 56-28.65 56-64s-25.07-64-56-64zm-240 96c-13.25 0-24-14.33-24-32s10.75-32 24-32 24 14.33 24 32-10.75 32-24 32zm240 0c-13.25 0-24-14.33-24-32s10.75-32 24-32 24 14.33 24 32-10.75 32-24 32z" fill="#ff9494"/><ellipse cx="112" cy="232" fill="#f7cca9" rx="24" ry="32" transform="matrix(.707 -.707 .707 .707 -131.245 147.147)"/><ellipse cx="400" cy="232" fill="#f7cca9" rx="32" ry="24" transform="matrix(.707 -.707 .707 .707 -46.891 350.794)"/><path d="m240 432c0 16-16 16-16 16s-16 0-16-16 16-32 16-32 16 16 16 32z" fill="#ff9494"/><path d="m304 472c0 16-16 16-16 16s-16 0-16-16 16-32 16-32 16 16 16 32z" fill="#ff9494"/><path d="m496 256a240 240 0 0 0 -409.7-169.706 240.114 240.114 0 0 0 -38.4 289.331 241.523 241.523 0 0 0 83.963 85.813 8 8 0 0 0 8.288-13.687 223.873 223.873 0 0 1 -108.151-191.751 224 224 0 0 1 382.392-158.392 223.971 223.971 0 0 1 3.938 312.722l-18.33-18.33-8 56 56-8-18.355-18.355a239.8 239.8 0 0 0 66.355-165.645z" fill="#f7cca9"/></svg>