<?xml version="1.0" encoding="UTF-8"?>
<svg xmlns="http://www.w3.org/2000/svg" id="Filled" viewBox="0 0 512 512" width="512" height="512"><path d="M376,128c-14.79,0-28.24,6.55-38.26,17.26C313.18,136.87,281.26,128,256,128s-57.18,8.87-81.74,17.26C164.24,134.55,150.79,128,136,128c-30.93,0-56,28.65-56,64s25.07,64,56,64c26.78,0,49.18-21.49,54.69-50.2,5.62,15.94,9.31,37.38,9.31,66.2,0,40,32,64,32,64v32h48V336s32-24,32-64c0-28.82,3.69-50.26,9.31-66.2C326.82,234.51,349.22,256,376,256c30.93,0,56-28.65,56-64S406.93,128,376,128ZM136,224c-13.25,0-24-14.33-24-32s10.75-32,24-32,24,14.33,24,32S149.25,224,136,224Zm240,0c-13.25,0-24-14.33-24-32s10.75-32,24-32,24,14.33,24,32S389.25,224,376,224Z" style="fill:#ed6f6d"/><path d="M376,128c-14.79,0-28.24,6.55-38.26,17.26C313.18,136.87,281.26,128,256,128s-57.18,8.87-81.74,17.26C164.24,134.55,150.79,128,136,128c-30.93,0-56,28.65-56,64s25.07,64,56,64c26.78,0,49.18-21.49,54.69-50.2,5.62,15.94,9.31,37.38,9.31,66.2a74.468,74.468,0,0,0,3.31,21.95,70.985,70.985,0,0,0,21.051-8.281,31.752,31.752,0,0,0,15.186-29.21C234.669,176,192,176,192,176c32-16,64-16,64-16s32,0,64,16c0,0-42.669,0-47.547,80.459a31.752,31.752,0,0,0,15.186,29.21,70.985,70.985,0,0,0,21.051,8.281A74.468,74.468,0,0,0,312,272c0-28.82,3.69-50.26,9.31-66.2C326.82,234.51,349.22,256,376,256c30.93,0,56-28.65,56-64S406.93,128,376,128ZM136,224c-13.25,0-24-14.33-24-32s10.75-32,24-32,24,14.33,24,32S149.25,224,136,224Zm240,0c-13.25,0-24-14.33-24-32s10.75-32,24-32,24,14.33,24,32S389.25,224,376,224Z" style="fill:#ff9494"/><ellipse cx="112" cy="232" rx="24" ry="32" transform="translate(-131.245 147.147) rotate(-45)" style="fill:#f7cca9"/><ellipse cx="400" cy="232" rx="32" ry="24" transform="translate(-46.891 350.794) rotate(-45)" style="fill:#f7cca9"/><path d="M240,432c0,16-16,16-16,16s-16,0-16-16,16-32,16-32S240,416,240,432Z" style="fill:#ff9494"/><path d="M304,472c0,16-16,16-16,16s-16,0-16-16,16-32,16-32S304,456,304,472Z" style="fill:#ff9494"/><polygon points="448 440 400 392 392 448 448 440" style="fill:#a3d4f7"/><path d="M224,392a8,8,0,0,0-5.657,2.343,80.271,80.271,0,0,0-9,11.22c-6.2,9.3-9.344,18.194-9.344,26.437,0,17.608,14.353,24,24,24s24-6.392,24-24c0-18.772-16.466-35.779-18.343-37.657A8,8,0,0,0,224,392Zm4.72,46.688a9.164,9.164,0,0,1-9.44,0C217.658,437.8,216,436.3,216,432c0-6.636,4.079-14.05,8-19.514,3.922,5.466,8,12.879,8,19.514C232,436.3,230.342,437.8,228.72,438.688Z"/><path d="M282.343,434.343a80.3,80.3,0,0,0-9,11.219c-6.2,9.3-9.344,18.195-9.344,26.438,0,17.608,14.353,24,24,24s24-6.392,24-24c0-18.772-16.466-35.779-18.343-37.657a8,8,0,0,0-11.314,0ZM296,472c0,4.3-1.658,5.8-3.28,6.688a9.164,9.164,0,0,1-9.44,0C281.658,477.8,280,476.3,280,472c0-6.636,4.079-14.05,8-19.514C291.922,457.952,296,465.365,296,472Z"/><path d="M131.856,461.438a8,8,0,0,0,8.288-13.687A223.873,223.873,0,0,1,32,256,224,224,0,0,1,414.392,97.608a223.978,223.978,0,0,1,9.354,306.824l-18.089-18.089a8,8,0,0,0-13.577,4.526l-8,56A8,8,0,0,0,392,456a7.856,7.856,0,0,0,1.132-.081l56-8a8,8,0,0,0,4.525-13.576l-18.578-18.578A239.994,239.994,0,0,0,86.3,86.294a240.114,240.114,0,0,0-38.4,289.331A241.523,241.523,0,0,0,131.856,461.438Zm269.572-22.866,4.229-29.6,25.372,25.372Z"/><path d="M440,192c0-39.7-28.71-72-64-72a59.518,59.518,0,0,0-40.376,16.107C303.368,125.416,276.6,120,256,120s-47.368,5.416-79.624,16.107A59.518,59.518,0,0,0,136,120c-35.29,0-64,32.3-64,72a79.734,79.734,0,0,0,4.331,26.074c-2.185,11.815,2.368,25.88,13.042,36.553,13.8,13.8,33.269,17.368,46.214,9.361.138,0,.276.012.413.012,21.649,0,41.4-12.469,53.059-31.795A245.5,245.5,0,0,1,192,272c0,36.119,23.278,60.051,32,67.75V368a8,8,0,0,0,8,8h48a8,8,0,0,0,8-8V339.75c8.722-7.7,32-31.631,32-67.75a245.5,245.5,0,0,1,2.941-39.795C334.6,251.531,354.351,264,376,264c.137,0,.275-.011.413-.012,12.945,8.007,32.413,4.441,46.214-9.361,10.674-10.673,15.227-24.738,13.042-36.553A79.734,79.734,0,0,0,440,192ZM128.971,248.971c-6.133,6.132-19.086,3.542-28.285-5.657S88.9,221.162,95.029,215.029s19.086-3.542,28.285,5.657S135.1,242.838,128.971,248.971ZM120,192c0-13.009,7.327-24,16-24s16,10.991,16,24c0,11.1-5.34,20.733-12.3,23.315a49.757,49.757,0,0,0-5.075-5.942,48.259,48.259,0,0,0-13.751-9.673A33.7,33.7,0,0,1,120,192ZM275.2,329.6A8,8,0,0,0,272,336v24H240V336a8,8,0,0,0-3.2-6.4,84.547,84.547,0,0,1-22.938-30.33,76.836,76.836,0,0,0,14.608-6.737,39.569,39.569,0,0,0,19.062-36.559c-2.966-48.917-19.514-70.639-33.793-80.281A150.827,150.827,0,0,1,256,168a150.827,150.827,0,0,1,42.261,7.693c-14.279,9.642-30.827,31.364-33.793,80.281a39.569,39.569,0,0,0,19.062,36.559,76.836,76.836,0,0,0,14.608,6.737A84.547,84.547,0,0,1,275.2,329.6Zm53.967-125.308a8,8,0,0,0-15.4-1.153C307.286,221.516,304,244.684,304,272a65.423,65.423,0,0,1-1.119,11.989,60.7,60.7,0,0,1-11.133-5.185,23.625,23.625,0,0,1-11.31-21.861C284.691,186.8,317.846,184.1,320.052,184a7.862,7.862,0,0,0,7.828-6.042,8.075,8.075,0,0,0-4.3-9.114C290.271,152.191,257.384,152,256,152s-34.271.191-67.578,16.845a8.075,8.075,0,0,0-4.3,9.114A7.862,7.862,0,0,0,191.948,184c2.206.1,35.361,2.8,39.614,72.942a23.625,23.625,0,0,1-11.31,21.861,60.7,60.7,0,0,1-11.133,5.185A65.423,65.423,0,0,1,208,272c0-27.316-3.286-50.484-9.766-68.861a8,8,0,0,0-15.4,1.153c-3.994,20.811-18.009,36.923-35.238,42.01a35.9,35.9,0,0,0-.861-16.624C159.114,224.15,168,209.351,168,192c0-22.056-14.355-40-32-40s-32,17.944-32,40c0,1.278.053,2.545.146,3.8a29.536,29.536,0,0,0-15.661,4.165A65.717,65.717,0,0,1,88,192c0-30.878,21.532-56,48-56,12.021,0,23.534,5.229,32.418,14.725a8,8,0,0,0,8.428,2.105C209.079,141.82,236.45,136,256,136s46.921,5.82,79.154,16.83a8,8,0,0,0,8.428-2.105C352.466,141.229,363.979,136,376,136c26.468,0,48,25.122,48,56a65.717,65.717,0,0,1-.485,7.966,29.536,29.536,0,0,0-15.661-4.165c.093-1.256.146-2.523.146-3.8,0-22.056-14.355-40-32-40s-32,17.944-32,40c0,17.351,8.886,32.15,21.266,37.678a35.9,35.9,0,0,0-.861,16.624C347.176,241.215,333.161,225.1,329.167,204.292Zm48.206,5.081a49.757,49.757,0,0,0-5.075,5.942C365.34,212.733,360,203.105,360,192c0-13.009,7.327-24,16-24s16,10.991,16,24a33.7,33.7,0,0,1-.876,7.7A48.259,48.259,0,0,0,377.373,209.373Zm33.941,33.941c-9.2,9.2-22.152,11.789-28.285,5.657s-3.542-19.086,5.657-28.285,22.152-11.789,28.285-5.657S420.513,234.115,411.314,243.314Z"/></svg>
