<svg id="Layer_1" viewBox="0 0 512 512" xmlns="http://www.w3.org/2000/svg" data-name="Layer 1"><circle cx="260.379" cy="77.084" fill="#685e68" r="60.089" transform="matrix(.924 -.383 .383 .924 -9.678 105.51)"/><g fill-rule="evenodd"><path d="m251.879 136.571c-29.16-4.129-51.589-29.187-51.589-59.488s22.429-55.358 51.589-59.488c29.16 4.129 51.589 29.187 51.589 59.488s-22.429 55.358-51.589 59.488z" fill="#837683"/><path d="m73.251 254.625 35.364 49.388c1.054 1.472 3.073 1.86 4.598.884l57.371-36.743c44.546 92.68 33.378 120.858 1.35 226.854h218.076c-19.777-109.868-1.684-146.616 4.906-224.42 2.493-29.443-2.838-46.983 17.049-71.769l27.639-34.447c.622-.775.861-1.678.706-2.659s-.663-1.766-1.493-2.311l-56.48-37.056c-1.297-.851-2.943-.736-4.108.288-13.55 11.898-27.1 23.797-40.648 35.696-3.411 2.995-7.919 3.758-12.125 2.049-7.963-3.234-15.927-6.468-23.891-9.702-22.055 1.35-44.11 2.7-66.166 4.051-6.816 4.908-13.633 9.816-20.45 14.724-9.202 6.626-18.249 10.665-29.326 13.093-7.303 1.6-14.606 3.201-21.909 4.802-7.838 1.718-14.221 4.683-20.589 9.565l-69.178 53.037c-1.455 1.115-1.764 3.187-.696 4.677z" fill="#4eb1fc"/><path d="m73.251 254.625 31.144 43.495 57.51-36.832c1.104-.707 2.33-.886 3.59-.523s2.203 1.166 2.763 2.351c.747 1.585 1.454 3.111 2.327 5.038 44.546 92.68 33.378 120.858 1.35 226.854h206.993c-19.777-109.868-.184-152.903 6.406-230.707 2.493-29.443-2.838-46.983 17.049-71.769l27.639-34.448c.622-.775.861-1.678.706-2.659s-.663-1.766-1.493-2.311l-46.923-30.786c-1.293-.832-2.924-.712-4.082.305-13.55 11.898-27.1 23.797-40.648 35.696-3.411 2.995-7.919 3.758-12.125 2.049-7.963-3.234-15.927-6.468-23.891-9.702-22.055 1.35-44.11 2.7-66.166 4.051-6.816 4.908-13.633 9.816-20.45 14.724-9.202 6.626-18.249 10.665-29.326 13.093-7.303 1.6-14.606 3.201-21.909 4.802-7.838 1.718-14.221 4.683-20.589 9.565l-69.178 53.037c-1.455 1.115-1.764 3.187-.696 4.677z" fill="#85caff"/><path d="m436.67 157.992 58.916-73.432c6.421-8.003 7.208-18.587 2.04-27.451-5.167-8.864-14.765-13.395-24.892-11.751l-161.731 26.252c-10.12 1.642-17.017 11.694-15.615 21.851 1.348 9.766 10.309 17.666 20.304 16.875l95.923-7.595-26.909 21.159 51.964 34.093z" fill="#e6d6d1"/><path d="m464.239 46.738-153.236 24.873c-10.12 1.642-17.017 11.694-15.615 21.851 1.348 9.766 10.309 17.666 20.304 16.875l95.923-7.595-26.909 21.159 41.619 27.306 52.399-65.309c6.421-8.003 7.208-18.587 2.04-27.451-3.708-6.361-9.697-10.49-16.526-11.707z" fill="#f0e3df"/><path d="m105.649 299.871-21.486 15.544 130.361 72.285c25.522 14.152 6.889 45.983-16.536 34.934l-173.432-81.802c-7.277-3.432-12.172-9.515-13.299-17.482-1.127-7.966 1.732-15.352 7.928-20.484l55.622-46.068z" fill="#e6d6d1"/><path d="m194.452 420.966-169.896-80.134c-7.277-3.432-12.172-9.515-13.299-17.482-1.127-7.966 1.732-15.352 7.928-20.484l55.622-46.068 25.336 35.384-20.781 15.034c-.97.702-1.473 1.763-1.401 2.958s.698 2.189 1.745 2.769l125.684 69.692c22.612 12.538 8.796 39.93-10.939 38.33z" fill="#f0e3df"/></g><circle cx="193.902" cy="180.303" fill="#f23353" r="34.883"/><path d="m190.901 215.055c-17.86-1.522-31.882-16.498-31.882-34.752s14.022-33.231 31.882-34.752c17.86 1.522 31.882 16.498 31.882 34.752s-14.022 33.231-31.882 34.752z" fill="#ff5471" fill-rule="evenodd"/><circle cx="272.908" cy="433.027" fill="#f23353" r="34.883"/><path d="m269.907 467.779c-17.86-1.522-31.882-16.498-31.882-34.753s14.022-33.231 31.882-34.752c17.86 1.522 31.882 16.498 31.882 34.752s-14.022 33.231-31.882 34.753z" fill="#ff5471" fill-rule="evenodd"/><path d="m314.65 413.394c-.915-3.755 1.35-7.544 5.11-8.464l17.111-4.179-5.591-10.16c-1.06-1.904-1.157-4.189-.241-6.184.868-1.99 2.603-3.461 4.724-3.981l24.341-5.953c3.76-.921 7.519 1.383 8.435 5.138.964 3.755-1.35 7.544-5.109 8.459l-15.472 3.789 5.543 10.16c1.06 1.904 1.157 4.194.289 6.184-.868 1.991-2.651 3.466-4.724 3.982l-25.98 6.348c-.53.135-1.109.198-1.639.198-3.181 0-6.025-2.14-6.796-5.336zm58.13 63.403c-2.506 2.94-6.941 3.287-9.881.781l-12.098-10.353-5.013 10.459c-.916 1.967-2.699 3.384-4.82 3.837-.482.101-1.012.154-1.446.154-1.687 0-3.278-.588-4.579-1.677l-20.292-17.347c-2.94-2.511-3.277-6.926-.771-9.867 2.506-2.94 6.941-3.287 9.833-.781l13.4 11.424 4.965-10.459c.964-1.967 2.748-3.384 4.868-3.837 2.121-.453 4.338.111 6.025 1.528l19.039 16.272c2.94 2.511 3.278 6.926.771 9.867zm-85.797-43.771c0 7.751-6.314 14.075-14.075 14.075s-14.074-6.324-14.074-14.075 6.314-14.075 14.074-14.075 14.075 6.324 14.075 14.075zm-14.075 27.884c15.376 0 27.86-12.508 27.86-27.884s-12.484-27.879-27.86-27.879-27.908 12.508-27.908 27.879 12.532 27.884 27.908 27.884zm15.087-66.941 19.569-9.659c3.47-1.716 4.917-5.909 3.181-9.375-1.687-3.47-5.929-4.893-9.399-3.181l-19.521 9.659-17.738-5.061c-3.711-1.065-7.567 1.089-8.628 4.805-1.06 3.721 1.06 7.592 4.772 8.657l6.362 1.807c-20.1 3.056-35.572 20.457-35.572 41.404 0 23.093 18.798 41.881 41.886 41.881s41.886-18.789 41.886-41.881c0-17.776-11.134-32.988-26.799-39.057zm-108.162-213.667c0-7.751 6.314-14.075 14.074-14.075s14.075 6.324 14.075 14.075-6.314 14.075-14.075 14.075-14.074-6.324-14.074-14.075zm-105.752-28.896c1.928-3.35 6.218-4.497 9.592-2.565l13.785 7.968 2.988-11.192c.578-2.102 2.073-3.822 4.097-4.656 2.024-.829 4.29-.684 6.17.405l23.136 13.356c3.326 1.933 4.483 6.213 2.555 9.563-1.928 3.345-6.218 4.492-9.544 2.56l-15.231-8.792-2.989 11.192c-.578 2.101-2.073 3.822-4.097 4.656-.868.357-1.784.53-2.699.53-1.205 0-2.41-.313-3.47-.935l-21.739-12.527c-3.326-1.933-4.483-6.213-2.555-9.563zm50.611-67.673c-1.012-3.736 1.205-7.572 4.916-8.575 3.76-.998 7.567 1.215 8.58 4.95l4.145 15.39 10.026-5.794c1.88-1.089 4.145-1.234 6.17-.405 2.024.834 3.519 2.555 4.097 4.656l6.893 25.792c1.012 3.736-1.205 7.577-4.916 8.575-.627.164-1.253.241-1.832.241-3.085 0-5.929-2.063-6.748-5.191l-4.579-16.981-10.026 5.794c-1.88 1.089-4.145 1.239-6.17.405-2.024-.834-3.519-2.555-4.097-4.656zm168.653 155.21c1.735 3.466.289 7.664-3.181 9.375l-18.702 9.225c-.964.482-2.024.723-3.085.723-.627 0-1.301-.087-1.928-.27l-22.269-6.353c-3.711-1.065-5.832-4.936-4.772-8.657 1.06-3.716 4.917-5.866 8.628-4.806l19.666 5.615 16.244-8.03c3.47-1.716 7.664-.294 9.399 3.176zm-57.118-66.676c1.06-3.721 4.916-5.871 8.628-4.81l19.666 5.615 16.292-8.03c3.422-1.711 7.664-.289 9.351 3.176 1.735 3.466.289 7.664-3.181 9.38l-18.702 9.225c-.964.477-2.025.723-3.085.723-.627 0-1.301-.091-1.928-.27l-22.268-6.358c-3.711-1.06-5.832-4.936-4.772-8.652zm58.178 90.251c-1.735-3.47-5.929-4.893-9.399-3.181l-16.244 8.035-19.666-5.615c-3.712-1.065-7.568 1.089-8.628 4.805-1.06 3.721 1.061 7.592 4.772 8.652l22.269 6.358c.626.183 1.301.27 1.928.27 1.06 0 2.121-.241 3.085-.723l18.702-9.226c3.47-1.711 4.916-5.909 3.181-9.375zm-3.181-70.725c-1.735-3.465-5.929-4.887-9.351-3.176l-16.292 8.03-19.666-5.61c-3.711-1.065-7.567 1.089-8.628 4.805-1.06 3.716 1.06 7.592 4.772 8.652l22.269 6.358c.627.178 1.301.27 1.928.27 1.06 0 2.121-.246 3.085-.723l18.702-9.23c3.47-1.711 4.916-5.909 3.181-9.375zm1.06 23.575c-1.687-3.466-5.929-4.892-9.399-3.176l-16.244 8.03-19.666-5.615c-3.711-1.06-7.568 1.089-8.628 4.806-1.06 3.721 1.06 7.592 4.772 8.657l22.268 6.353c.627.183 1.301.27 1.928.27 1.06 0 2.121-.241 3.085-.723l18.702-9.226c3.47-1.711 4.916-5.909 3.181-9.375zm3.181 70.72c1.735 3.466.289 7.664-3.181 9.38l-18.702 9.226c-.964.477-2.024.723-3.085.723-.626 0-1.301-.087-1.928-.27l-22.269-6.358c-3.711-1.06-5.832-4.936-4.772-8.652s4.916-5.871 8.628-4.81l19.666 5.615 16.243-8.03c3.47-1.711 7.664-.289 9.399 3.176zm8.339 68.18c1.687 3.466.289 7.664-3.181 9.375l-18.702 9.23c-.964.477-2.024.723-3.085.723-.675 0-1.301-.092-1.928-.27l-22.269-6.358c-3.711-1.06-5.88-4.936-4.772-8.652 1.06-3.721 4.916-5.871 8.628-4.81l19.666 5.615 16.243-8.03c3.47-1.711 7.664-.289 9.399 3.176zm-5.736-45.366c-1.735-3.466-5.928-4.887-9.399-3.176l-16.244 8.03-19.666-5.61c-3.712-1.065-7.568 1.089-8.628 4.806-1.06 3.716 1.06 7.591 4.772 8.652l22.269 6.358c.627.178 1.253.27 1.928.27 1.06 0 2.121-.246 3.085-.723l18.702-9.23c3.47-1.711 4.868-5.905 3.181-9.375zm3.519 22.37c-1.735-3.466-5.929-4.888-9.399-3.176l-16.292 8.03-19.617-5.615c-3.712-1.06-7.616 1.089-8.676 4.806-1.06 3.721 1.109 7.592 4.82 8.657l22.269 6.358c.627.178 1.253.265 1.928.265 1.06 0 2.121-.241 3.085-.723l18.702-9.226c3.47-1.711 4.868-5.909 3.181-9.375zm188.512-251.09-54.9 68.469-38.512-25.262 19.232-15.144c2.458-1.909 3.326-5.177 2.217-8.049-1.109-2.873-4.001-4.676-7.085-4.435l-95.919 7.601c-6.073.477-11.954-4.492-12.821-10.855-.916-6.574 3.567-12.975 9.785-13.983l161.76-26.255c7.23-1.176 14.026 2.034 17.738 8.368 3.663 6.334 3.133 13.824-1.494 19.545zm-83.579 114.259 25.161-31.359-50.9-33.379-38.56 33.885c-5.446 4.772-12.725 6.001-19.425 3.278l-22.413-9.105-62.564 3.832-4.868 3.543c1.832 4.704 2.844 9.818 2.844 15.169 0 23.093-18.798 41.881-41.886 41.881-17.015 0-31.667-10.204-38.223-24.809-2.844 1.34-5.591 3.008-8.29 5.09l-66.42 50.919 31.33 43.776 54.515-34.902c1.687-1.08 3.76-1.383 5.687-.838 1.928.549 3.519 1.894 4.386 3.702 22.751 47.299 31.137 77.839 30.125 110.408l10.893 6.049c16.87 9.341 18.557 25.233 13.014 36.039-4.097 8.016-12.869 14.287-23.377 14.287-3.037 0-6.218-.52-9.447-1.658-4.145 16.243-9.592 34.155-16.195 55.99l-.53 1.774h200.321c-12.917-76.509-7.134-116.785-.434-163.168 2.41-16.943 4.965-34.463 6.7-54.842.53-6.599.675-12.561.819-18.326.53-19.497.964-36.333 17.738-57.233zm-309.35 120.192 6.892-4.965.723 1.046c2.169 3.027 6.362 3.827 9.496 1.822l53.358-34.198c17.497 37.49 24.968 63.494 25.402 89.46zm-79.001 7.736c-.771-5.534 1.157-10.546 5.495-14.113l49.839-41.274 22.413 31.301-15.858 11.462c-1.928 1.403-3.036 3.702-2.892 6.088.145 2.391 1.494 4.541 3.615 5.707l130.334 72.281c9.351 5.182 9.929 12.392 7.375 17.41-2.651 5.172-9.255 8.965-17.497 5.071l-173.473-81.803c-3.711-1.76-8.387-5.293-9.351-12.132zm175.739-169.95c-15.376 0-27.908 12.508-27.908 27.884s12.532 27.884 27.908 27.884 27.86-12.508 27.86-27.884-12.484-27.884-27.86-27.884zm66.468-22.244c15.183 0 29.354-6.425 39.332-17.482-5.881-4.136-10.219-10.676-11.279-18.273-1.928-14.152 7.664-27.484 21.449-29.72l2.073-.328c-5.736-23.43-26.847-40.378-51.574-40.378-29.257 0-53.068 23.816-53.068 53.088s23.811 53.093 53.068 53.093zm243.316-76.59c-6.603-11.289-19.184-17.227-32.101-15.135l-145.806 23.671c-6.844-30.173-33.789-52.124-65.408-52.124-37.018 0-67.095 30.092-67.095 67.086s30.077 67.09 67.095 67.09c21.256 0 40.97-9.939 53.647-26.79.723.01 1.494-.01 2.217-.067l72.831-5.77-4.724 3.74-.338-.212c-2.651-1.725-6.073-1.485-8.483.593l-42.561 37.403c-1.446 1.253-3.133 1.538-4.868.824l-23.907-9.703c-.964-.391-2.025-.564-3.085-.502l-66.131 4.049c-1.301.082-2.603.535-3.663 1.311l-5.639 4.039c-7.664-8.97-19.087-14.667-31.764-14.667-23.088 0-41.886 18.788-41.886 41.881 0 1.118.048 2.227.145 3.321-4.675 1.913-9.013 4.429-13.303 7.731l-71.819 55.04c-2.796 2.183-3.519 6.136-1.687 9.158l-50.658 41.92c-8.05 6.69-11.857 16.48-10.363 26.857 1.446 10.156 7.519 18.268 17.256 22.832l163.592 77.169c-4.193 16.586-9.785 35.061-16.677 57.84l-3.278 10.811c-.627 2.121-.241 4.42 1.06 6.198 1.35 1.774 3.422 2.825 5.64 2.825h218.059c2.073 0 4.049-.921 5.399-2.511 1.301-1.591 1.88-3.687 1.494-5.726-14.316-79.685-8.531-120.116-1.783-166.933 2.506-17.145 5.013-34.868 6.796-55.657.579-7.008.771-13.458.916-19.145.482-19.039.82-31.615 14.605-48.837l29.981-37.365c1.253-1.538 1.783-3.528 1.446-5.476-.241-1.485-.916-2.839-1.976-3.88l54.177-67.534c8.194-10.189 9.206-24.071 2.651-35.36z" fill-rule="evenodd"/></svg>