<svg height="512" viewBox="0 0 512 512" width="512" xmlns="http://www.w3.org/2000/svg"><g id="_06_Sick"><path d="m485.51 183.11v-157.22a17.89 17.89 0 1 0 -35.78 0v157.22a36.54 36.54 0 1 0 35.78 0z" fill="#e4e4e4"/><path d="m112.37 205.59c-62.37-114.44 5.24-197.59 5.24-197.59s11.88 23.76 35.18 27c33.86 4.64 71-24.9 120-19s64.71 30 69.29 45.72c0 0 44.46-7.85 57.54 37.92s-25.49 112.83-25.49 112.83z" fill="#827981"/><path d="m33.14 452.66c-25.3 30.17-25.3 51.34-25.3 51.34h466.37s0-21.17-25.3-51.34-149.76-68.37-149.76-68.37-11.79 30.78-58.15 30.78-58.12-30.78-58.12-30.78-124.43 38.2-149.74 68.37z" fill="#ff748f"/><path d="m12.37 486c-4.53 11.27-4.53 18-4.53 18h466.37s0-6.73-4.53-18z" fill="#fd5f7e"/><path d="m241 364c-19.78 0-40.93-11.17-58.12-26v46.35s11.79 30.78 58.12 30.78 58.13-30.78 58.13-30.78l-.05-46.35c-17.19 14.82-38.3 26-58.08 26z" fill="#f4b184"/><path d="m299.08 356v-18c-17.19 14.82-38.3 26-58.06 26s-40.93-11.17-58.12-26v18c17.19 14.85 38.34 26 58.12 26s40.87-11.18 58.06-26z" fill="#eaa678"/><path d="m449.73 69v114.11a36.54 36.54 0 1 0 35.78 0v-114.11z" fill="#ff748f"/><path d="m467.62 233.51a36.55 36.55 0 0 1 -35.41-27.51 36.54 36.54 0 1 0 70.79 0 36.55 36.55 0 0 1 -35.38 27.51z" fill="#fd5f7e"/><path d="m136.29 179.34c-11.63 0-24.51 3.62-28.91 16.58 1.57 3.2 3.22 6.42 5 9.67l261.76 6.88s.77-1.33 2.05-3.75c1.19-23.51-15.62-29.38-30.42-29.38z" fill="#706970"/><path d="m336.77 176.19c-24-31.56-29-66.84-29-66.84-88.11 31.65-171.49 19.83-171.49 19.83s.58 31.81 2.62 68.33a20.55 20.55 0 0 0 -2.61-.17c-15.6 0-33.45 6.51-30.08 33.35 3.31 26.31 19.79 39.31 35.36 39.31a14.14 14.14 0 0 0 3.67-.48c1.95 13.68 4.31 24.66 7.15 30.51 13.89 28.55 53.42 63.97 88.61 63.97s74.75-35.38 88.63-63.95c2.85-5.85 5.2-16.83 7.16-30.51a14.14 14.14 0 0 0 3.67.48c15.61 0 32-13 35.36-39.29 3.37-26.84-14.48-33.35-30.08-33.35a20.43 20.43 0 0 0 -2.61.17v-.13a32.1 32.1 0 0 0 -6.36-21.23z" fill="#ffc89f"/><path d="m312.39 128.29a132.1 132.1 0 0 1 -4.66-18.94c-88.07 31.65-171.45 19.83-171.45 19.83s.13 6.94.47 18.06c6.95.83 92.06 10.23 175.64-18.95z" fill="#f7bc94"/><path d="m332.73 282c-14.37 28.58-55.27 64-91.73 64s-77.33-35.38-91.7-63.95a59.24 59.24 0 0 1 -4.06-12.4c2 13.63 4.3 24.57 7.13 30.4 13.91 28.53 53.44 63.95 88.63 63.95s74.75-35.38 88.63-63.95c2.84-5.83 5.19-16.77 7.14-30.4a59.24 59.24 0 0 1 -4.04 12.35z" fill="#f7bc94"/><circle cx="462.26" cy="207.96" fill="#ffaec1" r="11.6"/><path d="m201.3 61.74a7.5 7.5 0 0 1 -.93-14.94 179.7 179.7 0 0 0 36.48-9.36 7.5 7.5 0 0 1 5.34 14 191.69 191.69 0 0 1 -39.95 10.22 7.54 7.54 0 0 1 -.94.08z" fill="#aaa0a9"/><path d="m423.75 486h-40a7.5 7.5 0 0 1 0-15h40a7.5 7.5 0 0 1 0 15z" fill="#ffbbcd"/><path d="m355.28 486h-20a7.5 7.5 0 0 1 0-15h20a7.5 7.5 0 0 1 0 15z" fill="#ffbbcd"/><rect fill="#a4e6ff" height="71.12" rx="15" width="133.43" x="174.31" y="95.92"/><path d="m292.74 149h-103.43a15 15 0 0 1 -15-15v18a15 15 0 0 0 15 15h103.43a15 15 0 0 0 15-15v-18a15 15 0 0 1 -15 15z" fill="#81ddfd"/><rect fill="#d7f7ff" height="35.12" rx="5.7" width="94.44" x="193.81" y="113.92"/><path d="m493.33 178.84v-153.4a25.43 25.43 0 1 0 -50.86 0v153.4a44.1 44.1 0 1 0 50.86 0zm-25.43-163.84a10.42 10.42 0 0 1 10.41 10.41v35.7h-20.82v-35.67a10.42 10.42 0 0 1 10.41-10.44zm0 229a29.1 29.1 0 0 1 -14.23-54.47 7.52 7.52 0 0 0 3.82-6.55v-20.62h6a7.52 7.52 0 0 0 0-15h-6v-28.09h6a7.52 7.52 0 0 0 0-15h-6v-28.1h20.82v106.83a7.51 7.51 0 0 0 3.83 6.55 29.1 29.1 0 0 1 -14.24 54.45z"/><path d="m367.4 400.46c-25.9-10.08-50.27-18.09-60.68-21.42v-37.57c12.78-11.59 23.57-25.29 29.79-38.09 2.55-5.27 4.79-13.79 6.79-25.95a39.29 39.29 0 0 0 24.95-11.95c8.2-8.28 13.45-20 15.2-33.91a46.64 46.64 0 0 0 -1-18.46c7.56-14 36.9-72.63 24.56-115.84-7.7-27-25.36-37.37-38.81-41.34a66.71 66.71 0 0 0 -20.88-2.57c-6.79-16.5-25-39.5-73.65-45.34-28.16-3.38-52.36 4.18-73.67 10.85-17.42 5.43-32.43 10.13-46.32 8.21-19-2.61-29.44-22.74-29.53-22.93a7.57 7.57 0 0 0 -12.55-1.38c-.73.91-18.07 22.52-27.49 58.85-8.45 32.6-11.78 83.59 19.17 143.1-4.49 7-6.09 16-4.72 26.85 1.75 13.9 7 25.63 15.2 33.91a39.29 39.29 0 0 0 25 11.95c2 12.16 4.23 20.68 6.79 25.95 6.22 12.8 17 26.5 29.79 38.09v37.53c-10.41 3.33-34.78 11.34-60.69 21.42-46.73 18.17-76.18 34.24-87.51 47.76-21.43 25.55-27.14 47.41-27.14 56.31a7.51 7.51 0 0 0 7.51 7.51h467a7.51 7.51 0 0 0 7.51-7.51c0-8.9-5.71-30.76-27.09-56.27-11.34-13.52-40.79-29.59-87.53-47.76zm-177.09-47.06c17.14 11.83 34.91 18.28 50.69 18.28s33.56-6.45 50.7-18.28v29.53c-2.46 4.89-14.72 24.94-50.7 24.94s-48.16-19.87-50.69-24.95zm-91.83-287.33a165.73 165.73 0 0 1 18.88-45.13c6.54 8.21 17.91 18.78 34.27 21 17.21 2.36 34.5-3 52.8-8.75 20.89-6.53 42.48-13.28 67.47-10.28 46.24 5.55 59.37 27.76 63.09 40.5a7.53 7.53 0 0 0 8.48 5.3 51.18 51.18 0 0 1 21 1.76c14 4.32 23.5 14.71 28.12 30.9 9.16 32.08-9.69 76.92-19.45 96.91-5.7-4.86-13.41-7.73-22.69-8.43a39.35 39.35 0 0 0 -7.6-18.39c-22.47-29.59-27.57-63.16-27.62-63.49a6.53 6.53 0 0 0 -.19-.9 22.57 22.57 0 0 0 -22.25-19h-103.57a22.56 22.56 0 0 0 -22.53 22.54v12.84a285.24 285.24 0 0 1 -29.52-2 7.56 7.56 0 0 0 -8.56 7.58c0 .3.53 27.91 2.21 60.87a42.59 42.59 0 0 0 -16 4.38c-21.57-43.02-27.07-86.13-16.34-128.21zm83.23 44.56a7.52 7.52 0 0 1 7.51-7.51h103.57a7.52 7.52 0 0 1 7.51 7.51v41.2a7.52 7.52 0 0 1 -7.51 7.52h-103.57a7.52 7.52 0 0 1 -7.51-7.52zm-22.71 186.18c-1.57-3.24-4-10.79-6.48-28.35-.68-5.44-6.41-7.37-11.12-6-11.86 0-25.1-10.14-27.95-32.8-1-8.33.21-14.57 3.72-18.56 4.67-5.29 12.88-6.4 18.95-6.4 5 1.16 10.52-2.27 10.11-7.76-1.39-24.89-2.1-47.79-2.41-59.67 5.42.47 13.2 1 22.86 1.2v13.32a22.57 22.57 0 0 0 22.53 22.55h103.58a22.56 22.56 0 0 0 22.32-19.53 156.33 156.33 0 0 0 15.78 25.73 24.62 24.62 0 0 1 4.88 16.33c-.46 5.51 5.1 9 10.11 7.83 6.07 0 14.28 1.11 18.95 6.4 3.51 4 4.76 10.23 3.71 18.56-2.84 22.66-16.08 32.8-27.94 32.8-4.71-1.41-10.44.53-11.12 6-2.48 17.54-4.91 25.11-6.48 28.35-13.72 28.25-51.7 59.84-82 59.84s-68.27-31.59-82-59.84zm-142.65 200.19c2.48-9 8.81-23.06 22.25-39.1 18.58-22.15 102.75-52.29 140.54-64.31 6.54 10.24 23.86 29.31 61.86 29.31s55.33-19.07 61.87-29.34c37.78 12 122 42.15 140.54 64.31 13.46 16.06 19.79 30.13 22.26 39.13z"/><path d="m214.4 300.36a7.48 7.48 0 0 0 9.73-4.18 18.77 18.77 0 0 1 33.74 0 7.51 7.51 0 0 0 13.94-5.6c-.32-.82-8.17-20-30.81-20s-30.48 19.14-30.8 20a7.55 7.55 0 0 0 4.2 9.78z"/><path d="m211 209.1a7.51 7.51 0 0 0 -14-5.54c0 .08-3.92 8.1-19.73 7.3a7.52 7.52 0 0 0 -.75 15c1 .05 1.94.07 2.87.07 19.61.07 29.08-10.4 31.61-16.83z"/><path d="m106.55 290.92a7.51 7.51 0 0 0 -10.55 1.22c-.43.55-10.67 13.69-10.67 34.19 0 10.78 3.67 18.67 6.82 25.67 3 6.67 5.94 13 5.94 22a7.51 7.51 0 1 0 15 0c0-12.29-3.88-20.77-7.31-28.25-2.92-6.39-5.45-11.91-5.45-19.41a44 44 0 0 1 7.45-24.89 7.51 7.51 0 0 0 -1.23-10.53z"/><path d="m45.19 397.85a7.51 7.51 0 0 0 15 0c0-12.3-3.88-20.77-7.3-28.25-2.92-6.39-5.45-11.91-5.45-19.42a45.6 45.6 0 0 1 3.22-16.92 7.51 7.51 0 1 0 -14-5.54 60.78 60.78 0 0 0 -4.27 22.46c0 10.78 3.62 18.69 6.81 25.67 3.11 6.68 5.99 12.98 5.99 22z"/><path d="m368.9 374a7.51 7.51 0 1 0 15 0c0-9 2.89-15.32 5.94-22 3.19-7 6.81-14.89 6.81-25.67 0-20.5-10.23-33.64-10.67-34.19a7.51 7.51 0 1 0 -11.79 9.3 44 44 0 0 1 7.44 24.89c0 7.5-2.52 13-5.45 19.41-3.4 7.48-7.28 15.96-7.28 28.26z"/><path d="m421.8 397.85a7.51 7.51 0 0 0 15 0c0-9 2.88-15.32 5.93-22 3.2-7 6.82-14.89 6.82-25.67a60.78 60.78 0 0 0 -4.27-22.46 7.51 7.51 0 1 0 -14 5.54 45.6 45.6 0 0 1 3.22 16.92c0 7.51-2.53 13-5.45 19.42-3.37 7.48-7.25 15.95-7.25 28.25z"/><path d="m271 209.1a7.51 7.51 0 0 1 14-5.54c0 .08 3.92 8.1 19.73 7.3a7.52 7.52 0 0 1 .75 15c-1 .05-1.94.07-2.87.07-19.61.07-29.07-10.4-31.61-16.83z"/></g></svg>