<?xml version="1.0" encoding="UTF-8"?>
<svg xmlns="http://www.w3.org/2000/svg" viewBox="0 0 64 64" width="512" height="512"><g id="Layer_16" data-name="Layer 16"><path d="M17,63V60.162A19.5,19.5,0,0,1,18,54h0a19.5,19.5,0,0,0,1-6.162V44h0a20.006,20.006,0,0,0-1.538-7.692L14,28h0a84.266,84.266,0,0,1,.464,16.044h0A54.367,54.367,0,0,1,11.8,57.613L10,63H4l-.667-4.666A33.178,33.178,0,0,1,3,53.642H3a33.181,33.181,0,0,1,.79-7.2h0A50.823,50.823,0,0,0,5,35.423V28.939a32.033,32.033,0,0,1,.955-7.761h0A13.833,13.833,0,0,1,16.206,11.069l3.927-.924A6.312,6.312,0,0,0,25,4V1H39V4h0a6.312,6.312,0,0,0,4.867,6.145l3.927.924A13.833,13.833,0,0,1,58.045,21.178h0A32.033,32.033,0,0,1,59,28.939v6.484a50.823,50.823,0,0,0,1.21,11.022h0a33.181,33.181,0,0,1,.79,7.2h0a33.178,33.178,0,0,1-.333,4.692L60,63H54l-1.8-5.387a54.367,54.367,0,0,1-2.668-13.569h0A84.266,84.266,0,0,1,50,28l-3.462,8.308A20.006,20.006,0,0,0,45,44h0v3.838A19.5,19.5,0,0,0,46,54h0a19.5,19.5,0,0,1,1,6.162V63Z" style="fill:#deb1ac"/><path d="M60.667,58.334A33.178,33.178,0,0,0,61,53.642h0a33.181,33.181,0,0,0-.79-7.2A50.823,50.823,0,0,1,59,35.423V28.939a32.033,32.033,0,0,0-.955-7.761h0A13.833,13.833,0,0,0,47.794,11.069l-3.927-.924A6.312,6.312,0,0,1,39,4V1H28V5a6.312,6.312,0,0,1-4.867,6.145l-3.927.924A13.834,13.834,0,0,0,8.955,22.178,32.033,32.033,0,0,0,8,29.939v6.484A50.823,50.823,0,0,1,6.79,47.445a33.181,33.181,0,0,0-.79,7.2H6a33.178,33.178,0,0,0,.333,4.692L6.857,63H10l1.8-5.387a54.367,54.367,0,0,0,2.668-13.569A84.266,84.266,0,0,0,14,28l3.462,8.308A20.006,20.006,0,0,1,19,44v3.838A19.5,19.5,0,0,1,18,54a19.5,19.5,0,0,0-1,6.162V63H47V60.162A19.5,19.5,0,0,0,46,54a19.5,19.5,0,0,1-1-6.162V44a20.006,20.006,0,0,1,1.538-7.692L50,28a84.266,84.266,0,0,0-.464,16.044A54.367,54.367,0,0,0,52.2,57.613L54,63h6Z" style="fill:#fbe1d7"/><path d="M19,10.42v1.46A3.141,3.141,0,0,1,15.88,15,1.878,1.878,0,0,0,14,16.88,4.721,4.721,0,0,0,14.5,19a4.721,4.721,0,0,1,.5,2.12A2.868,2.868,0,0,1,12.12,24a5.84,5.84,0,0,1-3.75-1.36L6.08,20.73a13.78,13.78,0,0,1,10.13-9.66Z" style="fill:#5a361f"/><path d="M60.89,51H57.88A3.892,3.892,0,0,1,54,47.12a1.816,1.816,0,0,1,1-1.62,1.816,1.816,0,0,0,1-1.62V42.41A3.415,3.415,0,0,0,55,40a3.415,3.415,0,0,1-1-2.41,9.806,9.806,0,0,1,3.52-7.53L59,28.83v6.59a50.972,50.972,0,0,0,1.21,11.02A32.168,32.168,0,0,1,60.89,51Z" style="fill:#7f4e36"/><path d="M28,52.28a2.378,2.378,0,0,1-1.63,2.26l-3.85,1.29a3.521,3.521,0,0,1-1.07.17,3.469,3.469,0,0,1-1.99-.64,3.428,3.428,0,0,1-1.23-1.68l-.07-.19v-.01A19.266,19.266,0,0,0,19,47.84V44a19.93,19.93,0,0,0-.89-5.89V38.1l7.01.64A3.171,3.171,0,0,1,28,41.89a3.949,3.949,0,0,1-1.75,3.28,2.8,2.8,0,0,0,0,4.66l.69.46A2.4,2.4,0,0,1,28,52.28Z" style="fill:#7f4e36"/><path d="M46.99,59.67,38.81,58.3A2.167,2.167,0,0,1,37,56.17,2.185,2.185,0,0,1,39.17,54,1.831,1.831,0,0,0,41,52.17,3.171,3.171,0,0,1,44.17,49h.87A19.406,19.406,0,0,0,46,54,19.519,19.519,0,0,1,46.99,59.67Z" style="fill:#7f4e36"/><path d="M34.9,15.447l-1.79-.894,1-2a1,1,0,0,1,.7-.533l5-1,.392,1.96-4.52.9Z" style="fill:#deb1ac"/><path d="M29.105,15.447l-.781-1.562-4.52-.9.392-1.96,5,1a1,1,0,0,1,.7.533l1,2Z" style="fill:#deb1ac"/><rect x="31" y="53" width="2" height="2" style="fill:#deb1ac"/><path d="M32.708,23.146l1.471-.735A3.888,3.888,0,0,1,35.918,22h0a3.891,3.891,0,0,0,3.237-1.732h0A2.847,2.847,0,0,1,41.524,19h.448A3.028,3.028,0,0,1,45,22.028h0a3.191,3.191,0,0,1-1.764,2.854h0A10.592,10.592,0,0,1,38.5,26h0A1.5,1.5,0,0,0,37,27.5h0A1.5,1.5,0,0,1,35.5,29H34.089A3.091,3.091,0,0,1,31,25.91h0A3.089,3.089,0,0,1,32.708,23.146Z" style="fill:#7f4e36"/><circle cx="24" cy="24" r="2" style="fill:#7f4e36"/><circle cx="51" cy="21" r="2" style="fill:#7f4e36"/><circle cx="37" cy="41" r="2" style="fill:#7f4e36"/><circle cx="9" cy="47" r="2" style="fill:#7f4e36"/><path d="M14.16,23.16A2.871,2.871,0,0,0,15,21.12,4.721,4.721,0,0,0,14.5,19a4.721,4.721,0,0,1-.5-2.12A1.878,1.878,0,0,1,15.88,15a3.113,3.113,0,0,0,3.094-2.868A13.83,13.83,0,0,0,8.955,22.178c-.062.251-.108.5-.164.756A5.828,5.828,0,0,0,12.12,24,2.871,2.871,0,0,0,14.16,23.16Z" style="fill:#7f4e36"/><path d="M49.241,27.349l-3.323,3.877a8,8,0,0,1-7.59,2.62L34.2,33.02,33.8,34.98l4.132.827a9.946,9.946,0,0,0,9.5-3.28l1.317-1.536L50,28Z" style="fill:#deb1ac"/><path d="M24.114,36a10.013,10.013,0,0,0,1.951-.193L30.2,34.98,29.8,33.02l-4.131.826a8,8,0,0,1-7.591-2.62l-3.323-3.877L14,28l1.246,2.991,1.317,1.536A9.934,9.934,0,0,0,24.114,36Z" style="fill:#deb1ac"/><path d="M60,35.423V28.939a33.06,33.06,0,0,0-.985-8A14.774,14.774,0,0,0,48.023,10.1L44.1,9.171A5.291,5.291,0,0,1,40,4V1H38V4a7.286,7.286,0,0,0,5.638,7.119l3.927.924a12.779,12.779,0,0,1,9.509,9.378,31.04,31.04,0,0,1,.909,6.959l-1.1.916A10.759,10.759,0,0,0,53,37.586a4.387,4.387,0,0,0,1.292,3.121A2.4,2.4,0,0,1,55,42.414v1.468a.8.8,0,0,1-.447.723A2.8,2.8,0,0,0,53,47.118,4.887,4.887,0,0,0,57.882,52h2.073c.028.548.045,1.095.045,1.643a32.349,32.349,0,0,1-.323,4.55l-.667,4.666,1.98.284.666-4.666a34.157,34.157,0,0,0-.47-12.248A49.89,49.89,0,0,1,60,35.423ZM57.882,50A2.885,2.885,0,0,1,55,47.118a.8.8,0,0,1,.447-.723A2.8,2.8,0,0,0,57,43.882V42.414a4.387,4.387,0,0,0-1.292-3.121A2.4,2.4,0,0,1,55,37.586a8.759,8.759,0,0,1,3-6.6v4.439a51.857,51.857,0,0,0,1.234,11.238A32.178,32.178,0,0,1,59.789,50Z"/><path d="M50.534,43.978a83.5,83.5,0,0,1,.458-15.854,1,1,0,0,0-1.751-.775l-3.323,3.877a8,8,0,0,1-7.59,2.62L34.2,33.02,33.8,34.98l4.132.827a10.016,10.016,0,0,0,8.8-2.562l-1.115,2.678A20.876,20.876,0,0,0,44,44v3.838c0,.059.007.118.007.178A4.161,4.161,0,0,0,40,52.165a.836.836,0,0,1-.834.835,3.166,3.166,0,0,0-.521,6.288L46,60.514V63h2V60.162a20.469,20.469,0,0,0-1.051-6.478A18.454,18.454,0,0,1,46,47.838V44a18.923,18.923,0,0,1,1.461-7.308l.99-2.375a85.305,85.305,0,0,0,.088,9.793,55.372,55.372,0,0,0,2.717,13.82l1.8,5.386,1.9-.632-1.8-5.387A53.378,53.378,0,0,1,50.534,43.978ZM38,56.165A1.166,1.166,0,0,1,39.166,55,2.837,2.837,0,0,0,42,52.165,2.165,2.165,0,0,1,44.129,50a20.414,20.414,0,0,0,.922,4.312,18.479,18.479,0,0,1,.865,4.157l-6.942-1.158A1.162,1.162,0,0,1,38,56.165Z"/><path d="M4,53.642a32.278,32.278,0,0,1,.766-6.981A51.857,51.857,0,0,0,6,35.423V28.939a31.031,31.031,0,0,1,.683-6.4l1.05.875A6.861,6.861,0,0,0,12.118,25,3.886,3.886,0,0,0,16,21.118a5.771,5.771,0,0,0-.605-2.565A3.746,3.746,0,0,1,15,16.882.883.883,0,0,1,15.882,16,4.122,4.122,0,0,0,20,11.882V11.2l.362-.085A7.286,7.286,0,0,0,26,4V1H24V4a5.292,5.292,0,0,1-4.1,5.171l-3.927.925A14.774,14.774,0,0,0,4.985,20.936a33.06,33.06,0,0,0-.985,8v6.484A49.89,49.89,0,0,1,2.814,46.228a34.157,34.157,0,0,0-.47,12.248l.666,4.666,1.98-.284-.667-4.666A32.349,32.349,0,0,1,4,53.642Zm12.435-41.6L18,11.675v.207A2.12,2.12,0,0,1,15.882,14,2.885,2.885,0,0,0,13,16.882a5.771,5.771,0,0,0,.605,2.565A3.746,3.746,0,0,1,14,21.118,1.884,1.884,0,0,1,12.118,23a4.86,4.86,0,0,1-3.105-1.124l-1.78-1.483A12.772,12.772,0,0,1,16.435,12.043Z"/><path d="M26.065,35.807,30.2,34.98,29.8,33.02l-4.131.826a8,8,0,0,1-7.591-2.62l-3.323-3.877a1,1,0,0,0-1.751.775,83.5,83.5,0,0,1,.458,15.854A53.378,53.378,0,0,1,10.847,57.3l-1.8,5.387,1.9.632,1.8-5.386a55.372,55.372,0,0,0,2.717-13.82,85.305,85.305,0,0,0,.088-9.793l.99,2.375A18.923,18.923,0,0,1,18,44v3.838a18.454,18.454,0,0,1-.949,5.846A20.469,20.469,0,0,0,16,60.162V63h2V60.162a18.5,18.5,0,0,1,.511-4.3A4.386,4.386,0,0,0,21.449,57a4.331,4.331,0,0,0,1.39-.227l3.843-1.28a3.388,3.388,0,0,0,.809-6.034L26.8,49a1.8,1.8,0,0,1,0-3A4.922,4.922,0,0,0,29,41.9a4.149,4.149,0,0,0-3.792-4.153l-6.377-.58c-.143-.415-.277-.832-.447-1.239l-1.115-2.678A10.016,10.016,0,0,0,26.065,35.807Zm-1.038,3.927A2.16,2.16,0,0,1,27,41.9a2.926,2.926,0,0,1-1.307,2.441,3.8,3.8,0,0,0,0,6.328l.688.459A1.388,1.388,0,0,1,26.05,53.6l-3.845,1.281a2.357,2.357,0,0,1-.756.123A2.39,2.39,0,0,1,19.2,53.432a20.463,20.463,0,0,0,.8-5.594V44a20.916,20.916,0,0,0-.571-4.775Z"/><path d="M35.676,13.885l4.52-.9L39.8,11.02l-5,1a1,1,0,0,0-.7.533l-1,2,1.79.894Z"/><path d="M23.8,12.98l4.52.9.781,1.562,1.79-.894-1-2a1,1,0,0,0-.7-.533l-5-1Z"/><rect x="31" y="53" width="2" height="2"/><path d="M34.089,30H35.5A2.5,2.5,0,0,0,38,27.5a.5.5,0,0,1,.5-.5,11.646,11.646,0,0,0,5.184-1.224A4.169,4.169,0,0,0,46,22.028,4.033,4.033,0,0,0,41.972,18h-.448a3.839,3.839,0,0,0-3.2,1.713A2.884,2.884,0,0,1,35.918,21a4.927,4.927,0,0,0-2.187.516l-1.47.735A4.09,4.09,0,0,0,34.089,30Zm-.934-5.959,1.471-.736a2.9,2.9,0,0,1,1.292-.3,4.88,4.88,0,0,0,4.069-2.178A1.845,1.845,0,0,1,41.524,20h.448A2.031,2.031,0,0,1,44,22.028a2.178,2.178,0,0,1-1.211,1.959A9.633,9.633,0,0,1,38.5,25,2.5,2.5,0,0,0,36,27.5a.5.5,0,0,1-.5.5H34.09a2.09,2.09,0,0,1-.935-3.959Z"/><path d="M21,24a3,3,0,1,0,3-3A3,3,0,0,0,21,24Zm4,0a1,1,0,1,1-1-1A1,1,0,0,1,25,24Z"/><path d="M54,21a3,3,0,1,0-3,3A3,3,0,0,0,54,21Zm-4,0a1,1,0,1,1,1,1A1,1,0,0,1,50,21Z"/><path d="M40,41a3,3,0,1,0-3,3A3,3,0,0,0,40,41Zm-4,0a1,1,0,1,1,1,1A1,1,0,0,1,36,41Z"/><path d="M12,47a3,3,0,1,0-3,3A3,3,0,0,0,12,47ZM9,48a1,1,0,1,1,1-1A1,1,0,0,1,9,48Z"/></g></svg>
