<svg id="Layer_1" enable-background="new 0 0 500 500" viewBox="0 0 500 500" xmlns="http://www.w3.org/2000/svg"><g clip-rule="evenodd" fill-rule="evenodd"><path d="m362.212 313.129h-300.129c-17.134 0-31.153 14.019-31.153 31.153v31.154h331.282z" fill="#e33f65"/><path d="m229.553 275.887h53.794l45.518-45.518 28.966-29.885c19.361 7.9 32.908 20.514 41.38 37.242v145.749h-33.301l-53.596-70.346h-55.396c-22.904 0-30.719-13.496-27.365-37.242z" fill="#f0b16e"/><path d="m432.314 466.234c-101.553 0-299.83 0-401.383 0v-99.311h351.728v-143.172c0-5.471 4.462-9.933 9.933-9.933h29.789c5.471 0 9.933 4.462 9.933 9.933z" fill="#60b7fe"/><path d="m112.454 58.327c-44.647 0-80.841 36.194-80.841 80.841s36.194 80.841 80.841 80.841c28.482 0 53.522-14.732 67.922-36.989-9.93 5.496-21.35 8.628-33.503 8.628-38.269 0-69.293-31.023-69.293-69.293 0-28.582 17.307-53.119 42.011-63.712-2.352-.205-4.732-.316-7.137-.316z" fill="#ffbf31"/><ellipse cx="336.285" cy="172.488" fill="#f0b16e" rx="56.445" ry="56.444" transform="matrix(.16 -.987 .987 .16 112.158 476.801)"/><path d="m472.484 138.069-25.367 14.649c-3.234 1.862-7.44.807-9.353-2.51-1.891-3.277-.77-7.455 2.509-9.346l25.367-14.648c3.273-1.89 7.456-.767 9.341 2.5 1.904 3.277.776 7.466-2.497 9.355zm-172.604-74.645v-29.289c0-3.779 3.067-6.848 6.849-6.848 3.788 0 6.843 3.069 6.843 6.848v29.289c0 3.779-3.055 6.848-6.843 6.848-3.782 0-6.849-3.069-6.849-6.848zm86.714 11.829 14.638-25.365c1.891-3.277 6.079-4.399 9.359-2.51 3.279 1.899 4.389 6.08 2.497 9.358l-14.638 25.365c-1.911 3.313-6.132 4.369-9.359 2.51-3.273-1.889-4.388-6.08-2.497-9.358zm-292.529-8.133c-14.644 14.095-23.324 33.764-23.324 54.877 0 46.232 41.017 81.894 87.017 75.356-12.771 9.904-28.61 15.454-45.291 15.454-40.811 0-73.998-33.198-73.998-73.996.001-34.458 23.665-63.484 55.596-71.691zm18.403 159.377c29.87 0 57.407-15.004 73.664-40.123 3.831-5.905-2.89-13.124-9.062-9.703-9.189 5.083-19.621 7.766-30.192 7.766-34.429 0-62.444-28.01-62.444-62.44 0-25.02 14.862-47.565 37.86-57.422 6.509-2.795 4.954-12.498-2.097-13.118-51.262-4.502-95.418 35.98-95.418 87.353-.001 48.347 39.331 87.687 87.689 87.687zm313.01 232.525h-387.693v-85.617h344.881c3.782 0 6.849-3.066 6.849-6.845v-143.174c0-1.698 1.376-3.085 3.085-3.085h29.792c1.697 0 3.085 1.388 3.085 3.085v235.636zm-363.386-139.405c-13.402 0-24.306 10.898-24.306 24.304v15.793h301.7l-30.556-40.097zm177.804-19.342c3.255 3.743 8.983 5.649 17.032 5.649h52.552l31.101-31.107c2.673-2.673 7.013-2.664 9.686 0 2.673 2.676 2.673 7.011 0 9.686l-28.871 28.87 35.295 46.341h19.13v-136.328c0-.668.042-1.333.127-1.982-11.795 9.506-26.629 14.655-42.727 13.939l-45.021 45.024c-1.285 1.278-3.031 2.001-4.849 2.001h-47.606c-.461 8.195.927 14.202 4.151 17.907zm46.794-128.151c0 27.347 22.258 49.599 49.601 49.599 27.349 0 49.6-22.252 49.6-49.599 0-27.345-22.251-49.599-49.6-49.599-27.343 0-49.601 22.254-49.601 49.599zm135.703 34.484h-29.792c-1.206 0-2.382.138-3.528.384 6.637-10.013 10.511-21.989 10.511-34.867 0-34.893-28.386-63.289-63.293-63.289-34.895 0-63.287 28.396-63.287 63.289 0 28.112 18.439 52 43.848 60.223l-36.332 36.328h-50.958c-3.413 0-6.304 2.509-6.777 5.889-1.903 13.47-.497 23.786 4.304 31.36h-164.997c-20.948 0-37.999 17.04-37.999 37.997v121.945c0 3.788 3.067 6.845 6.849 6.845h401.379c3.782 0 6.849-3.057 6.849-6.845v-242.481c.001-9.246-7.534-16.778-16.777-16.778z" fill="#2b3f4f"/></g></svg>