<svg enable-background="new 0 0 256 256" height="512" viewBox="0 0 256 256" width="512" xmlns="http://www.w3.org/2000/svg"><g id="Layer_67"><g><g><g><path d="m93.335 78.826c6.713 1.405 26.679 3.807 40.214-13.214.742-.933 2.115-1.021 2.966-.187 2.567 2.516 8.534 7.092 19.157 8.882v.001c-1.279-4.416-1.978-9.078-1.978-13.906 0-8.146 1.965-15.829 5.426-22.621 0 0-.001.001-.001.001-3.975-.401-8.034.333-11.721 2.234-.412.213-.817.438-1.214.676-3.819-6.374-10.669-10.36-18.153-10.36h-10.869c-5.259 0-10.28 1.076-14.852 3.018-13.784 5.856-23.398 19.526-23.398 35.231v17.138s0 0-.001 0c2.647-2.118 5.999-3.393 9.654-3.393.809 0 1.602.068 2.378.188v-1.755c0-.009 0-.017 0-.025.002-1.244 1.172-2.163 2.392-1.908z" fill="#754e34"/></g></g><g><path d="m203.597 110.306c-8.081 0-15.706-1.932-22.458-5.342-2.585 4.935-7.748 8.307-13.705 8.307-.843 0-1.665-.086-2.471-.216 0 0 0-.001 0-.002-.577 8.603-4.115 16.427-9.608 22.447h35.16c9.342 0 16.985-7.644 16.985-16.985v-8.375c-1.289.099-2.588.166-3.903.166z" fill="#dae6f1"/></g><g><path d="m155.672 74.308c-10.623-1.79-16.59-6.366-19.157-8.882-.851-.834-2.224-.746-2.966.187-13.535 17.021-33.501 14.619-40.214 13.214-1.22-.255-2.39.664-2.391 1.911v.025 29.809c0 20.381 16.675 37.056 37.056 37.056 20.381 0 37.056-16.675 37.056-37.056v-18.468c-4.252-5.164-7.473-11.201-9.384-17.796z" fill="#f9d0b4"/></g><g><path d="m165.056 92.104v18.467c0 .836-.038 1.663-.093 2.485.807.13 1.628.216 2.471.216 5.958 0 11.12-3.372 13.705-8.307-6.217-3.141-11.695-7.533-16.083-12.861z" fill="#f9d0b4"/></g><g><path d="m90.944 110.57c0-3.839 0-20.42 0-28.053-.776-.12-1.568-.189-2.378-.189-8.545 0-15.471 6.927-15.471 15.471s6.927 15.471 15.471 15.471c.843 0 1.665-.086 2.471-.216v-.001c-.055-.821-.093-1.647-.093-2.483z" fill="#f9d0b4"/></g><g><path d="m235.221 157.5h-214.442c-4.459 0-8.108 3.648-8.108 8.108v21.785c0 4.459 3.648 8.108 8.108 8.108h214.442c4.459 0 8.108-3.648 8.108-8.108v-21.785c0-4.46-3.649-8.108-8.108-8.108z" fill="#b598f9"/></g><g><path d="m147.214 157.5c-1.362-2.054-2.143-5.487-2.143-8.048v-6.031c-5.118 2.679-10.924 4.205-17.072 4.205-6.148 0-11.954-1.526-17.072-4.205v6.031c0 2.56-.777 5.994-2.137 8.048z" fill="#f9d0b4"/></g><g><g><path d="m55.6 95.098h-15.187c-3.572 0-5.487-4.228-3.121-6.911l13.768-15.62h-5.975c-2.297 0-4.16-1.863-4.16-4.16s1.863-4.16 4.16-4.16h15.188c3.572 0 5.487 4.228 3.121 6.911l-13.768 15.62h5.974c2.297 0 4.16 1.863 4.16 4.16s-1.863 4.16-4.16 4.16z" fill="#70d6f9"/></g></g><g><g><path d="m30.928 58.295h-19.163c-3.573 0-5.485-4.229-3.121-6.912l18.966-21.516h-9.949c-2.297 0-4.16-1.863-4.16-4.16s1.863-4.16 4.16-4.16h19.163c3.573 0 5.485 4.229 3.121 6.912l-18.967 21.515h9.95c2.297 0 4.16 1.863 4.16 4.16 0 2.298-1.862 4.161-4.16 4.161z" fill="#70d6f9"/></g></g><g><g><path d="m65.485 20.5c-9.342 0-16.985 7.643-16.985 16.985v26.761h11.773c3.572 0 5.487 4.228 3.121 6.911l-13.768 15.62h5.974c2.297 0 4.16 1.863 4.16 4.16 0 2.298-1.863 4.16-4.16 4.16h-7.1v23.417c0 9.342 7.643 16.985 16.985 16.985h35.16c-5.493-6.019-9.031-13.843-9.608-22.445-.807.13-1.628.216-2.471.216-8.545 0-15.471-6.927-15.471-15.471 0-4.891 2.275-9.244 5.818-12.079v-17.138c0-15.706 9.614-29.375 23.398-35.231 4.572-1.942 9.592-3.018 14.852-3.018h10.869c7.484 0 14.334 3.986 18.153 10.36.397-.238.801-.463 1.214-.676 3.688-1.901 7.747-2.636 11.721-2.234.548-.817 4.464-9.728 14.51-17.283z" fill="#dae6f1"/></g></g><g><path d="m235.221 195.5h-214.442c-.611 0-1.205-.074-1.779-.204v52.774c0 2.999 2.431 5.431 5.431 5.431h207.139c2.999 0 5.431-2.431 5.431-5.431v-52.774c-.575.13-1.169.204-1.78.204z" fill="#966aea"/></g><g><circle cx="203.597" cy="60.403" fill="#fc657e" r="49.903"/></g><g><circle cx="203.597" cy="60.403" fill="#edf4fc" r="38.635"/></g><g><g><path d="m203.597 21.768c-14.299 0-26.774 7.774-33.454 19.32l27.737 16.014c.251-.433.549-.834.888-1.197v-15.775c0-2.667 2.162-4.829 4.829-4.829s4.829 2.162 4.829 4.829v15.775c1.453 1.559 2.095 3.655 1.592 6.028l5.319 9.372c.005.009.007.018.012.027 1.227 2.193.575 5.079-1.704 6.47-.001.001-.002.001-.002.002l9.269 16.054c11.546-6.681 19.32-19.156 19.32-33.455 0-21.337-17.298-38.635-38.635-38.635z" fill="#70d6f9"/></g></g><g><path d="m203.597 53.796c1.909 0 3.623.814 4.829 2.109v-15.775c0-2.667-2.162-4.829-4.829-4.829s-4.829 2.162-4.829 4.829v15.775c1.206-1.294 2.92-2.109 4.829-2.109z" fill="#818182"/></g><g><circle cx="203.597" cy="60.403" fill="#f98fa6" r="6.607"/></g><g><path d="m203.597 67.01c3.121 0 5.73-2.167 6.422-5.077l5.319 9.371c1.316 2.32.504 5.267-1.816 6.585-2.334 1.323-5.275.489-6.584-1.816l-5.315-9.364c.623.195 1.286.301 1.974.301z" fill="#fc657e"/></g><g><path d="m190.515 138h-35.16c-.99 0-1.888-.585-2.287-1.491-.4-.906-.227-1.963.44-2.694 5.26-5.764 8.442-13.196 8.96-20.929.047-.703.389-1.354.941-1.792s1.262-.626 1.959-.508c.758.125 1.434.186 2.065.186 4.836 0 9.239-2.67 11.491-6.968.635-1.21 2.122-1.688 3.341-1.071 6.667 3.366 13.844 5.073 21.331 5.073 1.116 0 2.329-.052 3.71-.158.688-.059 1.379.185 1.891.657.511.474.802 1.139.802 1.835v8.375c.001 10.744-8.74 19.485-19.484 19.485zm-29.985-5h29.985c7.987 0 14.485-6.498 14.485-14.485v-5.731c-.482.015-.949.022-1.403.022-7.505 0-14.728-1.552-21.506-4.616-3.389 4.791-8.903 7.673-14.889 7.58-.827 6.17-3.129 12.096-6.672 17.23z"/></g><g><g><g><path d="m23.8 85.85c-4.5-.8-8-4.3-8.9-8.7 0-.2-.4-.2-.4 0-.9 4.4-4.4 7.9-8.9 8.7-.2 0-.2.3 0 .4 4.5.8 8 4.3 8.9 8.7 0 .2.4.2.4 0 .9-4.4 4.4-7.9 8.9-8.7.2-.1.2-.4 0-.4z" fill="#f5c84c"/></g></g></g><g><g><g><path d="m231.7 133.5h-2.3v-2.3c0-1.7-1.4-3.2-3.2-3.2s-3.2 1.4-3.2 3.2v2.3h-2.3c-1.7 0-3.2 1.4-3.2 3.2s1.4 3.2 3.2 3.2h2.3v2.3c0 1.7 1.4 3.2 3.2 3.2s3.2-1.4 3.2-3.2v-2.3h2.3c1.7 0 3.2-1.4 3.2-3.2s-1.4-3.2-3.2-3.2z" fill="#70d6f9"/></g></g></g><g><g><g><circle cx="164.8" cy="3.4" fill="#f5c84c" r="3.4"/></g></g></g><g><g><g><circle cx="239.8" cy="115.4" fill="#87d147" r="3.4"/></g></g></g><g><g><g><circle cx="24.8" cy="110.4" fill="#fc657e" r="3.4"/></g></g></g><g><path d="m129.042 126.164c-4.758 0-9.228-1.942-11.956-5.196-.887-1.059-.748-2.636.31-3.522 1.059-.887 2.635-.748 3.522.31 1.789 2.135 4.826 3.409 8.124 3.409s6.335-1.274 8.124-3.409c.887-1.059 2.464-1.197 3.522-.31s1.197 2.464.31 3.522c-2.728 3.254-7.198 5.196-11.956 5.196z"/></g><g><path d="m143.394 105.467c-3.455 0-6.708-1.422-8.704-3.803-.887-1.058-.748-2.635.31-3.521 1.06-.888 2.636-.748 3.522.311 1.057 1.261 2.878 2.014 4.872 2.014s3.815-.753 4.872-2.015c.887-1.058 2.463-1.196 3.522-.31 1.058.888 1.197 2.464.31 3.522-1.996 2.381-5.25 3.802-8.704 3.802z"/></g><g><path d="m112.606 105.467c-3.454 0-6.708-1.421-8.704-3.802-.887-1.059-.748-2.635.31-3.522 1.06-.887 2.636-.748 3.522.31 1.057 1.262 2.878 2.015 4.872 2.015s3.814-.753 4.872-2.014c.886-1.058 2.463-1.197 3.522-.311 1.058.887 1.197 2.464.31 3.521-1.996 2.381-5.249 3.803-8.704 3.803z"/></g><g><path d="m128 150.126c-21.812 0-39.556-17.744-39.556-39.556v-29.808c.001-1.368.602-2.623 1.647-3.472 1.056-.859 2.427-1.189 3.757-.911 7.204 1.508 25.303 3.323 37.744-12.322.794-.999 1.978-1.617 3.247-1.695 1.26-.079 2.516.388 3.425 1.279 2.361 2.313 7.781 6.45 17.556 8.156 1.36.237 2.271 1.532 2.033 2.893-.237 1.359-1.53 2.271-2.893 2.033-10.604-1.851-16.839-6.358-19.797-9.13-14.122 17.307-34.749 15.151-41.72 13.805v29.173c0 19.054 15.502 34.556 34.556 34.556s34.556-15.502 34.556-34.556v-18.243c0-1.381 1.119-2.5 2.5-2.5s2.5 1.119 2.5 2.5v18.242c.001 21.812-17.743 39.556-39.555 39.556z"/></g><g><path d="m167.434 115.771c-.588 0-1.188-.035-1.832-.106-1.373-.151-2.362-1.387-2.21-2.76.152-1.372 1.394-2.365 2.76-2.209.46.051.879.075 1.282.075 4.542 0 8.675-2.319 11.058-6.204.723-1.177 2.262-1.545 3.438-.824 1.177.722 1.546 2.261.824 3.438-3.299 5.38-9.026 8.59-15.32 8.59z"/></g><g><path d="m88.566 115.771c-9.909 0-17.971-8.063-17.971-17.972s8.062-17.972 17.971-17.972c.548 0 1.115.028 1.684.083 1.375.133 2.381 1.354 2.248 2.729-.132 1.375-1.36 2.377-2.729 2.248-.41-.039-.815-.06-1.204-.06-7.152 0-12.971 5.819-12.971 12.972s5.819 12.972 12.971 12.972c.398 0 .808-.023 1.252-.072 1.374-.146 2.607.841 2.757 2.214s-.841 2.606-2.214 2.757c-.626.068-1.213.101-1.794.101z"/></g><g><path d="m235.221 198h-214.442c-5.849 0-10.608-4.759-10.608-10.607v-21.785c0-5.849 4.759-10.607 10.608-10.607h214.441c5.849 0 10.608 4.759 10.608 10.607v21.785c.001 5.848-4.758 10.607-10.607 10.607zm-214.442-38c-3.092 0-5.608 2.516-5.608 5.607v21.785c0 3.092 2.516 5.607 5.608 5.607h214.441c3.092 0 5.608-2.516 5.608-5.607v-21.785c0-3.092-2.516-5.607-5.608-5.607z"/></g><g><path d="m146.831 159.354c-.889 0-1.75-.475-2.202-1.312-1.25-2.313-2.058-5.685-2.058-8.591v-5.327c0-1.381 1.119-2.5 2.5-2.5s2.5 1.119 2.5 2.5v5.327c0 2.072.599 4.627 1.456 6.214.657 1.215.204 2.731-1.011 3.388-.377.205-.784.301-1.185.301z"/></g><g><path d="m109.154 159.393c-.404 0-.814-.098-1.194-.305-1.212-.661-1.659-2.18-.998-3.393.864-1.583 1.467-4.15 1.467-6.243v-5.296c0-1.381 1.119-2.5 2.5-2.5s2.5 1.119 2.5 2.5v5.296c0 2.934-.815 6.323-2.077 8.638-.455.832-1.312 1.303-2.198 1.303z"/></g><g><path d="m203.597 28.562c-1.381 0-2.5-1.119-2.5-2.5v-3.22c0-1.381 1.119-2.5 2.5-2.5s2.5 1.119 2.5 2.5v3.22c0 1.38-1.119 2.5-2.5 2.5z"/></g><g><path d="m203.597 100.465c-1.381 0-2.5-1.119-2.5-2.5v-3.22c0-1.381 1.119-2.5 2.5-2.5s2.5 1.119 2.5 2.5v3.22c0 1.381-1.119 2.5-2.5 2.5z"/></g><g><path d="m186.429 33.162c-.864 0-1.705-.448-2.167-1.25l-1.61-2.788c-.69-1.195-.281-2.725.915-3.415 1.195-.692 2.725-.28 3.415.915l1.61 2.788c.69 1.195.281 2.725-.915 3.415-.394.228-.824.335-1.248.335z"/></g><g><path d="m222.38 95.432c-.864 0-1.705-.448-2.167-1.25l-1.61-2.788c-.69-1.195-.281-2.725.915-3.415 1.196-.692 2.724-.28 3.415.915l1.61 2.788c.69 1.195.281 2.725-.915 3.415-.394.227-.824.335-1.248.335z"/></g><g><path d="m173.854 45.732c-.424 0-.854-.107-1.248-.335l-2.788-1.61c-1.195-.69-1.605-2.22-.915-3.415.691-1.195 2.219-1.606 3.416-.915l2.788 1.61c1.195.69 1.605 2.22.915 3.415-.464.802-1.305 1.25-2.168 1.25z"/></g><g><path d="m236.124 81.684c-.424 0-.854-.107-1.248-.335l-2.788-1.609c-1.196-.69-1.605-2.219-.915-3.415.689-1.195 2.217-1.606 3.415-.915l2.788 1.609c1.196.69 1.605 2.219.915 3.415-.463.801-1.303 1.25-2.167 1.25z"/></g><g><path d="m169.255 62.903h-3.22c-1.381 0-2.5-1.119-2.5-2.5s1.119-2.5 2.5-2.5h3.22c1.381 0 2.5 1.119 2.5 2.5s-1.119 2.5-2.5 2.5z"/></g><g><path d="m241.158 62.903h-3.219c-1.381 0-2.5-1.119-2.5-2.5s1.119-2.5 2.5-2.5h3.219c1.381 0 2.5 1.119 2.5 2.5s-1.119 2.5-2.5 2.5z"/></g><g><path d="m171.07 81.684c-.864 0-1.705-.448-2.167-1.25-.69-1.196-.281-2.725.915-3.415l2.788-1.609c1.197-.691 2.725-.28 3.415.915.69 1.196.281 2.725-.915 3.415l-2.788 1.609c-.394.227-.824.335-1.248.335z"/></g><g><path d="m233.34 45.732c-.864 0-1.704-.448-2.167-1.25-.69-1.195-.281-2.725.915-3.415l2.788-1.61c1.196-.691 2.725-.28 3.416.915.69 1.195.281 2.725-.915 3.415l-2.788 1.61c-.395.228-.824.335-1.249.335z"/></g><g><path d="m184.814 95.432c-.424 0-.854-.107-1.248-.335-1.196-.69-1.605-2.22-.915-3.415l1.61-2.788c.69-1.195 2.22-1.605 3.415-.915 1.196.69 1.605 2.22.915 3.415l-1.61 2.788c-.462.801-1.303 1.25-2.167 1.25z"/></g><g><path d="m220.766 33.162c-.424 0-.854-.107-1.248-.335-1.196-.69-1.605-2.22-.915-3.415l1.61-2.788c.691-1.196 2.221-1.605 3.415-.915 1.196.69 1.605 2.22.915 3.415l-1.61 2.788c-.463.802-1.304 1.25-2.167 1.25z"/></g><g><path d="m66.469 255.306c-.788 0-1.564-.372-2.05-1.066l-39.708-56.752c-.792-1.132-.516-2.69.615-3.482 1.13-.789 2.689-.516 3.481.615l39.708 56.752c.792 1.132.516 2.69-.615 3.482-.436.304-.936.451-1.431.451z"/></g><g><path d="m107.163 255.306c-.788 0-1.564-.372-2.05-1.066l-39.708-56.752c-.792-1.132-.516-2.69.615-3.482 1.13-.789 2.689-.516 3.481.615l39.708 56.752c.792 1.132.516 2.69-.615 3.482-.436.304-.936.451-1.431.451z"/></g><g><path d="m147.856 255.306c-.788 0-1.564-.372-2.05-1.066l-39.708-56.752c-.792-1.132-.516-2.69.615-3.482 1.13-.789 2.689-.516 3.481.615l39.708 56.752c.792 1.132.516 2.69-.615 3.482-.436.304-.936.451-1.431.451z"/></g><g><path d="m188.549 255.306c-.788 0-1.564-.372-2.05-1.066l-39.708-56.752c-.792-1.132-.516-2.69.615-3.482 1.13-.789 2.69-.516 3.481.615l39.708 56.752c.792 1.132.516 2.69-.615 3.482-.436.304-.936.451-1.431.451z"/></g><g><path d="m229.242 255.306c-.788 0-1.564-.372-2.05-1.066l-39.708-56.752c-.792-1.132-.516-2.69.615-3.482 1.131-.789 2.69-.516 3.481.615l39.708 56.752c.792 1.132.516 2.69-.615 3.482-.436.304-.936.451-1.431.451z"/></g><g><path d="m189.531 255.306c-.495 0-.995-.146-1.431-.451-1.131-.792-1.407-2.351-.615-3.482l39.708-56.752c.792-1.13 2.353-1.403 3.481-.615 1.131.792 1.407 2.351.615 3.482l-39.708 56.752c-.486.694-1.262 1.066-2.05 1.066z"/></g><g><path d="m148.837 255.306c-.495 0-.995-.146-1.431-.451-1.131-.792-1.407-2.351-.615-3.482l39.708-56.752c.792-1.13 2.352-1.403 3.481-.615 1.131.792 1.407 2.351.615 3.482l-39.708 56.752c-.486.694-1.262 1.066-2.05 1.066z"/></g><g><path d="m108.144 255.306c-.495 0-.995-.146-1.431-.451-1.131-.792-1.407-2.351-.615-3.482l39.708-56.752c.792-1.13 2.352-1.403 3.481-.615 1.131.792 1.407 2.351.615 3.482l-39.708 56.752c-.486.694-1.262 1.066-2.05 1.066z"/></g><g><path d="m67.451 255.306c-.495 0-.995-.146-1.431-.451-1.131-.792-1.407-2.351-.615-3.482l39.708-56.752c.792-1.13 2.352-1.403 3.481-.615 1.131.792 1.407 2.351.615 3.482l-39.708 56.752c-.486.694-1.262 1.066-2.05 1.066z"/></g><g><path d="m26.758 255.306c-.495 0-.995-.146-1.431-.451-1.131-.792-1.407-2.351-.615-3.482l39.708-56.752c.792-1.13 2.352-1.403 3.481-.615 1.131.792 1.407 2.351.615 3.482l-39.708 56.752c-.486.694-1.262 1.066-2.05 1.066z"/></g><g><g><path d="m55.6 97.598h-15.187c-2.649 0-4.974-1.503-6.066-3.923-1.092-2.418-.681-5.155 1.071-7.142l10.107-11.467h-.438c-3.672 0-6.66-2.987-6.66-6.66s2.988-6.66 6.66-6.66h15.188c2.65 0 4.975 1.503 6.067 3.923 1.091 2.419.681 5.155-1.071 7.142l-10.109 11.466h.438c3.672 0 6.66 2.987 6.66 6.66s-2.988 6.661-6.66 6.661zm-10.515-30.852c-.916 0-1.66.745-1.66 1.66s.745 1.66 1.66 1.66h5.975c.982 0 1.874.575 2.278 1.471s.247 1.945-.403 2.683l-13.768 15.62c-.637.722-.397 1.483-.264 1.777.133.295.546.98 1.509.98h15.188c.916 0 1.66-.745 1.66-1.66s-.745-1.66-1.66-1.66h-5.975c-.982 0-1.874-.575-2.278-1.471s-.247-1.945.403-2.683l13.768-15.62c.637-.722.397-1.483.265-1.777-.133-.295-.547-.98-1.51-.98z"/></g></g><g><g><path d="m30.928 60.795h-19.163c-2.649 0-4.973-1.502-6.065-3.921s-.683-5.156 1.069-7.144l15.306-17.364h-4.413c-3.672 0-6.66-2.987-6.66-6.66s2.988-6.66 6.66-6.66h19.163c2.649 0 4.973 1.502 6.065 3.921s.683 5.156-1.069 7.144l-15.306 17.363h4.413c3.672 0 6.66 2.988 6.66 6.661s-2.987 6.66-6.66 6.66zm-13.266-36.749c-.916 0-1.66.745-1.66 1.66s.745 1.66 1.66 1.66h9.949c.982 0 1.874.575 2.278 1.471s.247 1.945-.403 2.683l-18.966 21.516c-.637.723-.396 1.485-.264 1.779.133.295.546.979 1.509.979h19.163c.916 0 1.66-.745 1.66-1.66 0-.916-.745-1.661-1.66-1.661h-9.95c-.982 0-1.874-.575-2.278-1.471s-.247-1.945.403-2.683l18.966-21.516c.637-.723.396-1.485.264-1.779-.133-.295-.546-.979-1.509-.979h-19.162z"/></g></g><g><g><path d="m100.167 138h-34.682c-10.744 0-19.485-8.741-19.485-19.485v-22.39c0-1.381 1.119-2.5 2.5-2.5s2.5 1.119 2.5 2.5v22.39c0 7.987 6.498 14.485 14.485 14.485h34.682c1.381 0 2.5 1.119 2.5 2.5s-1.119 2.5-2.5 2.5z"/></g><g><path d="m48.5 66c-1.381 0-2.5-1.119-2.5-2.5v-26.015c0-10.744 8.741-19.485 19.485-19.485h107.765c1.381 0 2.5 1.119 2.5 2.5s-1.119 2.5-2.5 2.5h-107.765c-7.987 0-14.485 6.498-14.485 14.485v26.015c0 1.381-1.119 2.5-2.5 2.5z"/></g></g><g><path d="m231.569 256h-207.138c-4.373 0-7.931-3.558-7.931-7.931v-52.015c0-1.381 1.119-2.5 2.5-2.5s2.5 1.119 2.5 2.5v52.015c0 1.616 1.315 2.931 2.931 2.931h207.139c1.616 0 2.931-1.314 2.931-2.931v-52.015c0-1.381 1.119-2.5 2.5-2.5s2.5 1.119 2.5 2.5v52.015c-.001 4.373-3.559 7.931-7.932 7.931z"/></g><g><path d="m203.597 112.806c-28.896 0-52.403-23.508-52.403-52.402 0-28.896 23.508-52.404 52.403-52.404s52.403 23.508 52.403 52.403-23.508 52.403-52.403 52.403zm0-99.806c-26.138 0-47.403 21.265-47.403 47.403s21.265 47.402 47.403 47.402 47.403-21.264 47.403-47.402-21.265-47.403-47.403-47.403z"/></g><g><path d="m203.597 101.537c-22.682 0-41.135-18.452-41.135-41.134s18.453-41.135 41.135-41.135 41.134 18.453 41.134 41.135-18.452 41.134-41.134 41.134zm0-77.268c-19.925 0-36.135 16.21-36.135 36.135 0 19.924 16.21 36.134 36.135 36.134 19.924 0 36.134-16.21 36.134-36.134 0-19.925-16.21-36.135-36.134-36.135z"/></g><g><path d="m208.426 57.813c-1.381 0-2.5-1.119-2.5-2.5v-15.183c0-1.284-1.045-2.329-2.329-2.329-1.285 0-2.33 1.045-2.33 2.329v15.099c0 1.381-1.119 2.5-2.5 2.5s-2.5-1.119-2.5-2.5v-15.099c0-4.041 3.288-7.329 7.33-7.329s7.329 3.288 7.329 7.329v15.183c0 1.38-1.119 2.5-2.5 2.5z"/></g><g><path d="m203.597 69.51c-5.021 0-9.107-4.085-9.107-9.106s4.085-9.107 9.107-9.107 9.106 4.086 9.106 9.107-4.084 9.106-9.106 9.106zm0-13.214c-2.265 0-4.107 1.843-4.107 4.107s1.842 4.106 4.107 4.106c2.264 0 4.106-1.842 4.106-4.106s-1.842-4.107-4.106-4.107z"/></g><g><path d="m211.151 81.017c-2.555 0-5.04-1.335-6.387-3.709l-5.144-9.063c-.682-1.201-.26-2.728.94-3.408 1.203-.684 2.727-.26 3.408.939l5.144 9.063c.633 1.117 2.059 1.509 3.177.876 1.116-.634 1.508-2.059.875-3.177l-5.136-9.048c-.682-1.201-.26-2.728.94-3.408 1.202-.683 2.727-.261 3.408.939l5.136 9.049c1.994 3.516.758 7.998-2.756 9.993-1.139.646-2.381.954-3.605.954z"/></g><g><g><path d="m78.913 87.72c-1.381 0-2.5-1.119-2.5-2.5v-16.638c0-16.368 9.782-31.101 24.92-37.532 5.024-2.135 10.35-3.217 15.829-3.217h10.869c7.45 0 14.52 3.624 18.969 9.593 3.621-1.709 7.616-2.466 11.608-2.194 1.377.094 2.418 1.287 2.324 2.665-.094 1.377-1.28 2.42-2.665 2.323-3.356-.229-6.718.47-9.725 2.02-.366.188-.722.387-1.072.597-.568.343-1.249.445-1.894.283-.644-.161-1.197-.571-1.538-1.141-3.38-5.642-9.514-9.146-16.008-9.146h-10.869c-4.804 0-9.472.948-13.874 2.818-13.287 5.647-21.874 18.573-21.874 32.931v16.638c0 1.381-1.119 2.5-2.5 2.5z"/></g></g></g></g></svg>