<?xml version="1.0" encoding="UTF-8"?>
<svg xmlns="http://www.w3.org/2000/svg" xmlns:xlink="http://www.w3.org/1999/xlink" version="1.1" id="Capa_1" x="0px" y="0px" viewBox="0 0 512 512" style="enable-background:new 0 0 512 512;" xml:space="preserve" width="512" height="512">
<g>
	<g>
		<path style="fill:#D77F4A;" d="M448.268,193.522c0-6.286-2.632-11.957-6.855-15.972c-2.615-2.486-3.009-6.596-0.766-9.422&#10;&#9;&#9;&#9;c2.985-3.76,4.768-8.516,4.768-13.69c0-7.532-3.779-14.18-9.545-18.154c-2.55-1.758-3.507-5.012-2.611-7.976&#10;&#9;&#9;&#9;c0.61-2.017,0.939-4.156,0.939-6.372c0-12.171-9.867-22.038-22.038-22.038c-0.271,0-0.071-6.017-0.74-9.253&#10;&#9;&#9;&#9;c-1.918-9.281-9.745-16.43-19.169-17.43c-1.211-0.128-2.405-0.159-3.575-0.098c-4.869,0.254-8.772-3.822-8.748-8.698&#10;&#9;&#9;&#9;c0-0.048,0-0.096,0-0.144c0-15.711-12.736-28.447-28.447-28.447c-0.174,0-5.572-18.923-21.496-16.566&#10;&#9;&#9;&#9;c-2.241,0.332-4.449,0.35-6.501,0.998c-4.71,1.488-9.938,0.436-13.691-2.776c-3.767-3.224-8.658-5.172-14.005-5.172&#10;&#9;&#9;&#9;c-4.18,0-8.08,1.19-11.383,3.249c-3.962,2.47-8.786,3.357-13.275,2.075c-1.881-0.537-3.868-0.825-5.922-0.825&#10;&#9;&#9;&#9;c-2.476,0-4.854,0.418-7.068,1.187c-4.807,1.67-10.112,0.693-14.313-2.179c-3.457-2.363-7.638-3.745-12.142-3.745&#10;&#9;&#9;&#9;c-4.802,0-9.235,1.571-12.817,4.225c-4.543,3.367-10.438,4.225-15.632,1.989c-2.968-1.278-6.239-1.986-9.676-1.986&#10;&#9;&#9;&#9;c-8.8,0-16.516,4.636-20.841,11.599c-2.887,4.648-7.74,7.748-13.208,7.944c-0.279,0.01-0.558,0.024-0.839,0.042&#10;&#9;&#9;&#9;c-14.402,0.942-26.008,12.822-26.575,27.244c-0.019,0.481-0.026,0.959-0.021,1.434c0.049,4.851-4.092,8.753-8.939,8.542&#10;&#9;&#9;&#9;c-1.105-0.048-2.231-0.015-3.372,0.105c-9.425,0.994-17.256,8.14-19.18,17.42c-0.672,3.24-0.472,9.263-0.743,9.263&#10;&#9;&#9;&#9;c-12.171,0-22.038,9.867-22.038,22.038c0,2.216,0.328,4.355,0.938,6.372c0.897,2.965-0.061,6.219-2.611,7.976&#10;&#9;&#9;&#9;c-5.765,3.974-9.545,10.622-9.545,18.154c0,5.174,1.783,9.93,4.768,13.69c2.243,2.826,1.849,6.936-0.766,9.422&#10;&#9;&#9;&#9;c-4.222,4.014-6.855,9.685-6.855,15.972c0,8.699,5.041,16.216,12.36,19.798c3.401,1.664,4.745,5.766,3.32,9.274&#10;&#9;&#9;&#9;c-1.279,3.149-1.851,6.66-1.517,10.338c0.922,10.154,8.945,18.467,19.054,19.791c2.827,0.37,5.555,0.183,8.114-0.439&#10;&#9;&#9;&#9;c-0.017,0.35-0.027,0.702-0.027,1.057c0,12.171,9.867,22.038,22.038,22.038c5.29,0,10.144-1.866,13.943-4.973&#10;&#9;&#9;&#9;c3.148,8.325,11.189,14.246,20.616,14.246c12.171,0,176.557,0,188.729,0c9.427,0,17.468-5.921,20.616-14.246&#10;&#9;&#9;&#9;c3.798,3.107,8.652,4.973,13.942,4.973c12.171,0,22.038-9.867,22.038-22.038c0-0.354-0.01-0.706-0.027-1.057&#10;&#9;&#9;&#9;c2.57,0.625,5.311,0.811,8.15,0.434c10.11-1.341,18.119-9.671,19.022-19.829c0.325-3.661-0.246-7.155-1.519-10.29&#10;&#9;&#9;&#9;c-1.425-3.51-0.084-7.614,3.318-9.279C443.227,209.738,448.268,202.22,448.268,193.522z"/>
		<path style="fill:#FFD15B;" d="M411.446,372.3c-64.616,2.692-95.255-14.6-95.255-14.6l-60.121-11.895l0.003-0.428l-1.084,0.214&#10;&#9;&#9;&#9;l-1.084-0.214l0.003,0.428l-60.121,11.895c0,0-30.64,17.293-95.255,14.6L68.204,499.925h186.784H442.13L411.446,372.3z"/>
		<path style="fill:#FFCEBF;" d="M291.728,291.481L291.728,291.481l-73.48,0v0c0,24.283-8.675,47.767-24.462,66.218l1.927,2.216&#10;&#9;&#9;&#9;c4.985,5.734,11.021,10.48,17.819,13.873c25.887,12.92,56.359,13.044,82.306,0.439c7.961-3.867,14.902-9.554,20.352-16.528v0&#10;&#9;&#9;&#9;C300.403,339.248,291.728,315.764,291.728,291.481z"/>
		<path style="fill:#D77F4A;" d="M137.497,142.363c3.02,23.928,10.565,42.042,10.565,42.042l215.877,0&#10;&#9;&#9;&#9;c0,0,9.996-14.52,19.282-37.554"/>
		<ellipse style="fill:#FFCEBF;" cx="256" cy="197.248" rx="108.427" ry="135.37"/>
		<path style="fill:#FFBBAA;" d="M313.264,82.287c19.269,24.435,31.163,57.962,31.163,94.961c0,74.763-48.545,135.37-108.427,135.37&#10;&#9;&#9;&#9;c-21.024,0-40.646-7.478-57.264-20.409c19.667,24.94,47.017,40.409,77.264,40.409c59.883,0,108.427-60.607,108.427-135.37&#10;&#9;&#9;&#9;C364.427,148.733,343.981,106.187,313.264,82.287z"/>
		<path style="fill:#D77F4A;" d="M256,56.149c-56.413,0-107.939,58.157-107.939,128.256l0,0c0,0,31.222-60.851,53.686-44.804&#10;&#9;&#9;&#9;c21.226,15.161,38.065,15.919,54.252,15.919c16.187,0,33.026-0.758,54.252-15.919c22.465-16.046,53.686,44.804,53.686,44.804l0,0&#10;&#9;&#9;&#9;C364.427,114.305,312.413,56.149,256,56.149z"/>
		<path style="fill:#FFE177;" d="M169.835,248.2l-27.1-10.507l-27.1-10.507c0,0-81.573,129.986-99.523,176.281&#10;&#9;&#9;&#9;s-7.257,79.017,26.618,92.151c33.874,13.134,63.831-3.827,81.781-50.122S169.835,248.2,169.835,248.2z"/>
		<path style="fill:#FFCEBF;" d="M124.683,230.694l-1.69-33.678c-0.815-16.248,5.815-31.983,18.013-42.748l46.186-40.76&#10;&#9;&#9;&#9;c2.712-2.394,6.358-3.438,9.926-2.843l0,0c5.794,0.966,10.04,5.979,10.04,11.852v4.179c0,3.777-1.262,7.446-3.585,10.424&#10;&#9;&#9;&#9;l-21.125,29.884c-11.073,15.664-17.019,34.376-17.019,53.559v25.929L124.683,230.694z"/>
		<path style="fill:#FFE177;" d="M342.165,248.2l27.1-10.507l27.1-10.507c0,0,81.573,129.986,99.523,176.281&#10;&#9;&#9;&#9;s7.257,79.017-26.618,92.151c-33.874,13.134-63.831-3.827-81.781-50.122C369.539,399.201,342.165,248.2,342.165,248.2z"/>
		<path style="fill:#FFD15B;" d="M495.887,403.467c-17.95-46.295-99.523-176.281-99.523-176.281l-24.167,9.37&#10;&#9;&#9;&#9;c18.974,30.625,78.653,128.128,93.69,166.911c17.95,46.295,7.257,79.017-26.617,92.151c-2.073,0.804-4.131,1.491-6.173,2.07&#10;&#9;&#9;&#9;c11.214,3.55,23.415,2.877,36.173-2.07C503.144,482.484,513.837,449.762,495.887,403.467z"/>
		<path style="fill:#FFCEBF;" d="M387.317,230.694l1.69-33.678c0.815-16.248-5.815-31.983-18.013-42.748l-46.186-40.76&#10;&#9;&#9;&#9;c-2.712-2.394-6.358-3.438-9.926-2.843l0,0c-5.794,0.966-10.04,5.979-10.04,11.852v4.179c0,3.777,1.262,7.446,3.585,10.424&#10;&#9;&#9;&#9;l21.125,29.884c11.073,15.664,17.019,34.376,17.019,53.559v25.929L387.317,230.694z"/>
	</g>
	<g>
		<path style="fill:none;stroke:#000000;stroke-width:15;stroke-linecap:round;stroke-linejoin:round;stroke-miterlimit:10;" d="&#10;&#9;&#9;&#9;M415.086,252.718c10.11-1.341,18.119-9.671,19.022-19.829c0.325-3.661-0.246-7.155-1.519-10.29&#10;&#9;&#9;&#9;c-1.425-3.51-0.084-7.614,3.318-9.279c7.319-3.582,12.36-11.1,12.36-19.798c0-6.286-2.632-11.957-6.855-15.972&#10;&#9;&#9;&#9;c-2.615-2.486-3.009-6.596-0.766-9.422c2.985-3.76,4.768-8.516,4.768-13.69c0-7.532-3.779-14.18-9.545-18.154&#10;&#9;&#9;&#9;c-2.55-1.758-3.507-5.012-2.611-7.976c0.61-2.017,0.939-4.156,0.939-6.372c0-12.171-9.867-22.038-22.038-22.038&#10;&#9;&#9;&#9;c-0.271,0-0.071-6.017-0.74-9.253c-1.918-9.281-9.745-16.43-19.169-17.43c-1.211-0.128-2.405-0.159-3.575-0.098&#10;&#9;&#9;&#9;c-4.869,0.254-8.772-3.822-8.748-8.698c0-0.048,0-0.096,0-0.144c0-15.711-12.736-28.447-28.447-28.447&#10;&#9;&#9;&#9;c-0.174,0-5.572-18.923-21.496-16.566c-2.241,0.332-4.449,0.35-6.501,0.998c-4.71,1.488-9.938,0.436-13.691-2.776&#10;&#9;&#9;&#9;c-3.767-3.224-8.658-5.172-14.005-5.172c-4.18,0-8.08,1.19-11.383,3.249c-3.962,2.47-8.786,3.357-13.275,2.075&#10;&#9;&#9;&#9;c-1.881-0.537-3.868-0.825-5.922-0.825c-2.476,0-4.854,0.418-7.068,1.187c-4.807,1.67-10.112,0.693-14.313-2.179&#10;&#9;&#9;&#9;c-3.457-2.363-7.638-3.745-12.142-3.745c-4.802,0-9.235,1.571-12.817,4.225c-4.543,3.367-10.438,4.225-15.632,1.989&#10;&#9;&#9;&#9;c-2.968-1.278-6.239-1.986-9.676-1.986c-8.8,0-16.516,4.636-20.841,11.599c-2.887,4.648-7.74,7.748-13.208,7.944&#10;&#9;&#9;&#9;c-0.279,0.01-0.558,0.024-0.839,0.042c-14.402,0.942-26.008,12.822-26.575,27.244c-0.019,0.481-0.026,0.959-0.021,1.434&#10;&#9;&#9;&#9;c0.049,4.851-4.092,8.753-8.939,8.542c-1.105-0.048-2.231-0.015-3.372,0.105c-9.425,0.994-17.256,8.14-19.18,17.42&#10;&#9;&#9;&#9;c-0.672,3.24-0.472,9.263-0.743,9.263c-12.171,0-22.038,9.867-22.038,22.038c0,2.216,0.328,4.355,0.938,6.372&#10;&#9;&#9;&#9;c0.897,2.965-0.061,6.219-2.611,7.976c-5.765,3.974-9.545,10.622-9.545,18.154c0,5.174,1.783,9.93,4.768,13.69&#10;&#9;&#9;&#9;c2.243,2.826,1.849,6.936-0.766,9.422c-4.222,4.014-6.855,9.685-6.855,15.972c0,8.699,5.041,16.216,12.36,19.798&#10;&#9;&#9;&#9;c3.401,1.664,4.745,5.766,3.32,9.274c-1.279,3.149-1.851,6.66-1.517,10.338c0.922,10.154,8.945,18.467,19.054,19.791"/>
		<path style="fill:none;stroke:#000000;stroke-width:15;stroke-linecap:round;stroke-linejoin:round;stroke-miterlimit:10;" d="&#10;&#9;&#9;&#9;M201.748,139.601c21.226,15.161,38.065,15.919,54.252,15.919c16.187,0,33.026-0.758,54.252-15.919"/>
		
			<line style="fill:none;stroke:#000000;stroke-width:15;stroke-linecap:round;stroke-linejoin:round;stroke-miterlimit:10;" x1="35.204" y1="223.363" x2="35.204" y2="227.85"/>
		
			<line style="fill:none;stroke:#000000;stroke-width:15;stroke-linecap:round;stroke-linejoin:round;stroke-miterlimit:10;" x1="35.204" y1="261.166" x2="35.204" y2="256.678"/>
		
			<line style="fill:none;stroke:#000000;stroke-width:15;stroke-linecap:round;stroke-linejoin:round;stroke-miterlimit:10;" x1="53.103" y1="242.264" x2="48.615" y2="242.264"/>
		
			<line style="fill:none;stroke:#000000;stroke-width:15;stroke-linecap:round;stroke-linejoin:round;stroke-miterlimit:10;" x1="17.306" y1="242.264" x2="21.794" y2="242.264"/>
		<path style="fill:none;stroke:#000000;stroke-width:15;stroke-linecap:round;stroke-linejoin:round;stroke-miterlimit:10;" d="&#10;&#9;&#9;&#9;M363.942,370.537c-32.235-4.08-47.751-12.838-47.751-12.838"/>
		
			<line style="fill:none;stroke:#000000;stroke-width:15;stroke-linecap:round;stroke-linejoin:round;stroke-miterlimit:10;" x1="374.066" y1="499.925" x2="442.13" y2="499.925"/>
		
			<polyline style="fill:none;stroke:#000000;stroke-width:15;stroke-linecap:round;stroke-linejoin:round;stroke-miterlimit:10;" points="&#10;&#9;&#9;&#9;68.204,499.925 254.988,499.925 340.066,499.925 &#9;&#9;"/>
		<path style="fill:none;stroke:#000000;stroke-width:15;stroke-linecap:round;stroke-linejoin:round;stroke-miterlimit:10;" d="&#10;&#9;&#9;&#9;M193.786,357.699c0,0-15.865,8.954-48.838,12.973"/>
		<path style="fill:none;stroke:#000000;stroke-width:15;stroke-linecap:round;stroke-linejoin:round;stroke-miterlimit:10;" d="&#10;&#9;&#9;&#9;M212.237,325.956c-4.145,11.522-10.365,22.293-18.45,31.743l1.927,2.216c4.985,5.734,11.021,10.48,17.819,13.873&#10;&#9;&#9;&#9;c25.887,12.92,56.359,13.044,82.306,0.439c7.961-3.867,14.902-9.554,20.352-16.528v0c-8.202-9.586-14.484-20.53-18.627-32.239"/>
		<path style="fill:none;stroke:#000000;stroke-width:15;stroke-linecap:round;stroke-linejoin:round;stroke-miterlimit:10;" d="&#10;&#9;&#9;&#9;M345.91,272.934c-19.485,36.009-52.483,59.683-89.91,59.683c-37.853,0-71.176-24.217-90.571-60.919"/>
		<path style="fill:none;stroke:#000000;stroke-width:15;stroke-linecap:round;stroke-linejoin:round;stroke-miterlimit:10;" d="&#10;&#9;&#9;&#9;M61.79,316.421c-19.28,33.219-38.119,67.552-45.678,87.046c-17.95,46.295-7.257,79.017,26.618,92.151&#10;&#9;&#9;&#9;c33.874,13.134,63.831-3.827,81.781-50.122S169.835,248.2,169.835,248.2l-27.1-10.507l-27.1-10.507&#10;&#9;&#9;&#9;c0,0-16.714,26.634-36.675,60.083"/>
		<path style="fill:none;stroke:#000000;stroke-width:15;stroke-linecap:round;stroke-linejoin:round;stroke-miterlimit:10;" d="&#10;&#9;&#9;&#9;M32.38,16.905l7.925,23.552c1.414,4.203,6.751,5.46,9.892,2.329l8.161-8.135c3.103-3.093,8.368-1.911,9.851,2.212l8.999,25.015"/>
		
			<line style="fill:none;stroke:#000000;stroke-width:15;stroke-linecap:round;stroke-linejoin:round;stroke-miterlimit:10;" x1="473.796" y1="233.363" x2="473.796" y2="237.85"/>
		
			<line style="fill:none;stroke:#000000;stroke-width:15;stroke-linecap:round;stroke-linejoin:round;stroke-miterlimit:10;" x1="473.796" y1="271.166" x2="473.796" y2="266.678"/>
		
			<line style="fill:none;stroke:#000000;stroke-width:15;stroke-linecap:round;stroke-linejoin:round;stroke-miterlimit:10;" x1="455.897" y1="252.264" x2="460.385" y2="252.264"/>
		
			<line style="fill:none;stroke:#000000;stroke-width:15;stroke-linecap:round;stroke-linejoin:round;stroke-miterlimit:10;" x1="491.694" y1="252.264" x2="487.206" y2="252.264"/>
		<path style="fill:none;stroke:#000000;stroke-width:15;stroke-linecap:round;stroke-linejoin:round;stroke-miterlimit:10;" d="&#10;&#9;&#9;&#9;M483.621,16.905l-7.925,23.552c-1.414,4.203-6.751,5.46-9.892,2.329l-8.161-8.135c-3.103-3.093-8.368-1.911-9.851,2.212&#10;&#9;&#9;&#9;l-8.999,25.015"/>
		<path style="fill:none;stroke:#000000;stroke-width:15;stroke-linecap:round;stroke-linejoin:round;stroke-miterlimit:10;" d="&#10;&#9;&#9;&#9;M124.683,230.694l-1.69-33.678c-0.815-16.248,5.815-31.983,18.013-42.748l46.186-40.76c2.712-2.394,6.358-3.438,9.926-2.843l0,0&#10;&#9;&#9;&#9;c5.794,0.966,10.04,5.979,10.04,11.852v4.179c0,3.777-1.262,7.446-3.585,10.424l-21.125,29.884&#10;&#9;&#9;&#9;c-11.073,15.664-17.019,34.376-17.019,53.559v25.929L124.683,230.694z"/>
		<path style="fill:none;stroke:#000000;stroke-width:15;stroke-linecap:round;stroke-linejoin:round;stroke-miterlimit:10;" d="&#10;&#9;&#9;&#9;M450.21,316.421c19.28,33.219,38.119,67.552,45.678,87.046c17.95,46.295,7.257,79.017-26.618,92.151&#10;&#9;&#9;&#9;c-33.874,13.134-63.831-3.827-81.781-50.122c-17.95-46.295-45.324-197.296-45.324-197.296l27.1-10.507l27.1-10.507&#10;&#9;&#9;&#9;c0,0,16.714,26.634,36.675,60.083"/>
		<path style="fill:none;stroke:#000000;stroke-width:15;stroke-linecap:round;stroke-linejoin:round;stroke-miterlimit:10;" d="&#10;&#9;&#9;&#9;M387.317,230.694l1.69-33.678c0.815-16.248-5.815-31.983-18.013-42.748l-46.186-40.76c-2.712-2.394-6.358-3.438-9.926-2.843l0,0&#10;&#9;&#9;&#9;c-5.794,0.966-10.04,5.979-10.04,11.852v4.179c0,3.777,1.262,7.446,3.585,10.424l21.125,29.884&#10;&#9;&#9;&#9;c11.073,15.664,17.019,34.376,17.019,53.559v25.929L387.317,230.694z"/>
	</g>
</g>















</svg>
