<svg id="_x33_0" enable-background="new 0 0 52 62" height="512" viewBox="0 0 52 62" width="512" xmlns="http://www.w3.org/2000/svg"><g><circle cx="21" cy="27" r="1"/><circle cx="19" cy="21" r="1"/><circle cx="31" cy="25" r="1"/><circle cx="21" cy="37" r="1"/><circle cx="11" cy="21" r="1"/><circle cx="11" cy="29" r="1"/><circle cx="29" cy="35" r="1"/><circle cx="19" cy="51" r="1"/><path d="m14.707 27.707 3.707-3.707-3.707-3.707-1.414 1.414 2.293 2.293-2.293 2.293z"/><path d="m28.707 26.293-2.293-2.293 2.293-2.293-1.414-1.414-3.707 3.707 3.707 3.707z"/><path d="m18.492 31.342c-.434.497-.608.658-.996.658s-.561-.161-.995-.658c-.467-.534-1.173-1.342-2.501-1.342v2c.388 0 .561.161.995.658.467.534 1.173 1.342 2.501 1.342s2.034-.808 2.502-1.342c.435-.497.608-.658.996-.658.389 0 .563.161.999.658.468.534 1.174 1.342 2.504 1.342 1.329 0 2.035-.807 2.503-1.341.437-.498.61-.659 1-.659v-2c-1.33 0-2.036.808-2.504 1.342-.436.497-.61.658-.999.658-.39 0-.563-.161-1-.659-.468-.534-1.174-1.341-2.503-1.341-1.328 0-2.034.808-2.502 1.342z"/><path d="m48.382 44.525c-.25-.498-.382-1.056-.382-1.614 0-.965.376-1.873 1.059-2.556l.325-.325c1.687-1.686 2.616-3.929 2.616-6.315 0-2.658-1.171-5.158-3.213-6.861l-.657-.548c-1.354-1.128-2.13-2.785-2.13-4.546 0-.431.048-.862.142-1.284l1.555-6.997c.2-.908.303-1.839.303-2.771 0-5.904-4.804-10.708-10.708-10.708-1.655 0-3.312.392-4.788 1.131l-.872.435c-2.003-.993-4.249-1.566-6.632-1.566h-8c-8.271 0-15 6.729-15 15v6.026c-1.207.913-2 2.347-2 3.974 0 2.757 2.243 5 5 5h1.051c.289 3.773 2.193 7.093 5.024 9.281.109.093.221.181.344.257 1.346.971 2.881 1.688 4.542 2.088l-3.046 3.046c-.582.581-.915 1.385-.915 2.207 0 1.271.766 2.362 1.858 2.849l-.53.53c-.856.856-1.328 1.995-1.328 3.207 0 2.318 1.753 4.213 4 4.481v4.054h14v-1c0-2.795-.924-5.565-2.601-7.8l-.302-.403 1.393-4.873.181-.181c.857-.857 1.329-1.996 1.329-3.208 0-1.482-.724-2.787-1.826-3.615.672-.293 1.314-.643 1.922-1.041.301 1.916 1.377 3.638 3.022 4.734l1.202.802c1.052.701 1.68 1.875 1.68 3.14 0 .747-.219 1.471-.635 2.094l-.166.25c-.784 1.175-1.199 2.545-1.199 3.96 0 3.938 3.203 7.141 7.141 7.141h6.479l-1.151-2.299c-.307-.613-.469-1.3-.469-1.984 0-1.388.663-2.714 1.774-3.547 1.394-1.046 2.226-2.71 2.226-4.453v-.639c0-.86-.203-1.722-.588-2.489zm-46.382-19.525c0-1.654 1.346-3 3-3h1v2.132l-1.445-.964-1.109 1.664 2.554 1.703v1.465h-1c-1.654 0-3-1.346-3-3zm4-5.937v.937h-1c-.342 0-.677.035-1 .101v-5.101c0-7.168 5.832-13 13-13h8c7.168 0 13 5.832 13 13v5.101c-.323-.066-.658-.101-1-.101h-1v-2.917c0-4.016-2.875-7.409-6.836-8.069l-.328 1.973c2.992.498 5.164 3.062 5.164 6.096v.457c-1.063-.954-2.462-1.54-4-1.54h-12c-3.309 0-6-2.691-6-6h-2c0 .893.154 1.75.425 2.553l-.025.01c-2.672 1.069-4.4 3.621-4.4 6.5zm27 12.937c-.552 0-1-.448-1-1s.448-1 1-1c.376 0 .709.223.878.549-.057.404-.137.8-.237 1.188-.18.157-.398.263-.641.263zm3-5.465 2.555-1.703-1.109-1.664-1.446.964v-2.132h1c1.654 0 3 1.346 3 3s-1.346 3-3 3h-1zm-28 2.465v-9.938c0-2.057 1.233-3.879 3.143-4.643l.157-.063c1.429 2.191 3.896 3.644 6.7 3.644h12c2.206 0 4 1.794 4 4v6.178c-.316-.113-.653-.178-1-.178-1.654 0-3 1.346-3 3 0 1.584 1.238 2.872 2.796 2.979-1.821 3.568-5.524 6.021-9.796 6.021h-4c-1.417 0-2.768-.279-4.014-.769.617-.55 1.014-1.341 1.014-2.231 0-1.654-1.346-3-3-3-1.191 0-2.213.702-2.697 1.71-1.438-1.859-2.303-4.183-2.303-6.71zm19.258 17.328-2.258 2.258-3.586-3.586 2.258-2.258c.478-.478 1.115-.742 1.793-.742 1.397 0 2.535 1.138 2.535 2.535 0 .678-.264 1.315-.742 1.793zm-14.976-8.637c-.173-.18-.282-.422-.282-.691 0-.552.448-1 1-1s1 .448 1 1-.448 1-1 1c-.23 0-.432-.091-.6-.221-.039-.03-.079-.058-.118-.088zm2.839 10.309c-.618 0-1.121-.503-1.121-1.121 0-.295.119-.584.328-.793l3.758-3.758c.209-.209.498-.328.793-.328.618 0 1.121.503 1.121 1.121 0 .295-.119.584-.328.793l-3.758 3.758c-.209.209-.498.328-.793.328zm-1.121 5.465c0-.678.264-1.314.742-1.793l5.258-5.258 3.586 3.586-5.258 5.258c-.478.478-1.115.742-1.793.742-1.397 0-2.535-1.138-2.535-2.535zm11.8.935c1.219 1.623 1.967 3.581 2.153 5.6h-9.953v-2.261c.646-.221 1.245-.57 1.742-1.068l5.836-5.836-.676 2.367zm22.2-4.683c0 1.117-.533 2.184-1.426 2.854-1.612 1.208-2.574 3.132-2.574 5.146 0 .777.144 1.556.419 2.283h-3.278c-2.835 0-5.141-2.306-5.141-5.141 0-1.019.299-2.005.864-2.853l.166-.25c.635-.952.97-2.06.97-3.202 0-1.936-.961-3.731-2.571-4.804l-1.202-.802c-1.395-.928-2.227-2.484-2.227-4.159v-.43c2.234-2.149 3.698-5.084 3.949-8.359h1.051c2.757 0 5-2.243 5-5 0-1.627-.793-3.061-2-3.974v-6.026c0-5.032-2.499-9.483-6.312-12.205 1.128-.513 2.364-.795 3.604-.795 4.802 0 8.708 3.906 8.708 8.708 0 .785-.086 1.571-.257 2.336l-1.555 6.998c-.125.563-.188 1.142-.188 1.718 0 2.356 1.038 4.573 2.849 6.083l.657.548c1.585 1.32 2.494 3.261 2.494 5.324 0 1.852-.721 3.592-2.03 4.901l-.325.325c-1.061 1.061-1.645 2.47-1.645 3.97 0 .867.205 1.735.593 2.51l1.03 2.063c.247.492.377 1.043.377 1.594z"/><path d="m43.791 12.611c.139-.625.209-1.264.209-1.903 0-2.465-1.351-4.727-3.524-5.903l-.951 1.76c1.527.826 2.475 2.414 2.475 4.143 0 .492-.055.986-.162 1.469l-.801 3.606 1.953.434z"/><path d="m46.557 37.202c.93-.932 1.443-2.171 1.443-3.487 0-1.467-.646-2.848-1.774-3.789l-.81-.677-1.32 1.502.849.711c.67.559 1.055 1.381 1.055 2.253 0 .782-.305 1.519-.858 2.073l-.325.325c-1.577 1.577-2.533 3.576-2.764 5.782l1.988.209c.184-1.745.94-3.328 2.189-4.577z"/><path d="m37.648 40.423-1.201-.8c-.094-.063-.176-.14-.243-.228l-1.592 1.209c.201.266.444.494.725.682l1.202.801c2.167 1.444 3.461 3.862 3.461 6.468 0 1.057-.21 2.083-.624 3.053l1.84.785c.52-1.219.784-2.51.784-3.838 0-3.276-1.627-6.316-4.352-8.132z"/></g></svg>