<?xml version="1.0"?>
<svg xmlns="http://www.w3.org/2000/svg" id="Line_Expand" data-name="Line Expand" viewBox="0 0 64 64" width="512" height="512"><path d="M37.5527,23.3945l3,1.5a1,1,0,0,0,.8946-1.789L40.2358,22.5l1.2115-.6055a1,1,0,1,0-.8946-1.789l-3,1.5a1,1,0,0,0,0,1.789Z"/><path d="M30.4473,21.6055l-3-1.5a1,1,0,1,0-.8946,1.789l1.2115.6055-1.2115.6055a1,1,0,0,0,.8946,1.789l3-1.5a1,1,0,0,0,0-1.789Z"/><path d="M20.0005,42a.9938.9938,0,0,0,.65-.2412l7-6a1,1,0,1,0-1.3018-1.5176l-7,6A1,1,0,0,0,20.0005,42Z"/><path d="M51.6978,40.8936l-2.09-.5226a10.9022,10.9022,0,0,0,1.98-7.7353l-1.9824-15.86a15.7259,15.7259,0,0,0-31.209,0l-1.9824,15.86a11.0014,11.0014,0,0,0,.0422,2.994L9.38,41.2148a1.0005,1.0005,0,0,0-.2124,1.34l1.4585,2.1875a6.87,6.87,0,0,0,.7.8793A6.7832,6.7832,0,0,0,11,47.6846V59a1,1,0,0,0,1,1H56a1,1,0,0,0,1-1V47.6846A6.99,6.99,0,0,0,51.6978,40.8936Zm-33.3-8.01,1.9824-15.86a13.7261,13.7261,0,0,1,27.24,0l1.9824,15.86a8.9322,8.9322,0,0,1-2.1177,6.9567L41,38.22V35.7368A11.97,11.97,0,0,0,46,26V19a3.0033,3.0033,0,0,0-3-3h-4.19a7.1168,7.1168,0,0,1-5.4814-2.5664,5.765,5.765,0,0,0-7.2983-1.3174A8.0172,8.0172,0,0,0,22,19.0625V26a11.8264,11.8264,0,0,0,.9167,4.5287l-4.5821,3.6174A9.0361,9.0361,0,0,1,18.3975,32.8838ZM38,43.9769V42a4.9987,4.9987,0,0,0-2.2112-4.1475A11.9315,11.9315,0,0,0,39,36.8955V41A4.9537,4.9537,0,0,1,38,43.9769ZM30,46V42a3,3,0,0,1,6,0v4a3,3,0,0,1-6,0Zm5.5963-17.0566a6.1424,6.1424,0,0,0-8.9048-1.3946l-2.14,1.6894A9.8244,9.8244,0,0,1,24,26V19.0625a6.0129,6.0129,0,0,1,3.0229-5.21,3.7671,3.7671,0,0,1,4.77.8614A9.1142,9.1142,0,0,0,38.8105,18H43a1.0009,1.0009,0,0,1,1,1v7a9.98,9.98,0,0,1-8.06,9.7861l.49-1.8193A6.1418,6.1418,0,0,0,35.5963,28.9434Zm-7.6656.1757a4.1405,4.1405,0,0,1,6.0054.9405,4.1393,4.1393,0,0,1,.5615,3.3877l-.9706,3.606A4.8751,4.8751,0,0,0,33,37a5.0059,5.0059,0,0,0-5,5v4a4.982,4.982,0,0,0,2.0392,4.0069l-.523,1.9433L25.38,47.2979a6.8122,6.8122,0,0,0-7.4409-1.8428,4.7524,4.7524,0,0,1-5.6484-1.8223l-.9468-1.42ZM13,47.6846a4.6557,4.6557,0,0,1,.0776-.7218,6.7487,6.7487,0,0,0,5.5641.3653,4.8,4.8,0,0,1,5.2431,1.2979l5.3677,6.0381A.9984.9984,0,0,0,30,55a1.0241,1.0241,0,0,0,.23-.0264,1.0013,1.0013,0,0,0,.7359-.7138l.7633-2.8354L35.3157,58H21V53a1,1,0,0,0-2,0v5H13ZM37.5938,58,33.735,50.9257a4.9929,4.9929,0,0,0,4.1272-3.8036C41.7029,52.2057,44.57,56.0192,46.042,58ZM55,58H49V53a1,1,0,0,0-2,0v2.9408c-.6523-.88-6.2864-8.3632-7.7682-10.3247A6.9558,6.9558,0,0,0,41,41v-.72L51.2124,42.833A4.9946,4.9946,0,0,1,55,47.6846Z"/><path d="M12,29a1,1,0,0,0-1-1H7a1,1,0,0,0,0,2h4A1,1,0,0,0,12,29Z"/><path d="M12.8945,32.5527a1,1,0,0,0-1.3418-.4472l-4,2a1,1,0,0,0,.8946,1.789l4-2A1,1,0,0,0,12.8945,32.5527Z"/></svg>
