<svg id="Layer_1" enable-background="new 0 0 1580 1580" height="512" viewBox="0 0 1580 1580" width="512" xmlns="http://www.w3.org/2000/svg"><g><g><g><g><path d="m824.4 778.3c-18.3 0-36.3-4.6-52.5-13.7-28.8-16.1-48.4-44-53.8-76.5-6.7-40.2-29.6-75.4-62.9-96.4l-396-250.2c-11.2-7.1-14.6-21.9-7.5-33.1s21.9-14.6 33.1-7.5l396 250.2c44.8 28.3 75.7 75.4 84.6 129.1 3 18.1 13.9 33.6 30 42.6 27 15.1 61.6 6.9 78.9-18.8 4.1-6 7-12.6 8.6-19.5 6.8-28.3 22.4-52.9 45-71.2 5.5-4.5 10.2-9.9 13.9-16.2 15.7-26.6 8.3-61.5-16.9-79.4-17.4-12.3-39.5-14.6-59-6-39.7 17.5-84.8 14.4-120.7-8.3l-420.5-265.7c-11.2-7.1-14.6-21.9-7.5-33.1s21.9-14.6 33.1-7.5l420.5 265.7c22.4 14.1 50.6 16 75.7 4.9 35.1-15.5 74.8-11.5 106.1 10.7 22.1 15.6 37.4 38.9 43.1 65.5s1.2 54.1-12.5 77.4c-6.6 11.2-15 21-25 29.1-14.4 11.6-24.2 27.3-28.6 45.3-3 12.5-8.2 24.3-15.5 35.1-15.1 22.4-38 38.2-64.5 44.5-8.3 2-16.8 3-25.2 3z" fill="rgb(0,0,0)"/></g><g><path d="m859.2 1465.7c-1.3 0-2.7-.1-4-.3-13.1-2.2-21.9-14.6-19.6-27.7l48.8-287.6c11-66.4 44.6-126.1 94.4-168.1l.3-.3c5.6-4.8 8.8-11.6 8.9-19 .1-7.6-3-14.6-8.6-19.6l-52.1-46.8c-5.1-4.5-11.3-7.1-17.6-7.1-18-.1-35.7-5.1-51.1-14.5-6.6-4-14-6.6-21.9-7.5-28-3.4-54.4 15.6-60.1 43.3-3.4 16.6 1 33.5 11.9 46.4 31.9 37.5 45.5 87.6 37.2 137.5l-56.3 332.6c-2.2 13.1-14.6 21.9-27.7 19.7s-21.9-14.6-19.7-27.7l56.2-332.5c6-35.8-3.7-71.7-26.4-98.5-20.6-24.2-28.7-55.9-22.4-87.1 10.6-52.1 60.2-87.8 112.9-81.3 14.7 1.8 28.5 6.6 41 14.2 8 4.9 17.1 7.5 26.4 7.5 18 .1 35.6 7 49.4 19.4l52 46.8c15.8 14.2 24.8 34.6 24.5 55.9-.3 21.2-9.6 41.2-25.7 54.9l-.5.4c-41.2 34.7-68.9 84.1-78.1 139.4l-48.8 287.7c-1.7 11.6-11.8 19.9-23.3 19.9z" fill="rgb(0,0,0)"/></g><path d="m1094.6 841.2c-1.3 0-2.7 0-4-.1l-91.4-6c-21.1-1.4-39.3-13.5-48.8-32.3-9.5-18.9-8.4-40.7 3.1-58.5l39.6-61.6c10.4-16.1 28-26.2 47.2-27s37.6 7.8 49.2 23c15.6 20.4 34.7 45.2 51.9 67.5 14.3 18.6 16.3 43 5.2 63.7-10.6 19.6-30.2 31.3-52 31.3zm-52-137.5c-.2 0-.3 0-.5 0-2.1.1-6.1.9-8.8 5l-39.6 61.6c-3 4.6-1.6 8.8-.6 10.9 1.1 2.1 3.6 5.7 9.1 6l91.4 6c6.4.4 9.4-3.9 10.4-5.8s2.9-6.8-1-11.9c-17.2-22.4-36.2-47.2-51.8-67.5-2.7-3.7-6.4-4.3-8.6-4.3z" fill="rgb(0,0,0)"/></g><g fill="rgb(0,0,0)"><path d="m1074.4 1558c-1.6 0-3.1-.2-4.7-.5-13-2.6-21.4-15.2-18.8-28.2l139.4-695.8c29-145-36.2-294.3-162.3-371.6l-646.1-395.5c-11.3-6.9-14.9-21.7-7.9-33 6.9-11.3 21.7-14.9 33-7.9l645.9 395.5c70.6 43.2 125.4 106.1 158.5 182s42.1 158.8 25.8 240l-139.3 695.7c-2.3 11.4-12.3 19.3-23.5 19.3z"/><path d="m543.2 1486.2c-2.5 0-5.1-.4-7.7-1.3-12.6-4.2-19.3-17.9-15.1-30.4.8-2.4 82.1-246.1 57.5-372.3-11.8-60.1-2.7-129.6 27-206.7 11.6-30.2 24.2-55.5 33.5-72.7-82-34.9-159.5-73.4-230.8-114.8-63-36.5-121.3-75.3-173.3-115.3-89.3-68.5-129.1-116.8-130.7-118.8-8.4-10.3-6.8-25.4 3.4-33.8 10.3-8.4 25.4-6.8 33.8 3.4.9 1.1 39.6 47.5 124.6 112.6 79 60.6 215.5 150.2 416.6 233 6.6 2.7 11.6 8.2 13.8 15 2.1 6.8 1.2 14.2-2.7 20.2-.9 1.4-92.1 146-68 268.8 27 138.6-55.6 386.3-59.2 396.8-3.3 10-12.7 16.3-22.7 16.3z"/></g></g><g fill="rgb(0,0,0)"><path d="m1321.8 640.9c-10 0-19.4-6.4-22.8-16.4-4.2-12.6 2.6-26.2 15.2-30.4l123.6-41.1c12.6-4.2 26.2 2.6 30.4 15.2s-2.6 26.2-15.2 30.4l-123.6 41.1c-2.5.8-5.1 1.2-7.6 1.2z"/><path d="m1281 550.8c-7 0-13.9-3-18.7-8.9-8.3-10.3-6.7-25.4 3.6-33.8l101.3-81.9c10.3-8.3 25.4-6.7 33.8 3.6 8.3 10.3 6.7 25.4-3.6 33.8l-101.3 81.9c-4.5 3.6-9.8 5.3-15.1 5.3z"/><path d="m1457.8 755.9c-.8 0-1.7 0-2.6-.1l-129.4-13.8c-13.2-1.4-22.7-13.2-21.3-26.4s13.2-22.7 26.4-21.3l129.4 13.7c13.2 1.4 22.7 13.2 21.3 26.4-1.2 12.3-11.6 21.5-23.8 21.5z"/></g></g></svg>