<?xml version="1.0" encoding="UTF-8"?>
<svg xmlns="http://www.w3.org/2000/svg" xmlns:xlink="http://www.w3.org/1999/xlink" version="1.1" id="Capa_1" x="0px" y="0px" viewBox="0 0 512 512" style="enable-background:new 0 0 512 512;" xml:space="preserve" width="512" height="512">
<g>
	<path style="fill:none;stroke:#000000;stroke-width:15;stroke-linecap:round;stroke-linejoin:round;stroke-miterlimit:10;" d="&#10;&#9;&#9;M151.69,185.24v-0.01c0.44-28.29,3.68-52.57,11.56-66.92c37.93-69.1,197.03-69.1,234.96,0c23.93,43.59,5.09,178.95-4.94,239.41"/>
	<path style="fill:none;stroke:#000000;stroke-width:15;stroke-linecap:round;stroke-linejoin:round;stroke-miterlimit:10;" d="&#10;&#9;&#9;M156.29,270.52c3.49,33.62,8.27,65.32,11.9,87.2"/>
	<path style="fill:none;stroke:#000000;stroke-width:15;stroke-linecap:round;stroke-linejoin:round;stroke-miterlimit:10;" d="&#10;&#9;&#9;M73.83,291.79l83.082-113.699c5.29-7.24,13.519-11.08,21.839-11.08c5.53,0,11.11,1.697,15.91,5.207&#10;&#9;&#9;c12.05,8.8,14.668,25.702,5.878,37.752L98.05,350.21c-2.28,3.12-0.05,7.51,3.82,7.51h146.55"/>
	<path style="fill:none;stroke:#000000;stroke-width:15;stroke-linecap:round;stroke-linejoin:round;stroke-miterlimit:10;" d="&#10;&#9;&#9;M313.04,357.72h92.92c22.62,0,40.96,18.34,40.96,40.96v40.23"/>
	<path style="fill:none;stroke:#000000;stroke-width:15;stroke-linecap:round;stroke-linejoin:round;stroke-miterlimit:10;" d="&#10;&#9;&#9;M53.191,320.024l-23.325,31.917c-18.159,24.848-0.412,59.797,30.364,59.797h88.591c3.335,0,6.038,2.703,6.038,6.038v78.142&#10;&#9;&#9;c0,4.739,3.842,8.581,8.581,8.581h274.902c4.739,0,8.581-3.842,8.581-8.581v-22.006"/>
	
		<line style="fill:none;stroke:#000000;stroke-width:15;stroke-linecap:round;stroke-linejoin:round;stroke-miterlimit:10;" x1="401.516" y1="504.5" x2="401.516" y2="430.235"/>
	<path style="fill:none;stroke:#000000;stroke-width:15;stroke-linecap:round;stroke-linejoin:round;stroke-miterlimit:10;" d="&#10;&#9;&#9;M309.82,320.88v33.63c0,1.77,1.44,3.21,3.22,3.21h13.7c-3.22,16.78-22.59,29.68-46.01,29.68c-23.42,0-42.79-12.9-46.01-29.68h13.7&#10;&#9;&#9;c1.78,0,3.22-1.44,3.22-3.21v-33.63"/>
	<path style="fill:none;stroke:#000000;stroke-width:15;stroke-linecap:round;stroke-linejoin:round;stroke-miterlimit:10;" d="&#10;&#9;&#9;M195.99,173.26c1.49-8.48,3.17-16.37,5.01-23.09c1.46-5.34,6.32-9.04,11.86-9.04h29.32c2.11,0,4.18,0.5,6.04,1.49&#10;&#9;&#9;c26.53,14.09,66.47,22.7,103.01,24.07c7.78,0.29,14.22,6.08,15.43,13.77c3.55,22.53,5.7,47.82,5.7,65.7&#10;&#9;&#9;c0,63.74-41.02,76.59-91.63,76.59s-91.63-12.85-91.63-76.59c0-6.41,0.28-13.77,0.79-21.62"/>
	<path style="fill:none;stroke:#000000;stroke-width:15;stroke-linecap:round;stroke-linejoin:round;stroke-miterlimit:10;" d="&#10;&#9;&#9;M259.399,280.752c12.949-13.741,29.714-13.741,42.663,0"/>
	<path style="fill:none;stroke:#000000;stroke-width:15;stroke-linecap:round;stroke-linejoin:round;stroke-miterlimit:10;" d="&#10;&#9;&#9;M301.946,195.903c11.561,6.847,23.122,6.847,34.682,0"/>
	<path style="fill:none;stroke:#000000;stroke-width:15;stroke-linecap:round;stroke-linejoin:round;stroke-miterlimit:10;" d="&#10;&#9;&#9;M224.832,195.903c11.561,6.847,23.122,6.847,34.682,0"/>
	<g>
		
			<line style="fill:none;stroke:#000000;stroke-width:15;stroke-linecap:round;stroke-linejoin:round;stroke-miterlimit:10;" x1="472.962" y1="114.493" x2="472.962" y2="97.162"/>
		
			<line style="fill:none;stroke:#000000;stroke-width:15;stroke-linecap:round;stroke-linejoin:round;stroke-miterlimit:10;" x1="472.962" y1="114.493" x2="456.479" y2="109.138"/>
		
			<line style="fill:none;stroke:#000000;stroke-width:15;stroke-linecap:round;stroke-linejoin:round;stroke-miterlimit:10;" x1="472.962" y1="114.493" x2="462.774" y2="128.515"/>
		
			<line style="fill:none;stroke:#000000;stroke-width:15;stroke-linecap:round;stroke-linejoin:round;stroke-miterlimit:10;" x1="472.962" y1="114.493" x2="483.149" y2="128.515"/>
		
			<line style="fill:none;stroke:#000000;stroke-width:15;stroke-linecap:round;stroke-linejoin:round;stroke-miterlimit:10;" x1="472.962" y1="114.493" x2="489.444" y2="109.138"/>
	</g>
	<g>
		
			<line style="fill:none;stroke:#000000;stroke-width:15;stroke-linecap:round;stroke-linejoin:round;stroke-miterlimit:10;" x1="106.208" y1="43.122" x2="106.208" y2="25.791"/>
		
			<line style="fill:none;stroke:#000000;stroke-width:15;stroke-linecap:round;stroke-linejoin:round;stroke-miterlimit:10;" x1="106.208" y1="43.122" x2="89.725" y2="37.767"/>
		
			<line style="fill:none;stroke:#000000;stroke-width:15;stroke-linecap:round;stroke-linejoin:round;stroke-miterlimit:10;" x1="106.208" y1="43.122" x2="96.021" y2="57.144"/>
		
			<line style="fill:none;stroke:#000000;stroke-width:15;stroke-linecap:round;stroke-linejoin:round;stroke-miterlimit:10;" x1="106.208" y1="43.122" x2="116.395" y2="57.144"/>
		
			<line style="fill:none;stroke:#000000;stroke-width:15;stroke-linecap:round;stroke-linejoin:round;stroke-miterlimit:10;" x1="106.208" y1="43.122" x2="122.691" y2="37.767"/>
	</g>
	
		<line style="fill:none;stroke:#000000;stroke-width:15;stroke-linecap:round;stroke-linejoin:round;stroke-miterlimit:10;" x1="310.898" y1="226.787" x2="327.677" y2="243.566"/>
	
		<line style="fill:none;stroke:#000000;stroke-width:15;stroke-linecap:round;stroke-linejoin:round;stroke-miterlimit:10;" x1="327.677" y1="226.787" x2="310.898" y2="243.566"/>
	
		<line style="fill:none;stroke:#000000;stroke-width:15;stroke-linecap:round;stroke-linejoin:round;stroke-miterlimit:10;" x1="233.784" y1="226.787" x2="250.563" y2="243.566"/>
	
		<line style="fill:none;stroke:#000000;stroke-width:15;stroke-linecap:round;stroke-linejoin:round;stroke-miterlimit:10;" x1="250.563" y1="226.787" x2="233.784" y2="243.566"/>
	<path style="fill:none;stroke:#000000;stroke-width:15;stroke-linecap:round;stroke-linejoin:round;stroke-miterlimit:10;" d="&#10;&#9;&#9;M124.491,314.032l76.047-104.062c8.796-12.046,6.168-28.946-5.878-37.752c-4.805-3.508-10.385-5.207-15.91-5.207&#10;&#9;&#9;c-8.324,0-16.551,3.84-21.839,11.08L80.2,283.066"/>
	
		<line style="fill:none;stroke:#000000;stroke-width:15;stroke-linecap:round;stroke-linejoin:round;stroke-miterlimit:10;" x1="135.607" y1="207.251" x2="179.224" y2="239.127"/>
	<path style="fill:none;stroke:#000000;stroke-width:15;stroke-linecap:round;stroke-linejoin:round;stroke-miterlimit:10;" d="&#10;&#9;&#9;M429.809,58.77c-20.886-37.241-98.766-59.044-173.95-48.699c-60.147,8.277-95.36,39.138-78.651,68.931&#10;&#9;&#9;c13.367,23.834,63.21,37.788,111.328,31.167c38.494-5.297,61.031-25.048,50.337-44.116c-8.555-15.254-40.455-24.185-71.25-19.947&#10;&#9;&#9;c-24.636,3.39-39.06,16.031-32.216,28.234c5.475,9.763,25.891,15.478,45.6,12.766"/>
</g>















</svg>
