<svg height="512" viewBox="0 0 64 64" width="512" xmlns="http://www.w3.org/2000/svg"><g id="Image"><g><path d="m62 58h-9.519c.809-1.726.543-4.106.097-5.951.272-.391.369-.71.395-.819.041-.175.034-.358-.02-.529-.137-.437-3.378-10.736-5.132-13.27-1.933-2.792-6.74-3.519-9.525-4.386-.529-.164-1.088.131-1.252.658s.131 1.088.658 1.252c2.597.807 7.037 1.538 8.475 3.614 1.259 1.818 3.744 9.189 4.747 12.347-.403.547-2.08 2.017-8.117 1.191l-.838-3.351c-.134-.535-.679-.864-1.212-.728-.536.134-.862.677-.728 1.213l1 4c.097.39.418.683.815.745 2.759.432 6.473.693 8.987-.525.094.514.169 1.071.169 1.539 0 2.033-.299 3-2 3h-22.961c.295-3.861 2.616-4 11.961-4 .553 0 1-.448 1-1s-.447-1-1-1c-9.125 0-13.534.012-13.958 6h-4.018c1.275-1.376 1.976-3.417 1.976-6v-16c0-1.111.292-1.412.733-1.867.536-.551 1.267-1.305 1.267-3.133 0-3.449-2.924-5-5-5-3.463 0-4.189 3.376-4.624 5.394-.36 1.666-2.259 7.269-2.371 19.606h-3.988c.188-5.574 1.896-12.293 4.562-14.184.451-.32.557-.944.237-1.395-.318-.451-.945-.556-1.394-.237-3.95 2.801-5.422 11.801-5.422 16.816 0 .552.447 1 1 1h.036c.16 2.166.873 3.828 2.076 5h-7.112c-.553 0-1 .448-1 1s.447 1 1 1h60c.553 0 1-.448 1-1s-.447-1-1-1zm-52.958-5h3.958c.553 0 1-.448 1-1 0-10.092 1.423-17.212 1.941-18.664.669-1.872.614-5.336 3.059-5.336.778 0 3 .551 3 3 0 1.017-.265 1.289-.702 1.74-.548.565-1.298 1.339-1.298 3.26v16c0 2.737-.867 6-5 6-3.744 0-5.659-1.595-5.958-5z"/><path d="m16.877 24.968c.539.064 1.035-.328 1.117-.863.253-1.63 4.955-6.942 12.023-4.44 1.314.466 2.158.591 3.738-.325.517.776 1.245 2.139 1.245 3.66 0 1.314-.24 2.147-.715 3.45-.779-.956-2.31-2.45-4.285-2.45-1.104 0-1.779.363-2.374.684-.817.441-1.663.896-4.428.336-1.285-.27-1.703 1.696-.396 1.96 3.475.704 4.748.017 5.772-.535.497-.268.826-.445 1.426-.445 1.425 0 2.756 1.642 3.147 2.273.148.242.405.412.685.463.267.049 1.137.287 1.137 1.295 0 1.334-.988 2.153-1.023 2.182-.22.172-.357.429-.38.708-.024.289-.63 7.079-5.566 7.079-1.688 0-2.836-.546-3.502-1.004-.453-.313-1.076-.198-1.391.257-.313.455-.197 1.078.258 1.391.9.618 2.434 1.356 4.635 1.356 5.205 0 7.157-5.367 7.521-8.529.521-.536 1.447-1.73 1.447-3.439 0-1.087-.441-1.845-1.001-2.364.644-1.733 1.033-2.838 1.033-4.668 0-2.068-1.863-6.989-3.565-5.825-1.519 1.04-1.755.956-2.749.604-.876-.31-2.2-.779-4.686-.779-6.005 0-9.823 5.183-9.995 6.9-.054.539.334.999.872 1.068z"/><path d="m61 7-1 .001v-1.001c0-1.103-.897-2-2-2h-18c-1.103 0-2 .897-2 2v10c0 1.103.897 2 2 2h18c1.103 0 2-.897 2-2v-1h1c1.103 0 2-.897 2-2v-4c0-1.103-.897-2-2-2zm0 6h-1c-1.103 0-2 .897-2 2v1h-18v-10h18v1c0 1.103.897 2 2 2h1z"/><path d="m43 8c-.553 0-1 .448-1 1v4c0 .552.447 1 1 1s1-.448 1-1v-4c0-.552-.447-1-1-1z"/></g></g></svg>