<svg id="Capa_1" enable-background="new 0 0 510.754 510.754" height="512" viewBox="0 0 510.754 510.754" width="512" xmlns="http://www.w3.org/2000/svg"><g><g transform="translate(-2429 3233)"><path id="infected" clip-rule="evenodd" d="m2633.812-2730.679c4.073 5.369 12.071 8.434 18.686 8.434h16.929c13.766 0 24.915-11.149 24.915-24.915v-104.48c0-3.438-2.79-6.229-6.229-6.229-3.438 0-6.229 2.791-6.229 6.229v104.48c0 6.876-5.569 12.458-12.458 12.458-5.469 0-11.461 0-16.929 0-3.314 0-6.478-1.308-8.807-3.65-2.342-2.342-3.65-5.506-3.65-8.808 0-37.497 0-118.345 0-118.345 0-3.438-2.79-6.229-6.229-6.229s-6.229 2.791-6.229 6.229v118.345c0 6.876-5.581 12.458-12.458 12.458h-16.942c-6.876 0-12.458-5.581-12.458-12.458v-292.749c0-3.438-2.79-6.229-6.229-6.229-3.438 0-6.229 2.791-6.229 6.229v292.749c0 13.766 11.162 24.915 24.915 24.915h16.942c7.44-.001 14.117-3.265 18.689-8.434zm74.633-360.618 4.709 30.184c-22.112 4.248-45.469 23.283-56.519 42.43l-11.274-5.718.947-1.794c1.594-3.052.424-6.814-2.628-8.409-3.04-1.607-6.802-.423-8.409 2.616l-7.636 14.55c-1.594 3.052-.424 6.814 2.628 8.409 3.04 1.607 6.802.424 8.409-2.616l.909-1.731 11.585 5.88c-4.335 10.676-6.727 22.374-6.727 34.632 0 16.232 4.186 31.455 11.523 44.635l-21.975 14.824-.909-1.719c-1.62-3.027-5.394-4.186-8.421-2.566-3.04 1.607-4.186 5.394-2.579 8.421l8.733 16.394c1.607 3.027 5.382 4.186 8.421 2.566 3.027-1.62 4.186-5.394 2.566-8.421l-1.919-3.613 22.872-15.447c5.394 7.163 11.797 13.491 19.022 18.736-1.345.436-2.554 1.321-3.363 2.604-1.832 2.902-.959 6.752 1.943 8.583l7.312 4.622c2.915 1.844 6.764.972 8.595-1.944.972-1.532 1.184-3.326.748-4.958 9.256 4.236 19.371 6.889 29.985 7.649v27.12h-4.784c-3.438 0-6.229 2.79-6.229 6.229s2.791 6.229 6.229 6.229h22.012c3.438 0 6.229-2.791 6.229-6.229s-2.791-6.229-6.229-6.229h-4.771v-27.12c20.542-1.458 39.191-10.066 53.53-23.408l1.819 1.781-.623.685c-2.33 2.529-2.167 6.478.361 8.795 2.541 2.329 6.478 2.167 8.807-.361l8.87-9.655c2.317-2.529 2.155-6.465-.374-8.795-2.454-2.267-6.254-2.168-8.595.162l-1.744-1.707c5.606-6.876 10.228-14.612 13.666-22.984l18.226 6.279-.748 2.479c-.984 3.289.885 6.764 4.174 7.761s6.764-.872 7.761-4.173l4.946-16.406c.984-3.289-.884-6.764-4.173-7.761-3.289-.984-6.764.885-7.761 4.173l-.598 1.993-17.901-6.179c1.894-7.35 2.902-15.073 2.902-23.046 0-16.22-4.186-31.443-11.523-44.623l20.555-13.865 1.458 2.354c1.806 2.915 5.643 3.824 8.571 2.018 2.927-1.819 3.824-5.656 2.018-8.583l-9.629-15.547c-1.806-2.927-5.643-3.837-8.571-2.018-2.927 1.806-3.824 5.643-2.018 8.571l1.607 2.604-20.779 14.015c-6.64-8.82-14.849-16.369-24.18-22.212l2.329-4.584c2.853 1.046 6.129-.137 7.612-2.903 1.632-3.027.498-6.802-2.529-8.434l-9.605-5.157c-3.027-1.632-6.802-.499-8.434 2.529-1.52 2.84-.623 6.316 1.968 8.097l-2.354 4.609c-10.813-4.796-22.747-7.449-35.267-7.449-.997 0-6.179.212-7.774.349l-4.734-30.371 8.633-1.52c3.388-.598 5.643-3.837 5.045-7.213-.598-3.388-3.824-5.656-7.213-5.058l-29.2 5.157c-3.388.598-5.643 3.837-5.045 7.213.598 3.388 3.824 5.656 7.213 5.058zm-37.908-12.706h-95.81c-30.782 0-55.759 24.99-55.759 55.772v143.572c0 13.766 11.15 24.915 24.915 24.915h11.772c3.438 0 6.229-2.791 6.229-6.229s-2.791-6.229-6.229-6.229c0 0-5.469 0-11.772 0-6.889 0-12.458-5.581-12.458-12.458v-143.572c0-23.906 19.396-43.314 43.302-43.314h95.81c3.451 0 6.229-2.791 6.229-6.229s-2.779-6.228-6.229-6.228zm62.685 53.019c-42.891 0-76.327 43.177-76.327 78.12 0 43.09 34.158 78.12 76.327 78.12 42.156 0 76.314-35.03 76.314-78.12 0-43.078-35.927-78.12-76.314-78.12zm11 100.02c-11 0-19.982 9.044-19.982 20.281 0 11.236 8.982 20.281 19.982 20.281s19.982-9.044 19.982-20.281-8.982-20.281-19.982-20.281zm0 12.458c4.198 0 7.524 3.538 7.524 7.823s-3.326 7.823-7.524 7.823-7.524-3.538-7.524-7.823c0-4.286 3.326-7.823 7.524-7.823zm-54.912-51.823c-9.542 0-17.354 7.848-17.354 17.603 0 9.741 7.811 17.602 17.354 17.602 9.542 0 17.365-7.861 17.365-17.602.001-9.755-7.823-17.603-17.365-17.603zm0 12.457c2.753 0 4.908 2.342 4.908 5.145s-2.155 5.145-4.908 5.145c-2.741 0-4.896-2.342-4.896-5.145s2.155-5.145 4.896-5.145zm68.665-50.266c-14.7 0-26.708 12.134-26.708 27.157 0 15.036 12.009 27.17 26.708 27.17 14.712 0 26.721-12.134 26.721-27.17 0-15.023-12.008-27.157-26.721-27.157zm0 12.458c7.911 0 14.264 6.627 14.264 14.7 0 8.085-6.353 14.712-14.264 14.712-7.898 0-14.251-6.627-14.251-14.712 0-8.073 6.353-14.7 14.251-14.7zm-124.163-217.32c-33.411 0-60.543 27.132-60.543 60.543s27.132 60.53 60.543 60.53c33.41 0 60.53-27.119 60.53-60.53s-27.119-60.543-60.53-60.543zm0 12.458c26.534 0 48.073 21.539 48.073 48.086 0 26.534-21.539 48.073-48.073 48.073s-48.086-21.539-48.086-48.073c0-26.548 21.552-48.086 48.086-48.086z" fill-rule="evenodd"/></g></g></svg>