<svg id="Layer_1" enable-background="new 0 0 512 512" viewBox="0 0 512 512" xmlns="http://www.w3.org/2000/svg"><path d="m388.56 239.67-79.7-31.1c-5.48-2.14-8.88-7.12-8.88-13v-27.53c0-6 2.24-11.11 6.66-15.17 15.35-14.11 24.15-34.07 24.15-54.77v-8.68c0-41.04-33.39-74.42-74.42-74.42h-19.04c-30.54 0-55.38 24.84-55.38 55.38v16.41l-16.98 26.32c-2.55 3.95-2.73 8.78-.48 12.91s6.4 6.6 11.11 6.6h6.35v17.3c0 11.88 9.66 21.54 21.54 21.54h8.53v24.12c0 5.88-3.4 10.86-8.88 13l-79.7 31.1c-19.59 7.64-31.75 25.45-31.75 46.48v204.84c0 3.31 2.69 6 6 6h316.63c3.31 0 6-2.69 6-6v-204.86c-.01-21.02-12.17-38.83-31.76-46.47zm-284.87 46.47c0-15.97 9.24-29.49 24.12-35.3l79.7-31.1c10.19-3.98 16.52-13.24 16.52-24.18v-30.12c0-3.31-2.69-6-6-6h-14.53c-5.26 0-9.54-4.28-9.54-9.54v-9.06h42.22c7.63 0 13.83 6.2 13.83 13.83v134.9h-39.17c-2.12 0-4.09 1.12-5.17 2.96-1.08 1.83-1.11 4.1-.08 5.96l5.22 9.41c-4.22 5.76-6.44 12.18-6.44 18.81 0 3.61.68 7.11 1.92 10.45-11.27 1.99-19.87 11.85-19.87 23.68v64.25c0 21.84 17.77 39.61 39.61 39.61h6.7v12.55c0 2.79.67 5.42 1.84 7.76h-78.35v-152.48c0-3.31-2.69-6-6-6s-6 2.69-6 6v152.47h-40.53zm135.05 114.36c-3.31 0-6 2.69-6 6v17.51c0 3.11-2.53 5.64-5.64 5.64s-5.64-2.53-5.64-5.64v-41.33c9.73 4.38 21.54 6.79 33.79 6.79.25 0 .51-.01.76-.01v17.04c0 3.11-2.53 5.64-5.64 5.64s-5.64-2.53-5.64-5.64c.01-3.31-2.68-6-5.99-6zm29.27-11.91c3.88-.54 7.66-1.33 11.27-2.36v8.8c0 3.11-2.53 5.64-5.64 5.64s-5.64-2.53-5.64-5.64v-6.44zm18.49 49.8c1.86-2.45 3.34-5.17 4.42-8.08.25-.66.37-1.37.37-2.07v-33.2-17.25c0-2.01-1.01-3.89-2.68-5-1.68-1.11-3.8-1.31-5.65-.53-8.08 3.41-17.66 5.22-27.7 5.22-14.16 0-27.4-3.62-36.32-9.94-1.83-1.29-4.23-1.46-6.22-.43s-3.24 3.09-3.24 5.33v51.59c0 9.73 7.91 17.64 17.64 17.64h19.07c5.3 0 9.61 4.31 9.61 9.6v25.98c0 3.04-2.48 5.52-5.52 5.52s-5.52-2.48-5.52-5.52v-18.55c0-3.31-2.69-6-6-6h-12.7c-15.22 0-27.61-12.38-27.61-27.61v-64.25c0-6.65 5.41-12.05 12.05-12.05h3.08c9.05 9.89 24.05 16.82 41.71 18.17.26.02.51.02.77.01 12.64-.66 24.78-4.27 34.16-10.16 2.04-1.28 4.29-1.29 6.34-.03 3.62 2.23 5.79 6.07 5.79 10.28v63.43c0 6.54-3.05 12.52-8.16 15.99-2.34 1.58-5.32 1.26-7.26-.78-1.97-2.06-2.14-5.06-.43-7.31zm-2.69-91.75c-7.59 4.76-17.52 7.71-28.02 8.32-22.14-1.81-39.43-14.17-39.43-28.25 0-2.2.45-4.39 1.27-6.53 5.85 10.17 16.29 16.23 28.06 16.23h25.92c5.1 0 9.29 1.54 13.18 4.83l3.84 3.25c-1.65.46-3.27 1.18-4.82 2.15zm19.52-5.44-10.78-9.13c-6.01-5.09-13.06-7.67-20.94-7.67h-25.91c-7.63 0-14.14-3.83-17.84-10.5l-6.83-12.32h67.04c8.42 0 15.27 6.85 15.27 15.27v24.35zm104.98 143.8h-40.53v-152.47c0-3.31-2.69-6-6-6s-6 2.69-6 6v152.47h-89.85c1.17-2.34 1.84-4.97 1.84-7.76v-25.98c0-11.91-9.69-21.6-21.61-21.6h-2.37c.6-1.77.94-3.66.94-5.64v-.82c1.77.6 3.66.94 5.64.94 8 0 14.76-5.36 16.91-12.67 1.98.77 4.12 1.21 6.36 1.21 1.97 0 3.86-.34 5.64-.94v15.36c-.62 1.45-1.41 2.81-2.35 4.05-5.25 6.92-4.72 16.51 1.26 22.81 3.45 3.64 8.09 5.52 12.79 5.52 3.43 0 6.89-1.01 9.92-3.07 8.4-5.71 13.42-15.4 13.42-25.92v-63.43c0-2.82-.49-5.55-1.41-8.11 1.5-1.12 2.42-2.88 2.42-4.8v-37.29c0-15.04-12.23-27.27-27.27-27.27h-26.06v-134.9c0-14.24-11.59-25.83-25.83-25.83h-42.22v-2.23c0-3.31-2.69-6-6-6h-12.35c-.3 0-.43-.07-.57-.34s-.14-.41.02-.66l17.94-27.8c.62-.97.96-2.1.96-3.25v-18.2c0-23.92 19.46-43.38 43.38-43.38h19.04c34.42 0 62.42 28 62.42 62.42v8.68c0 17.35-7.39 34.09-20.27 45.93-6.9 6.34-10.54 14.64-10.54 24v27.53c0 10.94 6.33 20.2 16.52 24.18l79.7 31.1c14.88 5.8 24.12 19.33 24.12 35.3v198.86z"/></svg>