<svg id="Layer_1" enable-background="new 0 0 100 100" height="512" viewBox="0 0 100 100" width="512" xmlns="http://www.w3.org/2000/svg"><g><path d="m78.39 10.35-.56-1.47c-.87-2.32-3.12-3.88-5.6-3.88h-44.46c-2.48 0-4.74 1.56-5.61 3.88l-.55 1.46c-4.73 12.49-10.61 28.04-10.61 45.66 0 14.58 2.93 26.06 9.22 36.15 1.12 1.79 3.03 2.85 5.12 2.85h49.33c2.09 0 4-1.07 5.12-2.85 6.28-10.09 9.21-21.58 9.21-36.15 0-17.61-5.88-33.16-10.61-45.65zm-2 79.68c-.38.61-1.03.97-1.72.97h-22.67v-20.17l13.41-13.41c.78-.78.78-2.05 0-2.83s-2.05-.78-2.83 0l-12.58 12.58-12.59-12.58c-.78-.78-2.05-.78-2.83 0s-.78 2.05 0 2.83l13.42 13.41v20.17h-22.67c-.7 0-1.34-.36-1.72-.97-5.87-9.42-8.61-20.24-8.61-34.03 0-16.88 5.74-32.05 10.35-44.24l.55-1.47c.3-.78 1.03-1.29 1.87-1.29h44.46c.84 0 1.57.5 1.87 1.29l.56 1.48c4.6 12.18 10.34 27.35 10.34 44.23 0 13.79-2.74 24.61-8.61 34.03z"/><path d="m62.71 32.13-8.49-3.21 1.76-11.62c.13-.87-.32-1.72-1.1-2.1-.79-.38-1.73-.21-2.33.43l-16 17c-.46.49-.64 1.17-.49 1.82s.62 1.18 1.24 1.42l8.49 3.21-1.77 11.62c-.13.87.32 1.71 1.1 2.1.28.13.58.2.88.2.54 0 1.07-.22 1.46-.63l16-17c.46-.49.64-1.17.49-1.82s-.62-1.18-1.24-1.42zm-13.77 12.83 1.04-6.88c.14-.93-.39-1.84-1.27-2.17l-7.2-2.72 9.55-10.15-1.04 6.89c-.14.93.39 1.84 1.27 2.17l7.2 2.72z"/></g></svg>