<svg height="512" viewBox="0 0 64 64" width="512" xmlns="http://www.w3.org/2000/svg"><g id="Image"><g><path d="m58.949 36.685c-.444-1.34-4.428-13.159-7.327-15.468-1.939-1.542-7.96-4.89-13.557-5.909.244-1.372.937-6.13.937-7.35 0-3.368-1.401-5.575-3.755-5.934-5.914-2.171-8.923-.68-11.468 1.825-2.311 2.277-2.332.64-3.342 1.323-1.427.975.635 5.594 2.492 7.253-.086.918-.069 2.679.917 4.578-3.948 1.319-7.333 3.096-8.941 4.737-2.961 3.032-8.504 11.353-8.738 11.706-.502.755.148 1.313.778 2.001-1.335 2.163-1.945 5.249-1.945 7.553 0 5.046 10.333 9.946 13.461 13.985.464.6.96 1.227 1.539 1.758v3.257c0 .552.447 1 1 1s1-.448 1-1v-2.133c.313.077.639.133 1 .133 1.494 0 4-.649 4-5 0-2.486-8.005-9.915-12.679-12.46l.294-.627c1.053.444 1.462-.848 4.277-2.744.637 2.264 1.108 4.464 1.108 5.831 0 .552.447 1 1 1s1-.448 1-1c0-1.917-.719-4.943-1.593-7.783-.007-.028-.016-.054-.026-.082-.871-2.819-1.888-5.444-2.497-6.601-.257-.488-.863-.676-1.351-.419s-.677.862-.419 1.351c.56 1.065 1.402 3.256 2.159 5.637l-3.337 2.667c-3.09-2.054-5.644-4.712-6.678-5.853 1.371-2.029 5.703-8.349 8.075-10.778 2.727-2.781 11.66-6.139 18.667-6.139 5.692 0 13.307 4.137 15.377 5.782 1.749 1.393 4.771 8.945 6.442 13.843-.804.483-2.795 1.425-7.027 2.28.185-2.758.304-5.803.208-8.936-.019-.552-.488-.991-1.031-.969-.552.017-.985.479-.969 1.03.167 5.377-.315 10.564-.668 14.352-.599 6.445-.192 2.691-.332 17.618 0 .552.447 1 1 1s1-.448 1-1v-7.894c7.604-6.059 8-6.783 8-13.106 0-1.323-2-1.324-2 0 0 5.233-.015 5.741-6 10.547v-2.547c0-1.478.334-4.243.641-8.029 2.223-.427 10.017-2.155 9.308-4.286zm-46.024 4.122c-.107.56-1.764 2.479-.326 3.109 4.602 2.018 12.156 9.652 12.401 11.084 0 3-1.351 3-2 3-1.881 0-2.744-2.408-4.63-4.168-1.785-1.667-11.37-7.572-11.37-10.832 0-1.799.445-4.262 1.392-6.055 1.164 1.15 2.728 2.564 4.533 3.862zm9.18-33.695c3.703-.321 3.748-6.518 12.534-3.18.336.132 2.362.03 2.362 4.026 0 2.813-.505 3.176-.526 3.189-2.314 1.425-6.227 1.127-7.712.948-.395-.977-1.254-2.095-2.763-2.095-.708 0-1.442.378-1.966.724-.811-.853-1.63-2.405-1.929-3.612zm3.71 9.285c-.989-1.677-.962-3.22-.887-3.854 2.38-1.746 1.483 1.196 2.902 1.443 2.457.429 6.033.419 8.513-.559-.081.545-.17 1.107-.262 1.619-3.181-.235-7.195.488-10.266 1.351z"/><path d="m49.832 15.555c1.035-1.935 3.064-3.494 1.723-4.387-1.337-.894-1.959 1.528-3.387 3.277-.741 1.11.945 2.19 1.664 1.11z"/><path d="m14.168 15.555c.305.459.926.584 1.387.277.46-.306.584-.927.277-1.387l-2-3c-.306-.46-.927-.585-1.387-.277-.46.306-.584.927-.277 1.387z"/><path d="m54.707 18.707c1.805-2.142 4.169-3.245 3-4.414s-2.277 1.199-4.414 3c-.937.937.488 2.34 1.414 1.414z"/><path d="m9.293 19.707c.922.922 2.362-.467 1.414-1.414l-3-3c-.391-.391-1.023-.391-1.414 0s-.391 1.023 0 1.414z"/><path d="m30.707 42.293c-.391-.391-1.023-.391-1.414 0l-3 3c-.391.391-.391 1.023 0 1.414.195.195.451.293.707.293s.512-.098.707-.293l3-3c.391-.391.391-1.023 0-1.414z"/><path d="m34.553 48.105-4 2c-.494.247-.694.848-.447 1.342.175.351.528.553.895.553.15 0 .303-.034.446-.105l4-2c.494-.247.694-.848.447-1.342-.248-.494-.847-.695-1.341-.448z"/><path d="m35.242 57.03-4-1c-.537-.138-1.079.192-1.212.728-.135.536.191 1.079.728 1.213l4 1c.081.021.163.03.243.03.448 0 .855-.303.969-.757.134-.537-.192-1.08-.728-1.214z"/></g></g></svg>