<?xml version="1.0" encoding="UTF-8"?>
<svg xmlns="http://www.w3.org/2000/svg" xmlns:xlink="http://www.w3.org/1999/xlink" version="1.1" id="Capa_1" x="0px" y="0px" viewBox="0 0 512 512" style="enable-background:new 0 0 512 512;" xml:space="preserve" width="512" height="512">
<g>
	<path style="fill:none;stroke:#000000;stroke-width:15;stroke-linecap:round;stroke-linejoin:round;stroke-miterlimit:10;" d="&#10;&#9;&#9;M262.638,87.625H311c33.137,0,60,26.863,60,60v56.015c0,10.946,3.454,21.614,9.871,30.482L381,234.3v55.828&#10;&#9;&#9;c0,26.119-11.669,50.873-31.816,67.495l-45.236,37.32c-8.957,7.39-20.207,11.431-31.819,11.431h-32.256&#10;&#9;&#9;c-11.612,0-22.862-4.042-31.819-11.431l-45.236-37.32C142.669,341.002,131,316.248,131,290.128V234.3l0.129-0.178&#10;&#9;&#9;c6.417-8.868,9.871-19.536,9.871-30.482v-56.015c0-33.137,26.863-60,60-60h26.638"/>
	<path style="fill:none;stroke:#000000;stroke-width:15;stroke-linecap:round;stroke-linejoin:round;stroke-miterlimit:10;" d="&#10;&#9;&#9;M238.323,290.36c11.784,4.384,23.569,4.384,35.353,0"/>
	<g>
		<path style="fill:none;stroke:#000000;stroke-width:15;stroke-linecap:round;stroke-linejoin:round;stroke-miterlimit:10;" d="&#10;&#9;&#9;&#9;M344.355,206.523c-18.372-5.723-39.965-10.1-60.577,0"/>
		<path style="fill:none;stroke:#000000;stroke-width:15;stroke-linecap:round;stroke-linejoin:round;stroke-miterlimit:10;" d="&#10;&#9;&#9;&#9;M170.755,206.523c18.372-5.723,39.965-10.1,60.577,0"/>
	</g>
	<g>
		<path style="fill:none;stroke:#000000;stroke-width:15;stroke-linecap:round;stroke-linejoin:round;stroke-miterlimit:10;" d="&#10;&#9;&#9;&#9;M182.278,238.451c11.784,4.456,23.569,4.456,35.353,0"/>
		<path style="fill:none;stroke:#000000;stroke-width:15;stroke-linecap:round;stroke-linejoin:round;stroke-miterlimit:10;" d="&#10;&#9;&#9;&#9;M332.832,238.451c-11.784,4.456-23.569,4.456-35.353,0"/>
	</g>
	<path style="fill:none;stroke:#000000;stroke-width:15;stroke-linecap:round;stroke-linejoin:round;stroke-miterlimit:10;" d="&#10;&#9;&#9;M239.5,339.981c10.366-5.282,22.634-5.282,33,0"/>
	<g>
		<path style="fill:none;stroke:#000000;stroke-width:15;stroke-linecap:round;stroke-linejoin:round;stroke-miterlimit:10;" d="&#10;&#9;&#9;&#9;M187.995,379.108v48.052c0,15.319-11.433,28.228-26.639,30.081L54.907,470.204C34.6,472.678,17.126,485.73,8.992,504.5l0,0"/>
		<path style="fill:none;stroke:#000000;stroke-width:15;stroke-linecap:round;stroke-linejoin:round;stroke-miterlimit:10;" d="&#10;&#9;&#9;&#9;M324.005,379v48.159c0,15.319,11.433,28.228,26.639,30.081l106.449,12.965c20.307,2.473,37.781,15.525,45.914,34.295v0"/>
	</g>
	<path style="fill:none;stroke:#000000;stroke-width:15;stroke-linecap:round;stroke-linejoin:round;stroke-miterlimit:10;" d="&#10;&#9;&#9;M135.216,317.294c-25.707-4.016-45.376-26.256-45.376-53.09v-0.604c0-16.182,13.118-29.3,29.3-29.3H130"/>
	<path style="fill:none;stroke:#000000;stroke-width:15;stroke-linecap:round;stroke-linejoin:round;stroke-miterlimit:10;" d="&#10;&#9;&#9;M409.492,298.862c-8.166,9.667-19.684,16.412-32.761,18.441"/>
	<path style="fill:none;stroke:#000000;stroke-width:15;stroke-linecap:round;stroke-linejoin:round;stroke-miterlimit:10;" d="&#10;&#9;&#9;M382,234.3h10.86c16.182,0,29.3,13.118,29.3,29.3v0.604c0,1.057-0.031,2.107-0.091,3.148"/>
	
		<line style="fill:none;stroke:#000000;stroke-width:15;stroke-linecap:round;stroke-linejoin:round;stroke-miterlimit:10;" x1="101.999" y1="165.915" x2="101.999" y2="239.66"/>
	<path style="fill:none;stroke:#000000;stroke-width:15;stroke-linecap:round;stroke-linejoin:round;stroke-miterlimit:10;" d="&#10;&#9;&#9;M410.001,239.585V127.5c0-66.274-53.726-120-120-120h-68.003c-66.274,0-120,53.726-120,120v3.415"/>
	
		<circle style="fill:none;stroke:#000000;stroke-width:15;stroke-linecap:round;stroke-linejoin:round;stroke-miterlimit:10;" cx="291.34" cy="150.746" r="13.5"/>
	
		<circle style="fill:none;stroke:#000000;stroke-width:15;stroke-linecap:round;stroke-linejoin:round;stroke-miterlimit:10;" cx="280" cy="452" r="16.5"/>
	
		<circle style="fill:none;stroke:#000000;stroke-width:15;stroke-linecap:round;stroke-linejoin:round;stroke-miterlimit:10;" cx="325" cy="491" r="13.5"/>
	<path style="fill:none;stroke:#000000;stroke-width:15;stroke-linecap:round;stroke-linejoin:round;stroke-miterlimit:10;" d="&#10;&#9;&#9;M167.082,483.404c-11.912-2.395-21.226-11.829-23.512-23.713"/>
	<path style="fill:none;stroke:#000000;stroke-width:15;stroke-linecap:round;stroke-linejoin:round;stroke-miterlimit:10;" d="&#10;&#9;&#9;M188.483,428.275c8.874,5.343,14.737,15.142,14.543,26.244c-0.103,5.927-1.919,11.423-4.967,16.024"/>
	
		<circle style="fill:none;stroke:#000000;stroke-width:15;stroke-linecap:round;stroke-linejoin:round;stroke-miterlimit:10;" cx="216.5" cy="131.403" r="0"/>
	
		<circle style="fill:none;stroke:#000000;stroke-width:15;stroke-linecap:round;stroke-linejoin:round;stroke-miterlimit:10;" cx="203.5" cy="153.403" r="0"/>
	
		<circle style="fill:none;stroke:#000000;stroke-width:15;stroke-linecap:round;stroke-linejoin:round;stroke-miterlimit:10;" cx="353.99" cy="260.858" r="0"/>
	
		<circle style="fill:none;stroke:#000000;stroke-width:15;stroke-linecap:round;stroke-linejoin:round;stroke-miterlimit:10;" cx="328.01" cy="275.858" r="0"/>
	
		<circle style="fill:none;stroke:#000000;stroke-width:15;stroke-linecap:round;stroke-linejoin:round;stroke-miterlimit:10;" cx="353" cy="289.142" r="0"/>
	
		<circle style="fill:none;stroke:#000000;stroke-width:15;stroke-linecap:round;stroke-linejoin:round;stroke-miterlimit:10;" cx="187.995" cy="300.191" r="15"/>
	<path style="fill:none;stroke:#000000;stroke-width:15;stroke-linecap:round;stroke-linejoin:round;stroke-miterlimit:10;" d="&#10;&#9;&#9;M337.624,366.102c-9.797-3.935-16.389-13.848-15.613-24.947c0.963-13.773,12.91-24.158,26.683-23.195&#10;&#9;&#9;c9.178,0.642,16.851,6.16,20.665,13.846"/>
</g>
</svg>
