<svg id="Layer_1" enable-background="new 0 0 500 500" viewBox="0 0 500 500" xmlns="http://www.w3.org/2000/svg"><path clip-rule="evenodd" d="m464.482 142.095-24.455 14.122c-3.117 1.795-7.173.778-9.016-2.42-1.823-3.159-.742-7.187 2.419-9.009l24.454-14.122c3.155-1.822 7.188-.74 9.005 2.41 1.835 3.16.748 7.198-2.407 9.019zm-166.396-71.96v-28.236c0-3.643 2.957-6.601 6.603-6.601 3.652 0 6.597 2.958 6.597 6.601v28.236c0 3.643-2.945 6.601-6.597 6.601-3.646 0-6.603-2.958-6.603-6.601zm83.595 11.403 14.112-24.453c1.823-3.159 5.861-4.241 9.022-2.42 3.161 1.831 4.231 5.862 2.407 9.021l-14.111 24.454c-1.842 3.193-5.911 4.212-9.022 2.42-3.156-1.822-4.231-5.862-2.408-9.022zm-282.007-7.84c-14.118 13.588-22.485 32.549-22.485 52.903 0 44.569 39.541 78.949 83.888 72.645-12.312 9.548-27.581 14.898-43.662 14.898-39.344 0-71.336-32.004-71.336-71.335-.001-33.218 22.812-61.2 53.595-69.111zm17.741 153.644c28.796 0 55.342-14.465 71.014-38.68 3.693-5.693-2.786-12.652-8.736-9.354-8.859 4.9-18.915 7.487-29.106 7.487-33.19 0-60.198-27.003-60.198-60.194 0-24.12 14.328-45.854 36.498-55.356 6.275-2.694 4.776-12.049-2.022-12.646-49.418-4.34-91.986 34.685-91.986 84.211-.001 46.607 37.917 84.532 84.536 84.532zm301.751 224.162h-373.748v-82.538h332.477c3.646 0 6.603-2.956 6.603-6.599v-138.024c0-1.637 1.327-2.974 2.974-2.974h28.72c1.636 0 2.974 1.338 2.974 2.974zm-350.316-134.391c-12.92 0-23.432 10.506-23.432 23.43v15.225h290.848l-29.456-38.655zm171.41-18.646c3.138 3.608 8.66 5.446 16.42 5.446h50.662l29.982-29.988c2.577-2.577 6.761-2.568 9.338 0 2.577 2.579 2.577 6.758 0 9.338l-27.832 27.831 34.026 44.674h18.442v-131.425c0-.644.041-1.285.123-1.911-11.371 9.164-25.671 14.128-41.19 13.438l-43.405 43.405c-1.239 1.232-2.922 1.929-4.675 1.929h-45.894c-.444 7.9.894 13.691 4.003 17.263zm45.111-123.542c0 26.364 21.457 47.815 47.817 47.815 26.365 0 47.816-21.452 47.816-47.815 0-26.362-21.451-47.815-47.816-47.815-26.36 0-47.817 21.454-47.817 47.815zm130.821 33.243h-28.72c-1.163 0-2.296.133-3.401.37 6.399-9.653 10.133-21.198 10.133-33.613 0-33.638-27.365-61.013-61.017-61.013-33.64 0-61.011 27.375-61.011 61.013 0 27.101 17.775 50.13 42.271 58.057l-35.025 35.022h-49.125c-3.29 0-6.077 2.419-6.533 5.677-1.835 12.985-.479 22.931 4.149 30.232h-159.063c-20.195 0-36.632 16.427-36.632 36.63v117.559c0 3.652 2.957 6.599 6.603 6.599h386.943c3.646 0 6.603-2.947 6.603-6.599v-233.76c0-8.913-7.264-16.174-16.175-16.174z" fill-rule="evenodd"/></svg>