<svg id="Layer_2" enable-background="new 0 0 64 64" height="512" viewBox="0 0 64 64" width="512" xmlns="http://www.w3.org/2000/svg"><g><path d="m29.105 29.892c.248.495.849.695 1.342.447.017-.008 1.599-.752 3.105 0 .144.072.296.105.446.105.367 0 .72-.202.896-.553.247-.494.047-1.095-.447-1.342-2.421-1.21-4.794-.049-4.895 0-.493.248-.694.848-.447 1.343z"/><path d="m41.859 42.095c-.715-.071-1.328-.49-1.626-1.101l-1.108-6.361c2.715-2.013 4.551-5.136 4.827-8.698.177.04.359.065.548.065 1.379 0 2.5-1.122 2.5-2.5v-2.5-1.5-6.5c0-7.168-5.832-13-13-13h-4c-7.168 0-13 5.832-13 13v6.5 1.5 2.5c0 1.378 1.121 2.5 2.5 2.5.189 0 .371-.025.547-.065.277 3.562 2.113 6.685 4.827 8.698l-1.108 6.361c-.298.611-.912 1.029-1.634 1.102-7.632.821-17.132 1.842-17.132 11.634v9.27c0 .552.447 1 1 1h52c.553 0 1-.448 1-1v-9.27c0-9.792-9.5-10.813-17.141-11.635zm3.141-18.595c0 .271-.229.5-.5.5s-.5-.229-.5-.5v-4c0-.271.229-.5.5-.5s.5.229.5.5v1.5zm-15-21.5h4c6.065 0 11 4.935 11 11v4.051c-.162-.033-.329-.051-.5-.051s-.338.018-.5.051v-3.141c0-.548-.441-.995-.99-1-7.371-.075-12.711-4.241-14.01-5.357v-3.553c0-.552-.447-1-1-1s-1 .448-1 1v3.756c-1.865 3.458-6.313 5.202-6.357 5.22-.387.148-.643.52-.643.933v3.141c-.162-.032-.329-.05-.5-.05s-.338.018-.5.051v-4.051c0-6.065 4.935-11 11-11zm-10.5 22c-.271 0-.5-.229-.5-.5v-2.5-1.5c0-.271.229-.5.5-.5s.5.229.5.5v4c0 .271-.229.5-.5.5zm2.5 1v-1.5-4-4.933c1.327-.612 4.381-2.245 6.255-5.027 1.99 1.596 6.954 4.968 13.745 5.337v4.623 4 1.5c0 5.514-4.486 10-10 10s-10-4.486-10-10zm10 12c1.9 0 3.692-.456 5.29-1.245l.994 5.707c.014.075.034.148.064.218.044.105.1.203.153.303l-6.501 5.688-6.502-5.689c.053-.1.109-.198.154-.303.03-.07.051-.143.064-.218l.994-5.707c1.598.79 3.39 1.246 5.29 1.246zm25 25h-9v-6c0-.552-.447-1-1-1s-1 .448-1 1v6h-28v-6c0-.552-.447-1-1-1s-1 .448-1 1v6h-9v-8.27c0-7.421 6.361-8.679 15.34-9.645.658-.066 1.27-.292 1.801-.633l7.201 6.3c.188.165.423.248.658.248s.47-.083.658-.248l7.2-6.3c.53.34 1.14.566 1.794.632 8.987.967 15.348 2.225 15.348 9.646z"/><path d="m29.447 21.895c.494-.247.694-.848.447-1.342-.248-.494-.848-.694-1.342-.447-1.497.75-3.065.019-3.11-.002-.494-.241-1.09-.042-1.337.45-.247.494-.047 1.095.447 1.342.066.033 1.122.549 2.528.549.726-.002 1.544-.139 2.367-.55z"/><path d="m38.553 20.105c-1.497.75-3.065.019-3.11-.002-.494-.241-1.09-.042-1.337.45-.247.494-.047 1.095.447 1.342.066.033 1.122.549 2.528.549.725 0 1.543-.137 2.366-.549.494-.247.694-.848.447-1.342s-.847-.695-1.341-.448z"/><path d="m30.164 17.986c.545-.091.913-.606.822-1.151-.091-.544-.605-.914-1.15-.822l-6 1c-.545.091-.913.606-.822 1.151.081.489.505.836.985.836.055 0 .109-.004.165-.014z"/><path d="m33.836 17.986 6 1c.056.01.11.014.165.014.48 0 .904-.347.985-.835.091-.545-.277-1.06-.822-1.151l-6-1c-.545-.093-1.06.277-1.15.822s.277 1.06.822 1.15z"/><path d="m46.105 34.447c.17.339.516.553.895.553h3c.553 0 1-.448 1-1s-.447-1-1-1h-1l1.8-2.4c.228-.303.264-.708.095-1.047-.17-.339-.516-.553-.895-.553h-3c-.553 0-1 .448-1 1s.447 1 1 1h1l-1.8 2.4c-.227.303-.263.708-.095 1.047z"/><path d="m50 22h2.586l-3.293 3.293c-.286.286-.372.716-.217 1.09.154.373.52.617.924.617h5c.553 0 1-.448 1-1s-.447-1-1-1h-2.586l3.293-3.293c.286-.286.372-.716.217-1.09-.154-.373-.52-.617-.924-.617h-5c-.553 0-1 .448-1 1s.447 1 1 1z"/><path d="m61 16h-4.297l4.947-4.241c.318-.272.433-.714.287-1.106-.144-.392-.518-.653-.937-.653h-7c-.553 0-1 .448-1 1s.447 1 1 1h4.297l-4.947 4.241c-.318.272-.433.714-.287 1.106.144.392.518.653.937.653h7c.553 0 1-.448 1-1s-.447-1-1-1z"/><path d="m10 38c2.757 0 5-2.243 5-5v-19c0-2.414-1.721-4.434-4-4.899v-1.101c0-1.103-1.01-2-2.25-2h-2.5c-1.24 0-2.25.897-2.25 2v1.101c-2.279.465-4 2.485-4 4.899v19c0 2.757 2.243 5 5 5zm-3.75-30h2.5c.153 0 .251.059.25.002v.998h-3.012l-.01-.914c.021-.027.119-.086.272-.086zm-4.25 6c0-1.654 1.346-3 3-3h5c1.654 0 3 1.346 3 3v19h-11zm.78 21h9.439c-.549.609-1.337 1-2.22 1h-4.999c-.883 0-1.67-.391-2.22-1z"/><path d="m6.813 13.419c-.269-.375-.759-.517-1.186-.347-.428.171-.683.613-.618 1.07l.941 6.59-2.75 3.668c-.278.371-.266.884.031 1.24l5 6c.196.234.479.36.769.36.141 0 .283-.03.417-.091.41-.188.644-.628.569-1.074l-.93-5.578 2.744-3.657c.262-.349.268-.827.014-1.181zm.387 10.981c-.164.219-.231.495-.187.765l.394 2.362-2.133-2.56 2.526-3.367c.159-.212.228-.479.19-.742l-.42-2.94 2.19 3.067z"/></g></svg>